<?xml version="1.0" encoding="utf-8"?>
<!-- Generator: Adobe Illustrator 24.0.3, SVG Export Plug-In . SVG Version: 6.00 Build 0)  -->
<svg version="1.1" id="Layer_1" xmlns="http://www.w3.org/2000/svg" xmlns:xlink="http://www.w3.org/1999/xlink" x="0px" y="0px"
	 viewBox="0 0 80 50" style="enable-background:new 0 0 80 50;" xml:space="preserve">
<style type="text/css">
	.st0{fill:#FFFFFF;}
	.st1{fill:#CB3233;}
	.st2{fill:#CC0000;}
	.st3{fill:#231F20;}
	.st4{fill:#00FF00;}
</style>
<g>
	<rect class="st0" width="80" height="50"/>
</g>
<path class="st1" d="M61.1,20.7c0,0.3-5.7,0.5-6.3,0.6c-0.6,0.1-0.7,0.5-0.7,0.5l-4.6,12H49l3.6-12.3c0,0,0.3-0.8-0.5-0.7
	c-0.7,0-2.7,0.2-3,0.2c-0.2,0-0.6,0.1-0.9,0.2c-0.3,0.1-2.1,0.9-3,1.3s-0.4,1.6-0.4,1.6s2.1,5.8,2.6,7.1c0.5,1.3,0,1.4,0,1.4
	s-0.9,0.8-1.3,1C45.7,34,44.8,34,44.8,34h-1.9c0,0,1.6-1.2,1.9-1.4c0.3-0.2,0.5-0.4,0.3-1.3c-1.8-7.9-4.2-7.5-4.2-7.5
	s11.1-5.3,11.6-5.5c0.4-0.2,1.2-0.2,2,0C55.1,18.6,61.1,20.4,61.1,20.7z"/>
<path class="st2" d="M52.7,8.6c0.2-0.2,0.5-0.3,0.6-0.4c0.2-0.1,1.1,0,1.4,0c0.2,0.1,11.3,3.6,13.2,10.6c0.1,0.2,0.2,0.6-0.2,1.1
	c-0.4,0.4-0.8,0.9-0.8,0.9s-0.4,0.3-1.1,0.1C65,20.5,57,18.2,57.1,18c0-0.2,5.6,0.8,6.4,1c0.8,0.2,0.9-0.1,0.9-0.1
	c0.3-0.6,0.9-0.9,1.3-0.9c0.4-0.1,0.5-0.4,0.3-0.6s-0.8-1.1-1.3-1.3c-0.5-0.2-2.5-0.1-3-1.1s-2.7-4.5-6.9-4.5c-0.6,0-1.9-1.1-2-1.2
	C52.5,9.1,52.5,8.7,52.7,8.6z"/>
<path d="M62.5,21.2c-8.8,3.9-10.9,11.7-10.9,12S51.4,34,51.8,34s0.4,0,0.8,0s0.7-0.3,0.9-0.9C53.6,32.5,55.2,26.2,62.5,21.2z"/>
<path d="M25.8,32.5c0,0-2.1-1.1-4.1-2.1l0-0.7h-1.5c-1-0.4-1.8-0.7-2.1-0.7c-4.1,0-4.1,4-4.1,4.5c0,0.6,0.7,0.6,0.7,0.6h5
	c0,0,2.1,0,3.2-0.4C23.9,33.3,25.8,32.5,25.8,32.5z"/>
<path d="M25.8,32.9c0,0-0.9,0.9-0.9,0.9l0.7,0.1L25.8,32.9z"/>
<path d="M29.8,27.2c-1.3-0.5-3.6-1.1-3.6-1.1l-3.1,1.4l-1,0.2l-0.4,1.1c0,0-0.3,0.6,0,0.8c0.2,0.2,0.4-0.1,0.4-0.1l0.3-0.4l8.3,4.7
	c0,0,0.5,0.3,0.9,0.3s0.8,0,0.9,0c0.2,0,0.4-0.2,0.2-0.4c-0.4-0.3-3.7-2.5-3.7-2.5l4.1-1.5c0,0,0.2-0.1,0.3,0.1
	c0.1,0.2-0.1,0.3-0.1,0.3s-0.9,0.4-1.1,0.6c-0.2,0.1-0.1,0.6-0.1,0.9c0,0.4,0.3,0.5,0.4,0.5c0.2,0,0.4,0,0.8,0
	c0.4,0,0.5,0.3,0.5,0.4c0,0.1,0,0.6,0,1.1c0,0.5,0.7,0.3,0.7,0s0.2-1.8,0.2-1.8s0.4,0.7,0.4,1.2c0,0.5-0.1,1.4-0.1,1.4
	s-0.2,0.6,1,0.4c1.1-0.1,0.7-1,0.7-1l-1.5-5l-1.4-0.4v-1.2c0,0-0.1-0.3-0.6-0.3c-0.5,0-0.5,0.3-0.5,0.3s0.1,0.6-0.1,0.9
	c-0.1,0.3-0.4,0.2-0.4,0.2S31,27.7,29.8,27.2z"/>
<polygon class="st0" points="27.6,31.6 22.2,28.6 22.3,28 23.5,27.7 29,31.2 "/>
<path d="M16,23.9C16,23.9,16,23.9,16,23.9c3.5-0.9,8.8,1.7,8.8,1.7c-1.2-1.3-3.4-3.2-7.4-3c-8.8,0.6-9.6,8.1-9.9,10.1H8
	c0,0,0.5-4.6,4.5-7.3c-1.4,1.3-2.2,2.9-2.2,2.9s2.7-2.6,4.9-3.3c2.2-0.8,5.8-0.4,5.8-0.4S19.4,23.4,16,23.9z"/>
<path d="M46.3,20.7c-0.3,0.3-1.1,0-0.8-0.4c0.2-0.3,0.6-1.7,2-2.4c1.4-0.7,8.9-3.7,8.9-3.7l0.1-0.5c0,0,2.4-0.1,2.3,0.8
	c-0.1,0.9-1.4,2.1-1.7,2.2c-0.3,0.1-0.7-0.2-0.5-0.4s1.2-1.2,1.2-1.2s0.3-0.3,0.1-0.5c-0.2-0.2-0.5,0.2-0.5,0.2L55.3,17
	c0,0-0.2,0.2-0.3,0.1s-0.3-0.3-0.3-0.3s-0.2-0.2,0-0.3c0.2-0.1,0.4-0.3,0.6-0.4c0.2-0.1,0.1-0.5-0.4-0.2C54.4,16,52,17,49.7,18.1
	C47.4,19.3,46.6,20.4,46.3,20.7z"/>
<path class="st3" d="M32.2,21.7c-4.2-2.3-5.6-2.5-8.8-3.8c-3.2-1.3-9.2-4-9.2-4s3.3,0.9,5.1,1.3s3.1,0.9,4.2,1.2
	c1.2,0.3,2.2,0.5,3.2,0.8c2.3,0.7,2.7,2.4,4.4,2.9s2.8,1,4.3,2c0.3,0.2,0.5,0.2,0.5,0.2h0.5c0,0,0-0.6,0-0.8c0-0.2,0.9-0.8,1-1
	c0.2-0.2-0.3-0.2-0.6-0.1S36.2,20.9,36,21s-0.5,0.1-0.6,0s-0.8-0.6-0.9-0.8c-0.2-0.1,0.3-0.7,0.2-0.8c-0.1-0.1-0.6,0.2-0.8,0.3
	c-0.2,0.1-0.3,0.1-0.6,0c-0.2-0.1-2.9-1.6-2.9-1.6s8,1.2,8.8,1.3c0.8,0.1,1.4,0.1,1.6,0c0.2,0,0.2-0.3,0.4-0.3c0.2,0,0.8,0,1,0
	c0.2,0,0.1,0.2,0.3,0.2c0.2,0,1.2,0,1.2,0c-1.9-1.2-7.3-2.5-7.8-2.5c-0.5,0-0.9,0.2-1.9,0.2c-1.2,0-7.1-0.4-8.1-1.7
	c0,0,2.8,1.2,8.7,1c3.3-0.1,5.6,1.1,6.7,1.2c0.9,0.1,1,0,1.2,0c0-2.6-2.9-3.5-2.9-3.5s-0.9-0.4-1.4-0.6c-0.6-0.2,0.1-0.5,0.1-0.5
	s0.7-0.2,1-0.3c0.2-0.1,0.7,0.1,0.7,0.1s5.2,1.7,8.2,2.4c3,0.7,4.9-0.6,4.9-0.6s0.5-0.3-0.1-0.6c-0.6-0.3-5.2-3.3-10-3.3
	c-4.4,0-6.4,2.6-6.4,2.6s-1.5,1.9-2,2s-9.4-1.2-9.4-1.2s-0.9-0.2-1.2-0.7c-0.2-0.5-0.9-1.9-0.9-1.9S12.6,12.3,12,12.3
	c-0.6,0-0.7,0.4-0.4,0.5c2.4,1.6,5,2.8,6.5,3.7c1.5,0.8,3.7,2,5.6,2.8c1.9,0.8,4.9,1.2,7.3,2.3c0.7,0.3,0.7,0.7,0.7,0.7
	s-0.1,0.3-0.1,0.6c-0.1,0.3,0.3,0.4,0.5,0.2s0.3-0.4,0.4-0.5C32.6,22.4,32.8,22,32.2,21.7z"/>
<path d="M37,22.5c0.3,0,1,0.7,1.1,1.1c0.1,0.3-0.5,1.1-0.6,2c-0.2,0.9-0.3,1.5-0.3,1.8c0,0.3-0.6,0.4-0.6-0.2c0-1.9,0.6-3.2,0.6-3.2
	L37,23.7c0,0-1,0.9-1.2,2.4c-0.1,0.6-0.9,0.7-0.8,0.1C35.1,23.7,36.8,22.5,37,22.5z"/>
<polygon class="st4" points="42.7,20.9 38.1,22.8 38.3,23.2 39.7,23 43.1,21.6 "/>
<path d="M42.8,20.9c-0.8,0.2-4.6,1.7-4.6,1.9s0,0.4,0.2,0.4c0.2,0.1,0.9-0.1,1.4-0.2s2.8-1.1,3.4-1.4S43.6,20.7,42.8,20.9z"/>
<path d="M38.9,26.9c0-0.2,0-1.2,0-1.7c0-0.5,1.5-0.7,1.8-0.7c0.4,0,0.9,0.2,1,0.4c0.2,0.2,0,0.4,0,0.4s-0.6,0.2-0.5,0.3
	s0.6,0,0.6,0.2c0.1,0.2-0.7,0.6-0.6,0.7s0.6,0,0.6,0.2c0.1,0.4-0.9,0.6-1.4,0.8c-0.1,0-0.1,0.2,0.1,0.3s0.8,0.3,0.8,0.5
	s-0.6,0.3-0.7,0.3c-0.1,0-0.2,0.2,0.2,0.2c1,0.2,0.9-0.9,0.9-0.9s-0.1-0.5,0.5-0.5c0.6,0,0.6,0.3,0.6,0.5c0,0.3-0.1,1.7-1.8,1.7
	c-1.9,0-1.9-1.3-1.9-1.4c0.1-0.1,0.6,0.6,1.1,0.8c0.1-0.4-0.6-0.6-0.6-0.7s0.5,0,0.5-0.2s-0.3-0.3-0.6-0.5c-0.3-0.1-0.3-0.2-0.3-0.4
	c0.2-0.5,0.7-1.1,0.6-1.2s-0.8,0.6-0.9,0.7C39,27.1,38.9,27.1,38.9,26.9z"/>
<path d="M44.2,29.9c0,0.2-0.3,2.1-3.2,2.4c-2.1,0.2-2.8-1.2-2.8-1.3s0.4-0.2,0.5-0.1s0.8,0.6,1.3,0.6s0.3-0.3,0.5-0.3
	c0.3-0.1,0.6,0,1.1,0c0.5,0,1.6-0.8,1.9-1.4C43.8,29,44.1,29.6,44.2,29.9z"/>
<path d="M57.3,26.8l3.1-3.2h3.3c3.7,0.4,5.9,1.8,6.1,2c0.2,0.2,0.1,0.4-0.6,0.6c-0.7,0.1-2.8,0.1-2.8,0.1c-0.9,1.3-1.2,3.1-1.2,3.1
	s3.1,0.8,3.5,4.2c0,0.3,0,0.6-0.7,0.6s-0.7-0.3-0.7-0.3c0-0.9-0.6-1.8-0.8-1.7c-0.2,0,0.6,1.8,0.4,1.9s-1.2-1.8-1.2-1.9
	S65,31.9,65,32.2c0,0.3-0.2,1.8-0.2,1.8h-2.2c0,0-0.6-1.9-0.9-1.9c-0.3,0-0.7,1.3-0.8,1.6c-0.1,0.3-0.5,0.2-0.4,0
	c0-0.2,0.2-0.9,0.6-2c-0.8,0.9-0.8,1.8-0.9,2.1c-0.1,0.3-1.5,0.4-1.4-0.4c0.1-0.6,1.1-2.4,2-3.3c0.1-0.1,0.1-0.4,0.1-0.4l-1.7-3.7
	L58.7,26l-1.3,0.9L57.3,26.8z"/>
<path class="st2" d="M59.1,29.4c-2.7,1.6-2.4,4.2-2.4,4.5c0,0.4,0.7,0.5,0.8,0c0.1-0.5,0-1.9,1.8-4.3C59.4,29.4,59.2,29.3,59.1,29.4
	z"/>
<path d="M69.6,26.7c2.6,1.4,3.7,5.1,3.7,7c0,0.4-0.6,0.3-0.8,0.3c-0.2,0-0.3-0.6-0.3-0.6c-0.9-4.9-2.5-6.3-2.7-6.4
	C69.2,26.9,69.4,26.6,69.6,26.7z"/>
<polygon class="st2" points="6.1,43.6 23.9,44.7 23.9,42.6 "/>
<polygon class="st2" points="74.8,43.6 57,44.7 57,42.6 "/>
<g id="Mälardalens_MC_Service_AB">
	<path d="M7.9,40.6C7.9,40.6,7.9,40.7,7.9,40.6C7.9,40.7,7.9,40.7,7.9,40.6c-0.1,0.1-0.2,0.1-0.2,0.1c0,0-0.1,0-0.2,0
		c-0.1,0-0.1,0-0.2,0c0,0-0.1,0-0.1,0s0,0,0,0c0,0,0,0,0-0.1l0.6-3h0l-1.7,3c0,0-0.1,0.1-0.1,0.1c-0.1,0-0.2,0-0.3,0
		c-0.1,0-0.2,0-0.3,0c-0.1,0-0.1,0-0.1-0.1l-0.4-3h0l-0.6,3c0,0,0,0,0,0.1s0,0-0.1,0s-0.1,0-0.1,0c0,0-0.1,0-0.2,0
		c-0.1,0-0.1,0-0.2,0c0,0-0.1,0-0.1,0s0,0,0,0c0,0,0,0,0-0.1l0.7-3.3c0,0,0-0.1,0-0.1c0,0,0-0.1,0.1-0.1c0,0,0.1,0,0.1-0.1
		c0,0,0.1,0,0.1,0h0.5c0.1,0,0.2,0,0.2,0c0.1,0,0.1,0,0.1,0.1c0,0,0.1,0.1,0.1,0.1c0,0.1,0,0.1,0,0.2l0.4,2.2h0l1.3-2.2
		c0-0.1,0.1-0.1,0.1-0.2s0.1-0.1,0.1-0.1c0,0,0.1-0.1,0.2-0.1c0.1,0,0.1,0,0.2,0h0.5c0,0,0.1,0,0.1,0s0.1,0,0.1,0.1c0,0,0,0.1,0,0.1
		c0,0,0,0.1,0,0.1L7.9,40.6z"/>
	<path d="M11.7,40.4c0,0.1,0,0.1,0,0.2s0,0.1,0,0.1s-0.1,0-0.1,0c-0.1,0-0.1,0-0.2,0c-0.1,0-0.1,0-0.2,0c0,0-0.1,0-0.1,0s0,0-0.1,0
		c0,0,0,0,0-0.1l-0.1-0.8H9.5l-0.4,0.7c0,0,0,0,0,0.1c0,0,0,0-0.1,0s-0.1,0-0.1,0c-0.1,0-0.1,0-0.2,0c-0.1,0-0.2,0-0.2,0
		s-0.1,0-0.1,0c0,0,0-0.1,0-0.1c0,0,0-0.1,0.1-0.2l1.8-3.3c0,0,0-0.1,0.1-0.1c0,0,0,0,0.1,0c0,0,0.1,0,0.1,0s0.1,0,0.2,0
		c0.1,0,0.2,0,0.3,0c0.1,0,0.1,0,0.2,0c0,0,0.1,0,0.1,0c0,0,0,0.1,0,0.1L11.7,40.4z M10.6,37.7L10.6,37.7l-0.8,1.6h1L10.6,37.7z
		 M10.6,36.3c0,0.1,0,0.1,0,0.2c0,0,0,0.1-0.1,0.1c0,0-0.1,0-0.1,0.1c-0.1,0-0.1,0-0.2,0c-0.1,0-0.1,0-0.2,0c0,0-0.1,0-0.1-0.1
		c0,0,0-0.1,0-0.1c0,0,0-0.1,0-0.2c0-0.1,0-0.1,0-0.2c0,0,0-0.1,0.1-0.1c0,0,0.1,0,0.1-0.1c0.1,0,0.1,0,0.2,0c0.1,0,0.1,0,0.2,0
		c0,0,0.1,0,0.1,0.1c0,0,0,0.1,0,0.1C10.6,36.2,10.6,36.3,10.6,36.3z M11.9,36.3c0,0.1,0,0.1-0.1,0.2c0,0-0.1,0.1-0.1,0.1
		c0,0-0.1,0-0.1,0.1c0,0-0.1,0-0.2,0c-0.1,0-0.1,0-0.2,0c0,0-0.1,0-0.1-0.1c0,0,0-0.1,0-0.1c0,0,0-0.1,0-0.2c0-0.1,0-0.1,0.1-0.2
		s0-0.1,0.1-0.1c0,0,0.1,0,0.1-0.1s0.1,0,0.2,0c0.1,0,0.1,0,0.2,0c0,0,0.1,0,0.1,0.1c0,0,0,0.1,0,0.1C11.9,36.2,11.9,36.3,11.9,36.3
		z"/>
	<path d="M14.2,40.2C14.2,40.2,14.2,40.3,14.2,40.2c0,0.1,0,0.1,0,0.2c0,0,0,0.1,0,0.1c0,0,0,0.1,0,0.1c0,0,0,0.1-0.1,0.1
		c0,0,0,0-0.1,0h-1.7c0,0-0.1,0-0.1,0s0,0-0.1,0c0,0,0,0,0-0.1c0,0,0-0.1,0-0.1l0.7-3.4c0,0,0,0,0-0.1c0,0,0,0,0.1,0s0.1,0,0.1,0
		c0,0,0.1,0,0.2,0c0.1,0,0.1,0,0.2,0c0,0,0.1,0,0.1,0s0,0,0.1,0c0,0,0,0,0,0.1l-0.6,3h1.2C14.1,40.1,14.2,40.1,14.2,40.2
		C14.2,40.2,14.2,40.2,14.2,40.2z"/>
	<path d="M17.5,40.4c0,0.1,0,0.1,0,0.2s0,0.1,0,0.1s-0.1,0-0.1,0c-0.1,0-0.1,0-0.2,0c-0.1,0-0.1,0-0.2,0c0,0-0.1,0-0.1,0s0,0-0.1,0
		c0,0,0,0,0-0.1l-0.1-0.8h-1.4l-0.4,0.7c0,0,0,0,0,0.1c0,0,0,0-0.1,0s-0.1,0-0.1,0c-0.1,0-0.1,0-0.2,0c-0.1,0-0.2,0-0.2,0
		s-0.1,0-0.1,0c0,0,0-0.1,0-0.1c0,0,0-0.1,0.1-0.2l1.8-3.3c0,0,0-0.1,0.1-0.1c0,0,0,0,0.1,0c0,0,0.1,0,0.1,0s0.1,0,0.2,0
		c0.1,0,0.2,0,0.3,0c0.1,0,0.1,0,0.2,0c0,0,0.1,0,0.1,0c0,0,0,0.1,0,0.1L17.5,40.4z M16.4,37.7L16.4,37.7l-0.8,1.6h1L16.4,37.7z"/>
	<path d="M21,37.8c0,0.1,0,0.2-0.1,0.4s-0.1,0.2-0.2,0.3c-0.1,0.1-0.2,0.2-0.3,0.3c-0.1,0.1-0.3,0.2-0.4,0.2c0.1,0,0.2,0.1,0.2,0.2
		s0.1,0.3,0.2,0.4l0.2,0.8c0,0,0,0.1,0,0.1c0,0,0,0.1,0,0.1c0,0,0,0,0,0c0,0,0,0-0.1,0c0,0-0.1,0-0.1,0c-0.1,0-0.1,0-0.2,0
		c-0.1,0-0.1,0-0.2,0c0,0-0.1,0-0.1,0c0,0,0,0-0.1,0c0,0,0,0,0-0.1l-0.1-0.8c0-0.1,0-0.2-0.1-0.3c0-0.1-0.1-0.1-0.1-0.2
		s-0.1-0.1-0.1-0.1s-0.1,0-0.2,0H19l-0.3,1.4c0,0,0,0,0,0.1c0,0,0,0-0.1,0s-0.1,0-0.1,0c0,0-0.1,0-0.2,0c-0.1,0-0.1,0-0.2,0
		c0,0-0.1,0-0.1,0s0,0-0.1,0c0,0,0,0,0-0.1l0.7-3.4c0-0.1,0-0.1,0.1-0.2c0.1,0,0.1-0.1,0.2-0.1h1c0.2,0,0.3,0,0.5,0
		c0.1,0,0.3,0.1,0.4,0.2c0.1,0.1,0.2,0.2,0.2,0.3S21,37.7,21,37.8z M20.2,38c0-0.1,0-0.1,0-0.2c0,0,0-0.1-0.1-0.1
		c0,0-0.1-0.1-0.2-0.1s-0.1,0-0.2,0h-0.4l-0.2,1.1h0.4c0.1,0,0.3,0,0.4-0.1s0.2-0.1,0.2-0.2s0.1-0.1,0.1-0.2S20.2,38,20.2,38z"/>
	<path d="M24.6,38.3c0,0.1,0,0.2,0,0.4c0,0.1,0,0.3-0.1,0.4s-0.1,0.3-0.1,0.4c-0.1,0.1-0.1,0.3-0.2,0.4s-0.2,0.2-0.3,0.3
		c-0.1,0.1-0.3,0.2-0.4,0.3c-0.2,0.1-0.3,0.1-0.5,0.2s-0.4,0.1-0.7,0.1h-0.9c0,0-0.1,0-0.1,0c0,0-0.1,0-0.1,0c0,0,0,0,0-0.1
		c0,0,0-0.1,0-0.1l0.7-3.3c0-0.1,0-0.1,0.1-0.2c0.1,0,0.1-0.1,0.2-0.1H23c0.3,0,0.5,0,0.7,0.1c0.2,0.1,0.4,0.1,0.5,0.3
		c0.1,0.1,0.2,0.3,0.3,0.4S24.6,38.1,24.6,38.3z M23.8,38.4c0-0.1,0-0.2,0-0.3c0-0.1-0.1-0.2-0.2-0.3c-0.1-0.1-0.2-0.1-0.3-0.2
		c-0.1,0-0.3-0.1-0.5-0.1h-0.4L22,40.1h0.4c0.2,0,0.4,0,0.5-0.1c0.1,0,0.3-0.1,0.4-0.2c0.1-0.1,0.2-0.2,0.3-0.3
		c0.1-0.1,0.1-0.2,0.2-0.4c0-0.1,0.1-0.3,0.1-0.4C23.8,38.7,23.8,38.6,23.8,38.4z"/>
	<path d="M27.7,40.4c0,0.1,0,0.1,0,0.2s0,0.1,0,0.1s-0.1,0-0.1,0c-0.1,0-0.1,0-0.2,0c-0.1,0-0.1,0-0.2,0c0,0-0.1,0-0.1,0s0,0-0.1,0
		c0,0,0,0,0-0.1l-0.1-0.8h-1.4L25,40.6c0,0,0,0,0,0.1c0,0,0,0-0.1,0s-0.1,0-0.1,0c-0.1,0-0.1,0-0.2,0c-0.1,0-0.2,0-0.2,0
		s-0.1,0-0.1,0c0,0,0-0.1,0-0.1c0,0,0-0.1,0.1-0.2l1.8-3.3c0,0,0-0.1,0.1-0.1c0,0,0,0,0.1,0c0,0,0.1,0,0.1,0s0.1,0,0.2,0
		c0.1,0,0.2,0,0.3,0c0.1,0,0.1,0,0.2,0c0,0,0.1,0,0.1,0c0,0,0,0.1,0,0.1L27.7,40.4z M26.6,37.7L26.6,37.7l-0.8,1.6h1L26.6,37.7z"/>
	<path d="M30.2,40.2C30.2,40.2,30.2,40.3,30.2,40.2c0,0.1,0,0.1,0,0.2c0,0,0,0.1,0,0.1c0,0,0,0.1,0,0.1c0,0,0,0.1-0.1,0.1
		c0,0,0,0-0.1,0h-1.7c0,0-0.1,0-0.1,0s0,0-0.1,0c0,0,0,0,0-0.1c0,0,0-0.1,0-0.1l0.7-3.4c0,0,0,0,0-0.1c0,0,0,0,0.1,0s0.1,0,0.1,0
		c0,0,0.1,0,0.2,0c0.1,0,0.1,0,0.2,0c0,0,0.1,0,0.1,0s0,0,0.1,0c0,0,0,0,0,0.1l-0.6,3h1.2C30.1,40.1,30.1,40.1,30.2,40.2
		C30.2,40.2,30.2,40.2,30.2,40.2z"/>
	<path d="M33.3,37.1C33.3,37.1,33.3,37.1,33.3,37.1c0,0.1,0,0.1,0,0.2c0,0,0,0.1,0,0.1c0,0,0,0.1,0,0.1c0,0,0,0.1-0.1,0.1
		c0,0,0,0-0.1,0h-1.3l-0.2,0.9h1.1c0,0,0,0,0.1,0c0,0,0,0,0,0.1c0,0,0,0,0,0.1c0,0,0,0.1,0,0.1c0,0,0,0.1,0,0.1c0,0,0,0.1,0,0.1
		c0,0,0,0.1-0.1,0.1c0,0,0,0-0.1,0h-1.1l-0.2,1.1h1.3c0,0,0,0,0.1,0c0,0,0,0,0,0.1c0,0,0,0,0,0.1c0,0,0,0.1,0,0.1c0,0,0,0.1,0,0.1
		c0,0,0,0.1,0,0.1c0,0,0,0.1-0.1,0.1c0,0,0,0-0.1,0h-1.9c0,0-0.1,0-0.1,0s0,0-0.1,0c0,0,0,0,0-0.1c0,0,0-0.1,0-0.1l0.7-3.3
		c0-0.1,0.1-0.1,0.1-0.2c0.1,0,0.1-0.1,0.2-0.1h1.9C33.3,37,33.3,37,33.3,37.1z"/>
	<path d="M36.3,40.5c0,0,0,0.1,0,0.1c0,0,0,0.1-0.1,0.1s-0.1,0-0.1,0.1c0,0-0.1,0-0.1,0h-0.3c-0.1,0-0.1,0-0.2,0c0,0-0.1,0-0.1-0.1
		c0,0-0.1-0.1-0.1-0.1s-0.1-0.1-0.1-0.2l-0.6-1.7c0-0.1-0.1-0.3-0.1-0.4s-0.1-0.3-0.1-0.4h0c0,0.2,0,0.3-0.1,0.4
		c0,0.1-0.1,0.3-0.1,0.4l-0.4,1.9c0,0,0,0,0,0.1c0,0,0,0-0.1,0s-0.1,0-0.1,0c0,0-0.1,0-0.2,0c-0.1,0-0.1,0-0.2,0s-0.1,0-0.1,0
		c0,0,0,0,0,0c0,0,0,0,0-0.1l0.7-3.4c0-0.1,0.1-0.2,0.1-0.2c0.1,0,0.1-0.1,0.2-0.1h0.4c0.1,0,0.1,0,0.2,0c0,0,0.1,0,0.1,0.1
		c0,0,0.1,0.1,0.1,0.1s0,0.1,0.1,0.2l0.6,1.7c0,0.1,0.1,0.2,0.1,0.3s0.1,0.2,0.1,0.3h0c0-0.1,0-0.3,0.1-0.4c0-0.1,0.1-0.3,0.1-0.4
		l0.4-1.8c0,0,0,0,0-0.1c0,0,0,0,0.1,0c0,0,0.1,0,0.1,0c0,0,0.1,0,0.2,0c0.1,0,0.1,0,0.2,0c0,0,0.1,0,0.1,0c0,0,0,0,0,0
		c0,0,0,0,0,0.1L36.3,40.5z"/>
	<path d="M39.5,37.3C39.5,37.3,39.5,37.3,39.5,37.3c0,0.1,0,0.1,0,0.2c0,0,0,0.1,0,0.1c0,0,0,0.1,0,0.1c0,0,0,0.1,0,0.1c0,0,0,0,0,0
		c0,0-0.1,0-0.1,0s-0.1,0-0.1-0.1c-0.1,0-0.1-0.1-0.2-0.1c-0.1,0-0.2,0-0.3,0c-0.1,0-0.2,0-0.3,0c-0.1,0-0.1,0.1-0.2,0.1
		c0,0-0.1,0.1-0.1,0.2s0,0.1,0,0.2c0,0.1,0,0.1,0.1,0.2c0,0.1,0.1,0.1,0.1,0.1c0.1,0,0.1,0.1,0.2,0.1c0.1,0,0.1,0.1,0.2,0.1
		c0.1,0,0.2,0.1,0.2,0.2c0.1,0.1,0.1,0.1,0.2,0.2c0.1,0.1,0.1,0.2,0.1,0.2c0,0.1,0.1,0.2,0.1,0.3c0,0.2,0,0.3-0.1,0.5
		c-0.1,0.2-0.2,0.3-0.3,0.4c-0.1,0.1-0.3,0.2-0.5,0.3c-0.2,0.1-0.4,0.1-0.6,0.1c-0.1,0-0.2,0-0.3,0c-0.1,0-0.2,0-0.3-0.1
		c-0.1,0-0.2-0.1-0.2-0.1c-0.1,0-0.1-0.1-0.1-0.1c0,0,0-0.1,0-0.1c0,0,0,0,0-0.1c0,0,0-0.1,0-0.1c0,0,0-0.1,0-0.1c0,0,0-0.1,0-0.1
		c0,0,0-0.1,0-0.1c0,0,0,0,0.1,0c0,0,0.1,0,0.1,0c0,0,0.1,0.1,0.2,0.1c0.1,0,0.1,0.1,0.2,0.1c0.1,0,0.2,0,0.3,0c0.1,0,0.2,0,0.3,0
		c0.1,0,0.2-0.1,0.2-0.1c0.1-0.1,0.1-0.1,0.1-0.2s0-0.1,0-0.2c0-0.1,0-0.1-0.1-0.2s-0.1-0.1-0.1-0.1s-0.1-0.1-0.2-0.1
		c-0.1,0-0.1-0.1-0.2-0.1c-0.1,0-0.1-0.1-0.2-0.2c-0.1-0.1-0.1-0.1-0.2-0.2s-0.1-0.2-0.1-0.2c0-0.1-0.1-0.2-0.1-0.3
		c0-0.2,0-0.3,0.1-0.5c0.1-0.1,0.2-0.3,0.3-0.4c0.1-0.1,0.3-0.2,0.4-0.2c0.2-0.1,0.4-0.1,0.6-0.1c0.1,0,0.2,0,0.3,0
		c0.1,0,0.2,0,0.2,0.1c0.1,0,0.1,0,0.2,0.1c0.1,0,0.1,0,0.1,0.1C39.5,37.2,39.5,37.2,39.5,37.3C39.5,37.2,39.5,37.3,39.5,37.3z"/>
	<path d="M45.1,40.6C45.1,40.6,45.1,40.7,45.1,40.6C45.1,40.7,45.1,40.7,45.1,40.6c-0.1,0.1-0.2,0.1-0.2,0.1c0,0-0.1,0-0.2,0
		c-0.1,0-0.1,0-0.2,0c0,0-0.1,0-0.1,0c0,0,0,0,0,0c0,0,0,0,0-0.1l0.6-3h0l-1.7,3c0,0-0.1,0.1-0.1,0.1c-0.1,0-0.2,0-0.3,0
		c-0.1,0-0.2,0-0.3,0c-0.1,0-0.1,0-0.1-0.1l-0.4-3h0l-0.6,3c0,0,0,0,0,0.1s0,0-0.1,0c0,0-0.1,0-0.1,0c0,0-0.1,0-0.2,0s-0.1,0-0.2,0
		c0,0-0.1,0-0.1,0s0,0,0,0c0,0,0,0,0-0.1l0.7-3.3c0,0,0-0.1,0-0.1c0,0,0-0.1,0.1-0.1c0,0,0.1,0,0.1-0.1s0.1,0,0.1,0h0.5
		c0.1,0,0.2,0,0.2,0c0.1,0,0.1,0,0.1,0.1c0,0,0.1,0.1,0.1,0.1c0,0.1,0,0.1,0,0.2l0.4,2.2h0l1.3-2.2c0-0.1,0.1-0.1,0.1-0.2
		c0-0.1,0.1-0.1,0.1-0.1c0,0,0.1-0.1,0.2-0.1c0.1,0,0.1,0,0.2,0h0.5c0,0,0.1,0,0.1,0c0,0,0.1,0,0.1,0.1c0,0,0,0.1,0,0.1
		c0,0,0,0.1,0,0.1L45.1,40.6z"/>
	<path d="M49,37.4c0,0.1,0,0.1,0,0.2c0,0.1,0,0.2-0.1,0.2c0,0.1-0.1,0.1-0.1,0.1c0,0-0.1,0-0.1,0c0,0-0.1-0.1-0.1-0.1
		c-0.1,0-0.1-0.1-0.2-0.1c-0.1,0-0.2,0-0.3,0c-0.1,0-0.3,0-0.4,0.1c-0.1,0.1-0.2,0.1-0.3,0.2c-0.1,0.1-0.2,0.2-0.2,0.3
		s-0.1,0.2-0.2,0.4s-0.1,0.3-0.1,0.4c0,0.1,0,0.3,0,0.4c0,0.1,0,0.3,0,0.4c0,0.1,0.1,0.2,0.1,0.3c0.1,0.1,0.1,0.1,0.2,0.2
		c0.1,0,0.2,0.1,0.3,0.1c0.1,0,0.3,0,0.3,0c0.1,0,0.2-0.1,0.2-0.1c0.1,0,0.1-0.1,0.2-0.1c0,0,0.1,0,0.1,0c0,0,0,0,0.1,0
		c0,0,0,0,0,0.1c0,0,0,0,0,0.1c0,0,0,0.1,0,0.1c0,0,0,0.1,0,0.1c0,0,0,0.1,0,0.1c0,0,0,0.1,0,0.1c0,0,0,0.1-0.1,0.1
		c0,0-0.1,0-0.1,0.1c-0.1,0-0.1,0.1-0.2,0.1c-0.1,0-0.2,0.1-0.3,0.1s-0.2,0-0.4,0c-0.2,0-0.4,0-0.6-0.1c-0.2-0.1-0.3-0.1-0.4-0.3
		c-0.1-0.1-0.2-0.3-0.3-0.4c-0.1-0.2-0.1-0.4-0.1-0.6c0-0.2,0-0.4,0.1-0.6c0-0.2,0.1-0.4,0.2-0.6s0.2-0.4,0.3-0.5
		c0.1-0.2,0.2-0.3,0.4-0.4c0.2-0.1,0.3-0.2,0.5-0.3c0.2-0.1,0.4-0.1,0.7-0.1c0.1,0,0.3,0,0.4,0c0.1,0,0.2,0.1,0.3,0.1
		c0.1,0,0.2,0.1,0.2,0.1C48.9,37.3,49,37.3,49,37.4z"/>
	<path d="M52.6,37.3C52.6,37.3,52.6,37.3,52.6,37.3c0,0.1,0,0.1,0,0.2c0,0,0,0.1,0,0.1c0,0,0,0.1,0,0.1c0,0,0,0.1,0,0.1c0,0,0,0,0,0
		c0,0-0.1,0-0.1,0c0,0-0.1,0-0.1-0.1c-0.1,0-0.1-0.1-0.2-0.1c-0.1,0-0.2,0-0.3,0c-0.1,0-0.2,0-0.3,0c-0.1,0-0.1,0.1-0.2,0.1
		c0,0-0.1,0.1-0.1,0.2c0,0.1,0,0.1,0,0.2c0,0.1,0,0.1,0.1,0.2c0,0.1,0.1,0.1,0.1,0.1c0.1,0,0.1,0.1,0.2,0.1c0.1,0,0.1,0.1,0.2,0.1
		s0.2,0.1,0.2,0.2s0.1,0.1,0.2,0.2c0.1,0.1,0.1,0.2,0.1,0.2c0,0.1,0.1,0.2,0.1,0.3c0,0.2,0,0.3-0.1,0.5c-0.1,0.2-0.2,0.3-0.3,0.4
		c-0.1,0.1-0.3,0.2-0.5,0.3c-0.2,0.1-0.4,0.1-0.6,0.1c-0.1,0-0.2,0-0.3,0s-0.2,0-0.3-0.1c-0.1,0-0.2-0.1-0.2-0.1
		c-0.1,0-0.1-0.1-0.1-0.1c0,0,0-0.1,0-0.1c0,0,0,0,0-0.1c0,0,0-0.1,0-0.1s0-0.1,0-0.1c0,0,0-0.1,0-0.1c0,0,0-0.1,0-0.1
		c0,0,0,0,0.1,0c0,0,0.1,0,0.1,0c0,0,0.1,0.1,0.2,0.1c0.1,0,0.1,0.1,0.2,0.1c0.1,0,0.2,0,0.3,0c0.1,0,0.2,0,0.3,0
		c0.1,0,0.2-0.1,0.2-0.1c0.1-0.1,0.1-0.1,0.1-0.2c0-0.1,0-0.1,0-0.2c0-0.1,0-0.1-0.1-0.2c0-0.1-0.1-0.1-0.1-0.1s-0.1-0.1-0.2-0.1
		c-0.1,0-0.1-0.1-0.2-0.1c-0.1,0-0.1-0.1-0.2-0.2c-0.1-0.1-0.1-0.1-0.2-0.2s-0.1-0.2-0.1-0.2c0-0.1-0.1-0.2-0.1-0.3
		c0-0.2,0-0.3,0.1-0.5c0.1-0.1,0.2-0.3,0.3-0.4c0.1-0.1,0.3-0.2,0.4-0.2c0.2-0.1,0.4-0.1,0.6-0.1c0.1,0,0.2,0,0.3,0
		c0.1,0,0.2,0,0.2,0.1c0.1,0,0.1,0,0.2,0.1c0,0,0.1,0,0.1,0.1C52.5,37.2,52.5,37.2,52.6,37.3C52.6,37.2,52.6,37.3,52.6,37.3z"/>
	<path d="M55.5,37.1C55.5,37.1,55.5,37.1,55.5,37.1c0,0.1,0,0.1,0,0.2c0,0,0,0.1,0,0.1s0,0.1,0,0.1c0,0,0,0.1-0.1,0.1s0,0-0.1,0
		h-1.3l-0.2,0.9h1.1c0,0,0,0,0.1,0s0,0,0,0.1c0,0,0,0,0,0.1c0,0,0,0.1,0,0.1c0,0,0,0.1,0,0.1c0,0,0,0.1,0,0.1c0,0,0,0.1,0,0.1
		c0,0,0,0-0.1,0h-1.1l-0.2,1.1h1.3c0,0,0,0,0.1,0c0,0,0,0,0,0.1c0,0,0,0,0,0.1c0,0,0,0.1,0,0.1c0,0,0,0.1,0,0.1c0,0,0,0.1,0,0.1
		c0,0,0,0.1-0.1,0.1c0,0,0,0-0.1,0h-1.9c0,0-0.1,0-0.1,0c0,0,0,0-0.1,0c0,0,0,0,0-0.1c0,0,0-0.1,0-0.1l0.7-3.3
		c0-0.1,0.1-0.1,0.1-0.2c0.1,0,0.1-0.1,0.2-0.1h1.9C55.4,37,55.5,37,55.5,37.1z"/>
	<path d="M58.5,37.8c0,0.1,0,0.2-0.1,0.4c0,0.1-0.1,0.2-0.2,0.3c-0.1,0.1-0.2,0.2-0.3,0.3c-0.1,0.1-0.3,0.2-0.4,0.2
		c0.1,0,0.2,0.1,0.2,0.2s0.1,0.3,0.2,0.4l0.2,0.8c0,0,0,0.1,0,0.1c0,0,0,0.1,0,0.1c0,0,0,0,0,0c0,0,0,0-0.1,0c0,0-0.1,0-0.1,0
		c-0.1,0-0.1,0-0.2,0c-0.1,0-0.1,0-0.2,0s-0.1,0-0.1,0c0,0,0,0-0.1,0s0,0,0-0.1l-0.1-0.8c0-0.1,0-0.2-0.1-0.3c0-0.1-0.1-0.1-0.1-0.2
		c0,0-0.1-0.1-0.1-0.1s-0.1,0-0.2,0h-0.2l-0.3,1.4c0,0,0,0,0,0.1c0,0,0,0-0.1,0c0,0-0.1,0-0.1,0s-0.1,0-0.2,0s-0.1,0-0.2,0
		c0,0-0.1,0-0.1,0c0,0,0,0-0.1,0c0,0,0,0,0-0.1l0.7-3.4c0-0.1,0-0.1,0.1-0.2c0.1,0,0.1-0.1,0.2-0.1h1c0.2,0,0.3,0,0.5,0
		c0.1,0,0.3,0.1,0.4,0.2c0.1,0.1,0.2,0.2,0.2,0.3S58.5,37.7,58.5,37.8z M57.6,38c0-0.1,0-0.1,0-0.2s0-0.1-0.1-0.1
		c0,0-0.1-0.1-0.2-0.1s-0.1,0-0.2,0h-0.4l-0.2,1.1h0.4c0.1,0,0.3,0,0.4-0.1c0.1,0,0.2-0.1,0.2-0.2s0.1-0.1,0.1-0.2
		C57.6,38.1,57.6,38,57.6,38z"/>
	<path d="M60.3,40.6C60.3,40.6,60.3,40.7,60.3,40.6c-0.1,0.1-0.1,0.1-0.1,0.1c0,0-0.1,0-0.1,0s-0.1,0-0.2,0c-0.1,0-0.2,0-0.3,0
		s-0.1,0-0.2,0c0,0-0.1,0-0.1,0s0,0,0-0.1l-0.5-3.4c0-0.1,0-0.1,0-0.1c0,0,0-0.1,0-0.1c0,0,0.1,0,0.1,0c0.1,0,0.1,0,0.2,0
		c0.1,0,0.2,0,0.2,0c0.1,0,0.1,0,0.1,0c0,0,0,0,0.1,0c0,0,0,0,0,0.1l0.3,2.9h0l1.5-2.9c0,0,0,0,0-0.1s0,0,0.1,0c0,0,0.1,0,0.1,0
		c0.1,0,0.1,0,0.2,0c0.1,0,0.2,0,0.2,0c0.1,0,0.1,0,0.1,0c0,0,0,0.1,0,0.1c0,0,0,0.1-0.1,0.2L60.3,40.6z"/>
	<path d="M62.6,40.6C62.6,40.6,62.5,40.7,62.6,40.6C62.5,40.7,62.5,40.7,62.6,40.6c-0.1,0.1-0.2,0.1-0.2,0.1s-0.1,0-0.2,0
		c-0.1,0-0.1,0-0.2,0c0,0-0.1,0-0.1,0c0,0,0,0-0.1,0c0,0,0,0,0-0.1l0.7-3.5c0,0,0,0,0-0.1c0,0,0,0,0.1,0c0,0,0.1,0,0.1,0
		s0.1,0,0.2,0c0.1,0,0.1,0,0.2,0s0.1,0,0.1,0c0,0,0,0,0.1,0c0,0,0,0,0,0.1L62.6,40.6z"/>
	<path d="M66.4,37.4c0,0.1,0,0.1,0,0.2c0,0.1,0,0.2-0.1,0.2c0,0.1-0.1,0.1-0.1,0.1c0,0-0.1,0-0.1,0c0,0-0.1-0.1-0.1-0.1
		c-0.1,0-0.1-0.1-0.2-0.1c-0.1,0-0.2,0-0.3,0c-0.1,0-0.3,0-0.4,0.1s-0.2,0.1-0.3,0.2c-0.1,0.1-0.2,0.2-0.2,0.3s-0.1,0.2-0.2,0.4
		c0,0.1-0.1,0.3-0.1,0.4c0,0.1,0,0.3,0,0.4c0,0.1,0,0.3,0.1,0.4c0,0.1,0.1,0.2,0.1,0.3s0.1,0.1,0.2,0.2c0.1,0,0.2,0.1,0.3,0.1
		c0.1,0,0.3,0,0.4,0c0.1,0,0.2-0.1,0.2-0.1c0.1,0,0.1-0.1,0.2-0.1c0,0,0.1,0,0.1,0c0,0,0,0,0.1,0s0,0,0,0.1c0,0,0,0,0,0.1
		c0,0,0,0.1,0,0.1c0,0,0,0.1,0,0.1c0,0,0,0.1,0,0.1c0,0,0,0.1,0,0.1c0,0,0,0.1-0.1,0.1c0,0-0.1,0-0.1,0.1c-0.1,0-0.1,0.1-0.2,0.1
		c-0.1,0-0.2,0.1-0.3,0.1c-0.1,0-0.2,0-0.4,0c-0.2,0-0.4,0-0.6-0.1s-0.3-0.1-0.4-0.3c-0.1-0.1-0.2-0.3-0.3-0.4
		c-0.1-0.2-0.1-0.4-0.1-0.6c0-0.2,0-0.4,0.1-0.6c0-0.2,0.1-0.4,0.2-0.6c0.1-0.2,0.2-0.4,0.3-0.5c0.1-0.2,0.2-0.3,0.4-0.4
		c0.2-0.1,0.3-0.2,0.5-0.3c0.2-0.1,0.4-0.1,0.7-0.1c0.1,0,0.3,0,0.4,0c0.1,0,0.2,0.1,0.3,0.1c0.1,0,0.2,0.1,0.2,0.1
		C66.4,37.3,66.4,37.3,66.4,37.4z"/>
	<path d="M69.1,37.1C69.1,37.1,69.1,37.1,69.1,37.1c0,0.1,0,0.1,0,0.2c0,0,0,0.1,0,0.1s0,0.1,0,0.1c0,0,0,0.1-0.1,0.1s0,0-0.1,0
		h-1.3l-0.2,0.9h1.1c0,0,0,0,0.1,0s0,0,0,0.1c0,0,0,0,0,0.1c0,0,0,0.1,0,0.1c0,0,0,0.1,0,0.1c0,0,0,0.1,0,0.1c0,0,0,0.1,0,0.1
		c0,0,0,0-0.1,0h-1.1L67,40.1h1.3c0,0,0,0,0.1,0c0,0,0,0,0,0.1c0,0,0,0,0,0.1c0,0,0,0.1,0,0.1c0,0,0,0.1,0,0.1c0,0,0,0.1,0,0.1
		c0,0,0,0.1-0.1,0.1c0,0,0,0-0.1,0h-1.9c0,0-0.1,0-0.1,0c0,0,0,0-0.1,0c0,0,0,0,0-0.1c0,0,0-0.1,0-0.1l0.7-3.3
		c0-0.1,0.1-0.1,0.1-0.2c0.1,0,0.1-0.1,0.2-0.1H69C69,37,69.1,37,69.1,37.1z"/>
	<path d="M73.2,40.4c0,0.1,0,0.1,0,0.2s0,0.1,0,0.1c0,0-0.1,0-0.1,0s-0.1,0-0.2,0c-0.1,0-0.1,0-0.2,0s-0.1,0-0.1,0c0,0,0,0-0.1,0
		c0,0,0,0,0-0.1l-0.1-0.8H71l-0.4,0.7c0,0,0,0,0,0.1c0,0,0,0-0.1,0c0,0-0.1,0-0.1,0c-0.1,0-0.1,0-0.2,0c-0.1,0-0.2,0-0.2,0
		s-0.1,0-0.1,0s0-0.1,0-0.1s0-0.1,0.1-0.2l1.8-3.3c0,0,0-0.1,0.1-0.1c0,0,0,0,0.1,0c0,0,0.1,0,0.1,0s0.1,0,0.2,0c0.1,0,0.2,0,0.3,0
		s0.1,0,0.2,0c0,0,0.1,0,0.1,0c0,0,0,0.1,0,0.1L73.2,40.4z M72.1,37.7L72.1,37.7l-0.8,1.6h1L72.1,37.7z"/>
	<path d="M76.6,37.8c0,0.1,0,0.2,0,0.3c0,0.1-0.1,0.2-0.1,0.3c-0.1,0.1-0.1,0.2-0.2,0.2s-0.2,0.1-0.3,0.2c0.1,0,0.2,0,0.2,0.1
		c0.1,0,0.1,0.1,0.2,0.1s0.1,0.1,0.1,0.2c0,0.1,0,0.2,0,0.3c0,0.1,0,0.2,0,0.3c0,0.1-0.1,0.2-0.1,0.3c-0.1,0.1-0.1,0.2-0.2,0.3
		c-0.1,0.1-0.2,0.2-0.3,0.2s-0.3,0.1-0.4,0.2c-0.2,0-0.3,0.1-0.6,0.1h-1c-0.1,0-0.1,0-0.2-0.1c0,0,0-0.1,0-0.2l0.7-3.3
		c0-0.1,0-0.1,0.1-0.2c0.1,0,0.1-0.1,0.2-0.1h0.9c0.2,0,0.4,0,0.5,0c0.1,0,0.3,0.1,0.4,0.1c0.1,0.1,0.2,0.1,0.2,0.2
		C76.6,37.5,76.6,37.6,76.6,37.8z M75.7,39.5c0-0.1,0-0.2-0.1-0.3c-0.1-0.1-0.2-0.1-0.4-0.1h-0.5l-0.2,1.1H75c0.1,0,0.3,0,0.3-0.1
		c0.1,0,0.2-0.1,0.2-0.1s0.1-0.1,0.1-0.2C75.7,39.6,75.7,39.6,75.7,39.5z M75.9,37.9c0-0.1,0-0.1,0-0.1c0,0,0-0.1-0.1-0.1
		c0,0-0.1-0.1-0.1-0.1c-0.1,0-0.1,0-0.2,0H75l-0.2,1h0.4c0.1,0,0.2,0,0.3-0.1c0.1,0,0.2-0.1,0.2-0.2s0.1-0.1,0.1-0.2
		C75.8,38,75.9,38,75.9,37.9z"/>
</g>
<g id="Est">
	<path d="M49.8,44.2c0,0.2,0,0.3,0,0.5c0,0.2,0,0.3-0.1,0.5c0,0.2-0.1,0.3-0.2,0.4c-0.1,0.1-0.2,0.3-0.3,0.4s-0.3,0.2-0.4,0.2
		c-0.2,0.1-0.4,0.1-0.6,0.1c-0.1,0-0.2,0-0.2,0c-0.1,0-0.2,0-0.2,0s-0.1,0-0.2-0.1s-0.1,0-0.1-0.1c0,0,0,0,0-0.1c0,0,0-0.1,0-0.2
		c0-0.1,0-0.1,0-0.2c0,0,0-0.1,0-0.1c0,0,0,0,0,0s0,0,0,0c0,0,0.1,0,0.1,0c0,0,0.1,0,0.2,0c0.1,0,0.1,0,0.2,0s0.2,0,0.3,0
		c0.2,0,0.3,0,0.4-0.1s0.2-0.1,0.3-0.2c0.1-0.1,0.1-0.2,0.2-0.3c0-0.1,0.1-0.3,0.1-0.4c-0.1,0.1-0.2,0.1-0.3,0.1s-0.3,0.1-0.4,0.1
		c-0.2,0-0.4,0-0.5-0.1s-0.3-0.1-0.3-0.2c-0.1-0.1-0.2-0.2-0.2-0.4c0-0.1-0.1-0.3-0.1-0.5c0-0.2,0-0.4,0.1-0.5
		c0.1-0.2,0.1-0.3,0.2-0.4s0.2-0.2,0.4-0.3c0.2-0.1,0.4-0.1,0.6-0.1c0.2,0,0.3,0,0.5,0.1c0.1,0,0.2,0.1,0.3,0.2
		c0.1,0.1,0.2,0.2,0.2,0.3c0.1,0.1,0.1,0.2,0.1,0.4c0,0.1,0.1,0.3,0.1,0.4C49.8,43.9,49.8,44,49.8,44.2z M49.1,44.1
		c0-0.2,0-0.4,0-0.5c0-0.1-0.1-0.2-0.1-0.3s-0.1-0.1-0.2-0.2c-0.1,0-0.2-0.1-0.2-0.1c-0.1,0-0.2,0-0.2,0c-0.1,0-0.1,0.1-0.2,0.1
		S48,43.3,48,43.4c0,0.1,0,0.2,0,0.3c0,0.1,0,0.2,0,0.3c0,0.1,0,0.1,0.1,0.2s0.1,0.1,0.2,0.1c0.1,0,0.1,0,0.2,0c0.1,0,0.2,0,0.3-0.1
		C48.9,44.2,49,44.2,49.1,44.1z"/>
	<path d="M46.9,46c0,0.1,0,0.1,0,0.1s0,0.1,0,0.1c0,0,0,0,0,0s0,0,0,0h-2.1c0,0,0,0,0,0c0,0,0,0,0,0c0,0,0-0.1,0-0.1
		c0,0,0-0.1,0-0.1c0-0.1,0-0.1,0-0.1c0,0,0-0.1,0-0.1c0,0,0,0,0-0.1c0,0,0,0,0,0h0.7v-2.4l-0.6,0.3c0,0-0.1,0-0.1,0c0,0,0,0-0.1,0
		c0,0,0,0,0-0.1s0-0.1,0-0.2c0,0,0-0.1,0-0.1c0,0,0-0.1,0-0.1c0,0,0,0,0-0.1s0,0,0.1,0l0.8-0.5c0,0,0,0,0,0s0,0,0.1,0
		c0,0,0.1,0,0.1,0c0,0,0.1,0,0.1,0c0.1,0,0.1,0,0.2,0s0.1,0,0.1,0s0,0,0,0s0,0,0,0v3.1h0.6c0,0,0,0,0,0c0,0,0,0,0,0.1
		c0,0,0,0.1,0,0.1C46.9,45.8,46.9,45.9,46.9,46z"/>
	<path d="M44.1,44.4c0,0.3,0,0.6-0.1,0.8s-0.1,0.4-0.2,0.6c-0.1,0.2-0.2,0.3-0.4,0.4c-0.2,0.1-0.4,0.1-0.6,0.1c-0.3,0-0.5,0-0.6-0.1
		c-0.2-0.1-0.3-0.2-0.4-0.4c-0.1-0.2-0.2-0.4-0.2-0.6s-0.1-0.5-0.1-0.8c0-0.3,0-0.6,0.1-0.8s0.1-0.4,0.2-0.6s0.2-0.3,0.4-0.4
		c0.2-0.1,0.4-0.1,0.6-0.1c0.3,0,0.5,0,0.6,0.1c0.2,0.1,0.3,0.2,0.4,0.4c0.1,0.2,0.2,0.4,0.2,0.6C44.1,43.8,44.1,44.1,44.1,44.4z
		 M43.4,44.4c0-0.2,0-0.3,0-0.5c0-0.1,0-0.3,0-0.4c0-0.1,0-0.2-0.1-0.3s-0.1-0.1-0.1-0.2c0,0-0.1-0.1-0.1-0.1s-0.1,0-0.2,0
		c-0.1,0-0.2,0-0.3,0.1c-0.1,0.1-0.1,0.1-0.2,0.2c0,0.1-0.1,0.2-0.1,0.4c0,0.2,0,0.4,0,0.6c0,0.3,0,0.5,0,0.7c0,0.2,0.1,0.3,0.1,0.4
		c0,0.1,0.1,0.2,0.2,0.2c0.1,0,0.2,0.1,0.3,0.1c0.1,0,0.1,0,0.2,0c0.1,0,0.1-0.1,0.2-0.1c0,0,0.1-0.1,0.1-0.2c0-0.1,0.1-0.2,0.1-0.3
		c0-0.1,0-0.2,0-0.3S43.4,44.5,43.4,44.4z"/>
	<path d="M41.2,45.9c0,0.1,0,0.1,0,0.1c0,0,0,0.1,0,0.1c0,0,0,0,0,0.1s0,0-0.1,0h-2.1c0,0-0.1,0-0.1,0s-0.1,0-0.1,0c0,0,0-0.1,0-0.1
		c0,0,0-0.1,0-0.2c0-0.1,0-0.1,0-0.2c0,0,0-0.1,0-0.1c0,0,0-0.1,0.1-0.1c0,0,0.1-0.1,0.1-0.1l0.6-0.7c0.1-0.1,0.2-0.3,0.3-0.4
		c0.1-0.1,0.1-0.2,0.2-0.3c0-0.1,0.1-0.2,0.1-0.3c0-0.1,0-0.2,0-0.2c0-0.1,0-0.1,0-0.2s0-0.1-0.1-0.1s-0.1-0.1-0.1-0.1s-0.1,0-0.2,0
		c-0.1,0-0.2,0-0.3,0c-0.1,0-0.2,0.1-0.2,0.1c-0.1,0-0.1,0.1-0.2,0.1c0,0-0.1,0-0.1,0c0,0,0,0,0,0c0,0,0,0,0-0.1c0,0,0-0.1,0-0.1
		s0-0.1,0-0.2c0,0,0-0.1,0-0.1c0,0,0-0.1,0-0.1c0,0,0,0,0-0.1c0,0,0,0,0.1-0.1c0,0,0.1-0.1,0.1-0.1c0.1,0,0.1-0.1,0.2-0.1
		c0.1,0,0.2-0.1,0.3-0.1c0.1,0,0.2,0,0.4,0c0.2,0,0.4,0,0.5,0.1c0.1,0,0.3,0.1,0.4,0.2c0.1,0.1,0.2,0.2,0.2,0.3
		c0,0.1,0.1,0.2,0.1,0.4c0,0.1,0,0.2,0,0.4c0,0.1-0.1,0.2-0.1,0.4c-0.1,0.1-0.2,0.3-0.3,0.4c-0.1,0.2-0.3,0.4-0.5,0.6l-0.4,0.4h1.5
		c0,0,0,0,0.1,0c0,0,0,0,0,0.1c0,0,0,0.1,0,0.1S41.2,45.9,41.2,45.9z"/>
	<path d="M37.3,42.8c0,0.1,0,0.1,0,0.1c0,0,0,0.1,0,0.1c0,0,0,0,0,0.1c0,0,0,0,0,0h-0.9v3c0,0,0,0,0,0.1s0,0-0.1,0s-0.1,0-0.1,0
		s-0.1,0-0.2,0s-0.1,0-0.2,0s-0.1,0-0.1,0s0,0-0.1,0c0,0,0,0,0-0.1v-3h-0.9c0,0,0,0,0,0c0,0,0,0,0-0.1c0,0,0-0.1,0-0.1
		c0,0,0-0.1,0-0.1c0-0.1,0-0.1,0-0.1c0,0,0-0.1,0-0.1c0,0,0,0,0-0.1c0,0,0,0,0,0h2.6c0,0,0,0,0,0c0,0,0,0,0,0.1c0,0,0,0.1,0,0.1
		C37.3,42.7,37.3,42.8,37.3,42.8z"/>
	<path d="M34.4,45.1c0,0.2,0,0.4-0.1,0.5c-0.1,0.1-0.2,0.3-0.3,0.4c-0.1,0.1-0.3,0.2-0.4,0.2c-0.2,0-0.3,0.1-0.5,0.1
		c-0.1,0-0.2,0-0.4,0c-0.1,0-0.2,0-0.3-0.1c-0.1,0-0.2-0.1-0.2-0.1c-0.1,0-0.1-0.1-0.1-0.1c0,0,0-0.1-0.1-0.1c0,0,0-0.1,0-0.2
		c0-0.1,0-0.1,0-0.2c0,0,0-0.1,0-0.1c0,0,0,0,0-0.1c0,0,0,0,0.1,0c0,0,0.1,0,0.1,0c0,0,0.1,0.1,0.2,0.1c0.1,0,0.2,0.1,0.3,0.1
		c0.1,0,0.2,0,0.4,0c0.1,0,0.2,0,0.2,0s0.1-0.1,0.2-0.1s0.1-0.1,0.1-0.2c0-0.1,0-0.1,0-0.2c0-0.1,0-0.2-0.1-0.2
		c0-0.1-0.1-0.1-0.2-0.2c-0.1,0-0.2-0.1-0.3-0.1c-0.1,0-0.2-0.1-0.3-0.1c-0.1,0-0.2-0.1-0.3-0.2c-0.1-0.1-0.2-0.1-0.3-0.2
		c-0.1-0.1-0.1-0.2-0.2-0.3c0-0.1-0.1-0.2-0.1-0.4c0-0.2,0-0.3,0.1-0.5s0.2-0.2,0.3-0.3c0.1-0.1,0.2-0.2,0.4-0.2
		c0.2,0,0.3-0.1,0.5-0.1c0.1,0,0.2,0,0.3,0s0.2,0,0.2,0.1s0.1,0,0.2,0.1c0.1,0,0.1,0.1,0.1,0.1c0,0,0,0,0,0s0,0,0,0.1
		c0,0,0,0.1,0,0.1c0,0,0,0.1,0,0.1c0,0.1,0,0.1,0,0.1c0,0,0,0.1,0,0.1c0,0,0,0,0,0.1c0,0,0,0-0.1,0c0,0-0.1,0-0.1,0
		c0,0-0.1-0.1-0.2-0.1c-0.1,0-0.1-0.1-0.2-0.1c-0.1,0-0.2,0-0.3,0c-0.1,0-0.2,0-0.2,0c-0.1,0-0.1,0-0.2,0.1c0,0-0.1,0.1-0.1,0.1
		c0,0,0,0.1,0,0.2c0,0.1,0,0.2,0.1,0.2c0,0.1,0.1,0.1,0.2,0.2c0.1,0,0.2,0.1,0.3,0.1c0.1,0,0.2,0.1,0.3,0.1c0.1,0,0.2,0.1,0.3,0.2
		c0.1,0.1,0.2,0.1,0.3,0.2c0.1,0.1,0.1,0.2,0.2,0.3C34.4,44.8,34.4,45,34.4,45.1z"/>
	<path d="M31.7,45.9c0,0.1,0,0.1,0,0.1s0,0.1,0,0.1s0,0,0,0.1c0,0,0,0,0,0h-1.9c-0.1,0-0.1,0-0.2-0.1c0,0-0.1-0.1-0.1-0.2v-3.3
		c0-0.1,0-0.1,0.1-0.2c0,0,0.1-0.1,0.2-0.1h1.9c0,0,0,0,0,0c0,0,0,0,0,0.1c0,0,0,0.1,0,0.1c0,0,0,0.1,0,0.1c0,0.1,0,0.1,0,0.1
		c0,0,0,0.1,0,0.1c0,0,0,0,0,0c0,0,0,0,0,0h-1.3V44h1.1c0,0,0,0,0,0c0,0,0,0,0,0s0,0.1,0,0.1c0,0,0,0.1,0,0.1c0,0.1,0,0.1,0,0.1
		c0,0,0,0.1,0,0.1c0,0,0,0,0,0c0,0,0,0,0,0h-1.1v1.1h1.3c0,0,0,0,0,0c0,0,0,0,0,0.1c0,0,0,0.1,0,0.1C31.7,45.8,31.7,45.9,31.7,45.9z
		"/>
</g>
</svg>
