<?xml version="1.0" encoding="utf-8"?>
<!-- Generator: Adobe Illustrator 24.0.1, SVG Export Plug-In . SVG Version: 6.00 Build 0)  -->
<svg version="1.1" id="Layer_1" xmlns="http://www.w3.org/2000/svg" xmlns:xlink="http://www.w3.org/1999/xlink" x="0px" y="0px"
	 viewBox="0 0 379 27" style="enable-background:new 0 0 379 27;" xml:space="preserve">
<style type="text/css">
	.st0{fill:#FFFFFF;}
	.st1{fill:#CC0000;}
	.st2{fill:#CB3233;}
	.st3{fill:#58595B;}
	.st4{fill:#333333;}
</style>
<g id="PowerTECH">
	<path class="st0" d="M7.21,19.11L5.53,27H0L3.82,9.09h5.53l-1.2,5.57h7.61c0.46,0,0.78-0.1,0.96-0.29
		c0.18-0.19,0.33-0.57,0.46-1.12l1.06-4.81c0.05-0.24,0.07-0.41,0.07-0.51c0-0.27-0.08-0.44-0.24-0.52
		c-0.16-0.08-0.41-0.13-0.75-0.13H4.19L5.21,2.5h15.44c1.24,0,2.12,0.22,2.66,0.65c0.53,0.43,0.8,1.11,0.8,2.03
		c0,0.24-0.02,0.49-0.05,0.74c-0.04,0.25-0.08,0.54-0.13,0.85l-1.71,8.07c-0.32,1.45-0.85,2.52-1.6,3.22
		c-0.75,0.7-1.92,1.05-3.5,1.05H7.21z"/>
	<path class="st0" d="M28.2,27c-0.99,0-1.7-0.17-2.14-0.52c-0.44-0.35-0.66-0.88-0.66-1.59c0-0.37,0.06-0.8,0.17-1.3l2.71-12.77
		c0.25-1.16,0.68-2.02,1.28-2.58c0.6-0.56,1.53-0.84,2.8-0.84h9.82c0.99,0,1.7,0.17,2.13,0.52s0.64,0.89,0.64,1.62
		c0,0.19-0.01,0.4-0.04,0.61c-0.03,0.21-0.06,0.43-0.1,0.67L42.1,23.58c-0.25,1.16-0.68,2.02-1.3,2.58
		C40.19,26.72,39.26,27,38.02,27H28.2z M40.06,12.35c0.02-0.1,0.03-0.18,0.04-0.26c0.01-0.08,0.01-0.14,0.01-0.2
		c0-0.44-0.34-0.67-1.02-0.67h-5.51c-0.39,0-0.67,0.08-0.83,0.23c-0.16,0.15-0.3,0.45-0.39,0.9l-2.1,9.76
		c-0.04,0.19-0.06,0.32-0.06,0.38c0,0.41,0.28,0.61,0.84,0.61h5.51c0.47,0,0.8-0.08,0.99-0.23c0.19-0.15,0.33-0.4,0.41-0.75
		L40.06,12.35z"/>
	<path class="st0" d="M62.54,27l-0.73-13.98L54.64,27h-4.95L48.93,7.4h4.54l0.32,14.36L60.93,7.4h4.43l0.61,14.33L72.7,7.4h4.34
		L67.52,27H62.54z"/>
	<path class="st0" d="M76.15,27l3.06-14.33h4.57l-0.7,3.18h7.25l-0.67,3.13h-7.25l-0.87,4.11h10.05L90.78,27H76.15z M79.5,11.22
		l0.82-3.82h14.62l-0.82,3.82H79.5z"/>
	<path class="st0" d="M107.24,27l1.34-6.4c0.02-0.1,0.03-0.18,0.04-0.25c0.01-0.07,0.01-0.13,0.01-0.19c0-0.31-0.27-0.46-0.82-0.46
		h-6.38L99.9,27h-4.43l3.06-14.33h4.43l-0.82,3.79h6.06c0.43,0,0.71-0.07,0.86-0.2c0.15-0.13,0.27-0.41,0.36-0.81l0.7-3.18
		c0.02-0.1,0.03-0.18,0.04-0.26c0.01-0.08,0.01-0.14,0.01-0.2c0-0.23-0.07-0.39-0.2-0.46c-0.14-0.08-0.37-0.12-0.7-0.12H98.82
		l0.82-3.82h12.53c1.01,0,1.74,0.18,2.18,0.54c0.45,0.36,0.67,0.9,0.67,1.64c0,0.17-0.01,0.36-0.04,0.55
		c-0.03,0.19-0.06,0.4-0.1,0.61l-0.9,4.26c-0.21,1-0.6,1.71-1.17,2.13c-0.56,0.42-1.18,0.66-1.86,0.74
		c0.62,0.04,1.15,0.18,1.57,0.42c0.43,0.24,0.64,0.67,0.64,1.29c0,0.1,0,0.2,0,0.3c0,0.11-0.02,0.22-0.06,0.33l-1.43,6.8H107.24z"/>
	<path class="st1" d="M124.58,27h-5.53l4.19-19.69h-5.97l1.02-4.81h17.51l-1.02,4.81h-6.01L124.58,27z"/>
	<path class="st1" d="M134.47,27l3.82-17.91h5.72l-0.87,3.98h9.07l-0.84,3.91h-9.07l-1.09,5.14h12.56L152.75,27H134.47z
		 M138.66,7.28l1.02-4.78h18.28l-1.02,4.78H138.66z"/>
	<path class="st1" d="M162.58,27c-1.24,0-2.12-0.22-2.66-0.65c-0.53-0.43-0.8-1.11-0.8-2.03c0-0.24,0.01-0.49,0.04-0.74
		c0.02-0.25,0.07-0.54,0.15-0.85l3.39-15.96c0.32-1.45,0.86-2.52,1.62-3.22c0.76-0.7,1.92-1.05,3.48-1.05h13.87l-1.02,4.89H169.5
		c-0.58,0-0.98,0.09-1.18,0.27c-0.21,0.18-0.37,0.55-0.49,1.1l-2.59,11.94c-0.02,0.12-0.04,0.22-0.05,0.31
		c-0.01,0.08-0.02,0.18-0.02,0.27c0,0.27,0.08,0.46,0.25,0.58c0.17,0.12,0.49,0.18,0.95,0.18h11.21L176.53,27H162.58z"/>
	<path class="st2" d="M202.69,27h-5.53l2.15-10.13h-9.65L187.5,27h-5.53l5.21-24.5h5.53l-2.08,9.77h9.65l2.08-9.77h5.53L202.69,27z"
		/>
	<path class="st3" d="M212.57,0.39c1.17,0,2.12,0.95,2.12,2.11s-0.95,2.11-2.12,2.11c-1.17,0-2.12-0.95-2.12-2.11
		S211.4,0.39,212.57,0.39 M212.57,0c-1.39,0-2.52,1.12-2.52,2.5s1.13,2.5,2.52,2.5c1.39,0,2.52-1.12,2.52-2.5S213.96,0,212.57,0
		L212.57,0z"/>
	<g>
		<path class="st3" d="M211.37,1.77h-0.59V1.56h1.43v0.21h-0.59v1.71h-0.25V1.77z"/>
		<path class="st3" d="M214.06,2.64c-0.01-0.27-0.03-0.59-0.03-0.83h-0.01c-0.07,0.22-0.15,0.46-0.24,0.73l-0.34,0.93h-0.19
			l-0.32-0.92c-0.09-0.27-0.17-0.52-0.22-0.75h-0.01c-0.01,0.24-0.02,0.56-0.04,0.85l-0.05,0.82h-0.24l0.13-1.92h0.32l0.33,0.93
			c0.08,0.24,0.14,0.45,0.2,0.65h0.01c0.05-0.19,0.12-0.4,0.21-0.65l0.34-0.93h0.32l0.12,1.92h-0.25L214.06,2.64z"/>
	</g>
</g>
<g id="ECU_Tuning_Technology">
	<path class="st4" d="M226.09,11.46v0.74h-3.7v2.1h3.45v0.74h-3.45v2.28h3.73v0.74h-4.61v-6.59H226.09z"/>
	<path class="st4" d="M232.88,12.39c-0.34-0.23-0.74-0.35-1.2-0.35c-0.4,0-0.74,0.07-1.02,0.22c-0.28,0.15-0.51,0.35-0.7,0.6
		c-0.18,0.25-0.32,0.53-0.4,0.85c-0.09,0.32-0.13,0.65-0.13,1c0,0.38,0.04,0.73,0.13,1.07c0.09,0.34,0.22,0.63,0.4,0.88
		c0.18,0.25,0.42,0.45,0.7,0.6c0.28,0.15,0.63,0.22,1.02,0.22c0.29,0,0.55-0.05,0.78-0.14c0.23-0.1,0.42-0.23,0.59-0.4
		c0.16-0.17,0.29-0.37,0.39-0.61c0.09-0.23,0.15-0.49,0.17-0.76h0.88c-0.09,0.83-0.37,1.48-0.86,1.94
		c-0.49,0.46-1.16,0.69-2.01,0.69c-0.51,0-0.96-0.09-1.35-0.26c-0.38-0.18-0.7-0.42-0.96-0.72c-0.25-0.31-0.44-0.67-0.57-1.09
		c-0.13-0.42-0.19-0.87-0.19-1.35c0-0.48,0.07-0.93,0.2-1.35c0.14-0.42,0.34-0.79,0.6-1.1c0.26-0.31,0.59-0.56,0.99-0.74
		c0.39-0.18,0.84-0.27,1.35-0.27c0.35,0,0.67,0.05,0.98,0.14c0.31,0.09,0.59,0.23,0.83,0.41c0.24,0.18,0.44,0.4,0.6,0.67
		c0.16,0.27,0.27,0.58,0.32,0.93h-0.88C233.44,12.98,233.22,12.63,232.88,12.39z"/>
	<path class="st4" d="M241.96,17.57c-0.45,0.42-1.1,0.63-1.93,0.63c-0.85,0-1.52-0.2-2-0.6c-0.48-0.4-0.72-1.04-0.72-1.93v-4.21
		h0.88v4.21c0,0.59,0.16,1.04,0.47,1.34c0.32,0.3,0.77,0.46,1.37,0.46c0.56,0,0.99-0.15,1.29-0.46c0.29-0.3,0.44-0.75,0.44-1.34
		v-4.21h0.88v4.21C242.64,16.51,242.41,17.15,241.96,17.57z"/>
	<path class="st4" d="M249.64,12.2v-0.74h5.31v0.74h-2.21v5.85h-0.88V12.2H249.64z"/>
	<path class="st4" d="M262.14,17.57c-0.45,0.42-1.1,0.63-1.93,0.63c-0.85,0-1.52-0.2-2-0.6c-0.48-0.4-0.72-1.04-0.72-1.93v-4.21
		h0.88v4.21c0,0.59,0.16,1.04,0.47,1.34c0.32,0.3,0.77,0.46,1.37,0.46c0.56,0,0.99-0.15,1.29-0.46c0.29-0.3,0.44-0.75,0.44-1.34
		v-4.21h0.88v4.21C262.82,16.51,262.6,17.15,262.14,17.57z"/>
	<path class="st4" d="M266.98,11.46l3.49,5.35h0.02v-5.35h0.84v6.59h-0.97l-3.47-5.29h-0.02v5.29h-0.84v-6.59H266.98z"/>
	<path class="st4" d="M275.48,11.46v6.59h-0.88v-6.59H275.48z"/>
	<path class="st4" d="M279.68,11.46l3.49,5.35h0.02v-5.35h0.84v6.59h-0.97l-3.47-5.29h-0.02v5.29h-0.84v-6.59H279.68z"/>
	<path class="st4" d="M291.27,17.97c-0.38,0.15-0.77,0.23-1.16,0.23c-0.5,0-0.94-0.09-1.33-0.27c-0.39-0.18-0.72-0.43-0.99-0.73
		c-0.27-0.31-0.48-0.66-0.62-1.06c-0.14-0.4-0.21-0.82-0.21-1.25c0-0.48,0.07-0.94,0.2-1.37c0.13-0.43,0.33-0.81,0.59-1.14
		c0.26-0.33,0.59-0.59,0.98-0.78c0.39-0.19,0.85-0.29,1.38-0.29c0.36,0,0.7,0.04,1.02,0.12c0.32,0.08,0.6,0.21,0.85,0.39
		c0.25,0.18,0.46,0.4,0.63,0.68c0.17,0.27,0.29,0.6,0.35,0.99h-0.88c-0.04-0.25-0.12-0.47-0.24-0.65c-0.12-0.18-0.26-0.33-0.44-0.45
		c-0.17-0.12-0.37-0.2-0.59-0.26c-0.22-0.06-0.45-0.09-0.7-0.09c-0.4,0-0.75,0.08-1.04,0.24c-0.29,0.16-0.52,0.37-0.71,0.63
		c-0.18,0.26-0.32,0.56-0.4,0.9c-0.09,0.34-0.13,0.68-0.13,1.03c0,0.34,0.05,0.68,0.15,0.99c0.1,0.32,0.24,0.6,0.44,0.84
		c0.19,0.24,0.43,0.44,0.71,0.58c0.28,0.14,0.61,0.22,0.98,0.22c0.35,0,0.65-0.06,0.92-0.17s0.49-0.26,0.67-0.46
		c0.18-0.19,0.32-0.42,0.41-0.68c0.09-0.26,0.13-0.54,0.12-0.84h-2.12v-0.74h2.91v3.47h-0.56l-0.23-0.82
		C291.98,17.57,291.65,17.82,291.27,17.97z"/>
	<path class="st4" d="M299.92,12.2v-0.74h5.31v0.74h-2.21v5.85h-0.88V12.2H299.92z"/>
	<path class="st4" d="M312.37,11.46v0.74h-3.7v2.1h3.45v0.74h-3.45v2.28h3.73v0.74h-4.61v-6.59H312.37z"/>
	<path class="st4" d="M319.16,12.39c-0.34-0.23-0.74-0.35-1.2-0.35c-0.4,0-0.74,0.07-1.02,0.22c-0.28,0.15-0.51,0.35-0.7,0.6
		s-0.32,0.53-0.4,0.85c-0.09,0.32-0.13,0.65-0.13,1c0,0.38,0.04,0.73,0.13,1.07c0.09,0.34,0.22,0.63,0.4,0.88
		c0.18,0.25,0.42,0.45,0.7,0.6c0.28,0.15,0.63,0.22,1.02,0.22c0.29,0,0.55-0.05,0.78-0.14c0.23-0.1,0.42-0.23,0.59-0.4
		s0.29-0.37,0.39-0.61c0.09-0.23,0.15-0.49,0.17-0.76h0.88c-0.09,0.83-0.37,1.48-0.86,1.94c-0.49,0.46-1.16,0.69-2.01,0.69
		c-0.51,0-0.96-0.09-1.35-0.26c-0.38-0.18-0.7-0.42-0.96-0.72c-0.25-0.31-0.44-0.67-0.57-1.09c-0.13-0.42-0.19-0.87-0.19-1.35
		c0-0.48,0.07-0.93,0.2-1.35c0.14-0.42,0.34-0.79,0.6-1.1c0.26-0.31,0.59-0.56,0.99-0.74c0.39-0.18,0.84-0.27,1.35-0.27
		c0.35,0,0.67,0.05,0.98,0.14c0.31,0.09,0.59,0.23,0.83,0.41c0.24,0.18,0.44,0.4,0.6,0.67c0.16,0.27,0.27,0.58,0.32,0.93h-0.88
		C319.71,12.98,319.49,12.63,319.16,12.39z"/>
	<path class="st4" d="M324.52,11.46v2.83h3.49v-2.83h0.88v6.59h-0.88v-3.02h-3.49v3.02h-0.88v-6.59H324.52z"/>
	<path class="st4" d="M333.09,11.46l3.49,5.35h0.02v-5.35h0.84v6.59h-0.97l-3.47-5.29h-0.02v5.29h-0.84v-6.59H333.09z"/>
	<path class="st4" d="M340.53,13.46c0.13-0.42,0.33-0.78,0.6-1.1c0.27-0.32,0.6-0.58,0.99-0.77c0.4-0.19,0.86-0.29,1.38-0.29
		c0.53,0,0.99,0.1,1.38,0.29c0.4,0.19,0.73,0.45,0.99,0.77c0.27,0.32,0.47,0.69,0.6,1.1c0.13,0.42,0.2,0.85,0.2,1.3
		c0,0.45-0.07,0.88-0.2,1.3c-0.13,0.42-0.33,0.78-0.6,1.1c-0.27,0.32-0.6,0.57-0.99,0.76c-0.4,0.19-0.86,0.28-1.38,0.28
		c-0.53,0-0.99-0.09-1.38-0.28c-0.4-0.19-0.73-0.44-0.99-0.76c-0.27-0.32-0.47-0.69-0.6-1.1c-0.13-0.42-0.2-0.85-0.2-1.3
		C340.33,14.31,340.4,13.87,340.53,13.46z M341.35,15.74c0.09,0.32,0.22,0.61,0.41,0.87c0.19,0.26,0.42,0.47,0.72,0.62
		c0.29,0.16,0.64,0.24,1.04,0.24s0.75-0.08,1.04-0.24c0.29-0.16,0.53-0.36,0.72-0.62c0.19-0.26,0.32-0.55,0.41-0.87
		c0.09-0.32,0.13-0.65,0.13-0.98c0-0.33-0.04-0.66-0.13-0.98c-0.09-0.32-0.22-0.61-0.41-0.87c-0.19-0.26-0.42-0.47-0.72-0.62
		c-0.29-0.16-0.64-0.24-1.04-0.24s-0.75,0.08-1.04,0.24c-0.29,0.16-0.53,0.36-0.72,0.62c-0.19,0.26-0.32,0.55-0.41,0.87
		c-0.09,0.32-0.13,0.65-0.13,0.98C341.22,15.09,341.26,15.42,341.35,15.74z"/>
	<path class="st4" d="M350.48,11.46v5.85h3.51v0.74h-4.39v-6.59H350.48z"/>
	<path class="st4" d="M356.2,13.46c0.13-0.42,0.33-0.78,0.6-1.1c0.27-0.32,0.6-0.58,0.99-0.77c0.4-0.19,0.86-0.29,1.38-0.29
		c0.53,0,0.99,0.1,1.38,0.29c0.4,0.19,0.73,0.45,0.99,0.77c0.27,0.32,0.47,0.69,0.6,1.1c0.13,0.42,0.2,0.85,0.2,1.3
		c0,0.45-0.07,0.88-0.2,1.3c-0.13,0.42-0.33,0.78-0.6,1.1c-0.27,0.32-0.6,0.57-0.99,0.76c-0.4,0.19-0.86,0.28-1.38,0.28
		c-0.53,0-0.99-0.09-1.38-0.28c-0.4-0.19-0.73-0.44-0.99-0.76c-0.27-0.32-0.47-0.69-0.6-1.1c-0.13-0.42-0.2-0.85-0.2-1.3
		C356,14.31,356.07,13.87,356.2,13.46z M357.01,15.74c0.09,0.32,0.22,0.61,0.41,0.87c0.19,0.26,0.42,0.47,0.72,0.62
		c0.29,0.16,0.64,0.24,1.04,0.24s0.75-0.08,1.04-0.24c0.29-0.16,0.53-0.36,0.72-0.62c0.19-0.26,0.32-0.55,0.41-0.87
		c0.09-0.32,0.13-0.65,0.13-0.98c0-0.33-0.04-0.66-0.13-0.98c-0.09-0.32-0.22-0.61-0.41-0.87c-0.19-0.26-0.42-0.47-0.72-0.62
		c-0.29-0.16-0.64-0.24-1.04-0.24s-0.75,0.08-1.04,0.24c-0.29,0.16-0.53,0.36-0.72,0.62c-0.19,0.26-0.32,0.55-0.41,0.87
		c-0.09,0.32-0.13,0.65-0.13,0.98C356.88,15.09,356.93,15.42,357.01,15.74z"/>
	<path class="st4" d="M369.25,17.97c-0.38,0.15-0.77,0.23-1.16,0.23c-0.5,0-0.94-0.09-1.33-0.27c-0.39-0.18-0.72-0.43-0.99-0.73
		c-0.27-0.31-0.48-0.66-0.62-1.06c-0.14-0.4-0.21-0.82-0.21-1.25c0-0.48,0.07-0.94,0.2-1.37c0.13-0.43,0.33-0.81,0.59-1.14
		c0.26-0.33,0.59-0.59,0.98-0.78c0.39-0.19,0.85-0.29,1.38-0.29c0.36,0,0.7,0.04,1.02,0.12c0.32,0.08,0.6,0.21,0.85,0.39
		c0.25,0.18,0.46,0.4,0.63,0.68c0.17,0.27,0.29,0.6,0.35,0.99h-0.88c-0.04-0.25-0.12-0.47-0.24-0.65c-0.12-0.18-0.26-0.33-0.44-0.45
		c-0.17-0.12-0.37-0.2-0.59-0.26c-0.22-0.06-0.45-0.09-0.7-0.09c-0.4,0-0.75,0.08-1.04,0.24c-0.29,0.16-0.52,0.37-0.71,0.63
		c-0.18,0.26-0.32,0.56-0.4,0.9c-0.09,0.34-0.13,0.68-0.13,1.03c0,0.34,0.05,0.68,0.15,0.99c0.1,0.32,0.24,0.6,0.44,0.84
		c0.19,0.24,0.43,0.44,0.71,0.58c0.28,0.14,0.61,0.22,0.98,0.22c0.35,0,0.65-0.06,0.92-0.17s0.49-0.26,0.67-0.46
		c0.18-0.19,0.32-0.42,0.41-0.68c0.09-0.26,0.13-0.54,0.12-0.84h-2.12v-0.74h2.91v3.47h-0.56l-0.23-0.82
		C369.96,17.57,369.63,17.82,369.25,17.97z"/>
	<path class="st4" d="M376.46,18.05h-0.88v-2.7l-2.56-3.9h1.05l1.99,3.14l1.94-3.14h1l-2.54,3.9V18.05z"/>
</g>
</svg>
