<?xml version="1.0" encoding="utf-8"?>
<!-- Generator: Adobe Illustrator 24.0.1, SVG Export Plug-In . SVG Version: 6.00 Build 0)  -->
<svg version="1.1" xmlns="http://www.w3.org/2000/svg" xmlns:xlink="http://www.w3.org/1999/xlink" x="0px" y="0px"
	 viewBox="0 0 635 80" style="enable-background:new 0 0 635 46.92;" xml:space="preserve">
<style type="text/css">
	.st0{fill:#333333;}
	.st1{fill:#FFFFFF;}
	.st2{fill:#CC0000;}
	.st3{fill:#333333;stroke:#000000;stroke-width:0.25;stroke-miterlimit:10;}
</style>
<g id="Layer_2">
</g>
<g id="Layer_1">
	<g id="ECU_Tuning_Technology">



	<g transform="translate(-370, 40)">	




		<g>
			<polygon class="st0" points="371.07,30.71 371.07,19.84 378.49,19.84 378.49,20.84 372.3,20.84 372.3,24.62 378.07,24.62 
				378.07,25.62 372.3,25.62 372.3,29.71 378.54,29.71 378.54,30.71 			"/>
			<path d="M378.37,19.97v0.75h-5.94h-0.25v0.25v3.53v0.25h0.25h5.52v0.75h-5.52h-0.25v0.25v3.85v0.25h0.25h5.99v0.75h-7.22V19.97
				H378.37 M378.62,19.72h-7.67v11.12h7.72v-1.25h-6.24v-3.85h5.77V24.5h-5.77v-3.53h6.19V19.72L378.62,19.72z"/>
		</g>
		<g>
			<path class="st0" d="M387.86,30.96c-0.84,0-1.58-0.15-2.21-0.43c-0.62-0.29-1.15-0.69-1.56-1.19c-0.41-0.5-0.73-1.11-0.93-1.79
				c-0.21-0.69-0.31-1.44-0.31-2.24c0-0.79,0.11-1.55,0.34-2.24c0.22-0.69,0.55-1.3,0.98-1.82c0.43-0.51,0.97-0.92,1.61-1.22
				c0.64-0.3,1.38-0.45,2.21-0.45c0.57,0,1.11,0.08,1.61,0.23c0.5,0.15,0.96,0.38,1.35,0.67c0.39,0.29,0.72,0.66,0.98,1.09
				c0.24,0.4,0.4,0.86,0.49,1.38h-1.23c-0.18-0.77-0.56-1.36-1.13-1.75c-0.58-0.41-1.29-0.61-2.09-0.61c-0.68,0-1.27,0.13-1.76,0.39
				S385.31,21.57,385,22c-0.31,0.43-0.55,0.93-0.7,1.48c-0.15,0.55-0.22,1.13-0.22,1.71c0,0.64,0.08,1.25,0.22,1.83
				c0.15,0.58,0.38,1.09,0.7,1.52c0.32,0.43,0.72,0.78,1.22,1.04c0.49,0.26,1.09,0.39,1.77,0.39c0.5,0,0.96-0.08,1.35-0.25
				c0.39-0.17,0.74-0.4,1.02-0.7c0.29-0.3,0.51-0.65,0.67-1.06c0.15-0.37,0.24-0.77,0.28-1.2h1.22c-0.16,1.3-0.63,2.33-1.39,3.05
				C390.34,30.58,389.24,30.96,387.86,30.96z"/>
			<path d="M387.98,19.7c0.55,0,1.09,0.07,1.58,0.22c0.49,0.15,0.93,0.36,1.31,0.65c0.38,0.28,0.7,0.64,0.95,1.06
				c0.21,0.35,0.36,0.74,0.45,1.19h-0.98c-0.2-0.75-0.58-1.33-1.15-1.73c-0.61-0.42-1.33-0.64-2.16-0.64c-0.7,0-1.31,0.14-1.82,0.4
				c-0.5,0.27-0.93,0.63-1.25,1.08c-0.32,0.44-0.56,0.96-0.72,1.52c-0.15,0.56-0.23,1.15-0.23,1.75c0,0.65,0.08,1.28,0.23,1.86
				c0.15,0.59,0.39,1.12,0.72,1.56c0.33,0.45,0.75,0.81,1.26,1.08c0.51,0.27,1.13,0.4,1.83,0.4c0.52,0,0.99-0.09,1.4-0.26
				c0.41-0.17,0.77-0.42,1.06-0.73c0.3-0.31,0.53-0.68,0.7-1.1c0.14-0.35,0.23-0.72,0.28-1.12h0.97c-0.17,1.2-0.62,2.16-1.34,2.84
				c-0.77,0.73-1.84,1.1-3.19,1.1c-0.82,0-1.54-0.14-2.15-0.42c-0.61-0.28-1.11-0.67-1.51-1.15c-0.4-0.49-0.71-1.08-0.91-1.75
				c-0.2-0.68-0.31-1.42-0.31-2.2c0-0.78,0.11-1.52,0.33-2.2c0.22-0.68,0.54-1.27,0.96-1.78c0.42-0.5,0.94-0.9,1.56-1.19
				C386.45,19.85,387.17,19.7,387.98,19.7 M387.98,19.45c-0.85,0-1.61,0.15-2.26,0.46c-0.66,0.31-1.21,0.72-1.65,1.25
				c-0.44,0.53-0.78,1.15-1,1.86c-0.23,0.71-0.34,1.47-0.34,2.28c0,0.81,0.11,1.57,0.32,2.27c0.21,0.71,0.53,1.32,0.96,1.84
				c0.42,0.52,0.96,0.93,1.6,1.22c0.64,0.3,1.4,0.44,2.26,0.44c1.42,0,2.54-0.39,3.36-1.17c0.82-0.78,1.3-1.87,1.45-3.27h-1.48
				c-0.03,0.46-0.12,0.88-0.28,1.28c-0.16,0.39-0.37,0.73-0.65,1.02c-0.27,0.29-0.6,0.51-0.98,0.67c-0.38,0.16-0.81,0.24-1.3,0.24
				c-0.66,0-1.23-0.12-1.71-0.37c-0.48-0.25-0.87-0.58-1.17-1c-0.31-0.42-0.53-0.91-0.68-1.48c-0.15-0.57-0.22-1.16-0.22-1.8
				c0-0.58,0.07-1.14,0.22-1.68c0.14-0.54,0.37-1.02,0.68-1.44c0.31-0.42,0.69-0.75,1.17-1c0.47-0.25,1.04-0.37,1.7-0.37
				c0.78,0,1.45,0.2,2.01,0.59c0.57,0.39,0.93,0.99,1.1,1.77h1.48c-0.08-0.59-0.26-1.11-0.53-1.56c-0.27-0.45-0.61-0.83-1.01-1.13
				c-0.4-0.3-0.87-0.53-1.38-0.69C389.11,19.53,388.57,19.45,387.98,19.45L387.98,19.45z"/>
		</g>
		<g>
			<path class="st0" d="M401.95,30.96c-1.4,0-2.5-0.33-3.27-0.99c-0.77-0.65-1.16-1.71-1.16-3.15v-6.97h1.23v6.97
				c0,1.03,0.28,1.82,0.83,2.35c0.55,0.53,1.35,0.81,2.37,0.81c0.97,0,1.73-0.27,2.25-0.81c0.51-0.54,0.77-1.33,0.77-2.35v-6.97
				h1.23v6.97c0,1.38-0.37,2.42-1.1,3.11C404.37,30.61,403.31,30.96,401.95,30.96z"/>
			<path d="M406.07,19.97v6.85c0,1.34-0.36,2.36-1.06,3.02c-0.71,0.66-1.74,1-3.07,1c-1.36,0-2.44-0.32-3.19-0.96
				c-0.74-0.63-1.12-1.65-1.12-3.05v-6.85h0.98v6.85c0,1.06,0.29,1.88,0.87,2.44c0.57,0.56,1.4,0.84,2.46,0.84
				c1.01,0,1.8-0.29,2.34-0.85c0.54-0.56,0.81-1.38,0.81-2.44v-6.85H406.07 M406.32,19.72h-1.48v7.1c0,1-0.25,1.75-0.74,2.27
				c-0.49,0.51-1.21,0.77-2.15,0.77c-1,0-1.76-0.26-2.29-0.77c-0.53-0.51-0.79-1.27-0.79-2.27v-7.1h-1.48v7.1
				c0,1.48,0.4,2.57,1.21,3.25c0.8,0.68,1.92,1.02,3.35,1.02c1.4,0,2.48-0.36,3.24-1.07c0.76-0.71,1.14-1.78,1.14-3.2V19.72
				L406.32,19.72z"/>
		</g>
		<g>
			<polygon class="st0" points="421.88,30.71 421.88,20.84 418.18,20.84 418.18,19.84 426.82,19.84 426.82,20.84 423.11,20.84 
				423.11,30.71 			"/>
			<path d="M426.69,19.97v0.75h-3.45h-0.25v0.25v9.62h-0.98v-9.62v-0.25h-0.25h-3.45v-0.75H426.69 M426.94,19.72h-8.88v1.25h3.7
				v9.87h1.48v-9.87h3.7V19.72L426.94,19.72z"/>
		</g>
		<g>
			<path class="st0" d="M435.76,30.96c-1.4,0-2.5-0.33-3.27-0.99c-0.77-0.65-1.16-1.71-1.16-3.15v-6.97h1.23v6.97
				c0,1.03,0.28,1.82,0.83,2.35c0.55,0.53,1.35,0.81,2.37,0.81c0.97,0,1.73-0.27,2.25-0.81c0.51-0.54,0.77-1.33,0.77-2.35v-6.97H440
				v6.97c0,1.38-0.37,2.42-1.1,3.11C438.18,30.61,437.12,30.96,435.76,30.96z"/>
			<path d="M439.88,19.97v6.85c0,1.34-0.36,2.36-1.06,3.02c-0.71,0.66-1.74,1-3.07,1c-1.36,0-2.44-0.32-3.19-0.96
				c-0.74-0.63-1.12-1.65-1.12-3.05v-6.85h0.98v6.85c0,1.06,0.29,1.88,0.87,2.44c0.57,0.56,1.4,0.84,2.46,0.84
				c1.01,0,1.8-0.29,2.34-0.85c0.54-0.56,0.81-1.38,0.81-2.44v-6.85H439.88 M440.13,19.72h-1.48v7.1c0,1-0.25,1.75-0.74,2.27
				c-0.49,0.51-1.21,0.77-2.15,0.77c-1,0-1.76-0.26-2.29-0.77c-0.53-0.51-0.79-1.27-0.79-2.27v-7.1h-1.48v7.1
				c0,1.48,0.4,2.57,1.21,3.25c0.8,0.68,1.92,1.02,3.35,1.02c1.4,0,2.48-0.36,3.24-1.07c0.76-0.71,1.14-1.78,1.14-3.2V19.72
				L440.13,19.72z"/>
		</g>
		<g>
			<polygon class="st0" points="452.83,30.71 447.02,21.79 446.83,21.79 446.8,21.91 446.8,30.71 445.65,30.71 445.65,19.84 
				447.03,19.84 452.88,28.86 453.07,28.86 453.1,28.73 453.1,19.84 454.25,19.84 454.25,30.71 			"/>
			<path d="M454.13,19.97v10.62h-1.23l-5.73-8.81l-0.11-0.11h-0.14h-0.25v0.25v8.67h-0.9V19.97h1.19l5.78,8.9l0.11,0.11h0.14h0.25
				v-0.25v-8.76H454.13 M454.38,19.72h-1.4v9.01h-0.03l-5.85-9.01h-1.57v11.12h1.4v-8.92h0.03l5.8,8.92h1.62V19.72L454.38,19.72z"/>
		</g>
		<g>
			<rect x="459.97" y="19.84" class="st0" width="1.23" height="10.87"/>
			<path d="M461.07,19.97v10.62h-0.98V19.97H461.07 M461.32,19.72h-1.48v11.12h1.48V19.72L461.32,19.72z"/>
		</g>
		<g>
			<polygon class="st0" points="474.1,30.71 468.29,21.79 468.1,21.79 468.07,21.91 468.07,30.71 466.92,30.71 466.92,19.84 
				468.3,19.84 474.15,28.86 474.34,28.86 474.37,28.73 474.37,19.84 475.52,19.84 475.52,30.71 			"/>
			<path d="M475.4,19.97v10.62h-1.23l-5.73-8.81l-0.11-0.11h-0.14h-0.25v0.25v8.67h-0.9V19.97h1.19l5.78,8.9l0.11,0.11h0.14h0.25
				v-0.25v-8.76H475.4 M475.65,19.72h-1.4v9.01h-0.03l-5.85-9.01h-1.57v11.12h1.4v-8.92h0.03l5.8,8.92h1.62V19.72L475.65,19.72z"/>
		</g>
		<g>
			<path class="st0" d="M485.82,30.96c-0.81,0-1.54-0.15-2.17-0.45c-0.63-0.3-1.18-0.7-1.62-1.21c-0.44-0.5-0.79-1.09-1.02-1.75
				c-0.23-0.66-0.35-1.35-0.35-2.06c0-0.79,0.11-1.56,0.33-2.28c0.22-0.71,0.55-1.35,0.97-1.88c0.43-0.53,0.97-0.96,1.61-1.28
				c0.64-0.32,1.4-0.48,2.25-0.48c0.59,0,1.15,0.07,1.67,0.21c0.52,0.14,0.98,0.35,1.39,0.64c0.41,0.29,0.75,0.66,1.02,1.11
				c0.25,0.41,0.44,0.91,0.54,1.48h-1.23c-0.08-0.4-0.21-0.75-0.4-1.04c-0.21-0.32-0.46-0.58-0.77-0.79
				c-0.3-0.2-0.65-0.36-1.03-0.46c-0.38-0.1-0.79-0.15-1.21-0.15c-0.69,0-1.3,0.14-1.8,0.42c-0.5,0.28-0.91,0.65-1.22,1.1
				c-0.31,0.45-0.55,0.97-0.69,1.55c-0.15,0.58-0.22,1.17-0.22,1.77c0,0.59,0.09,1.17,0.25,1.71s0.42,1.04,0.75,1.46
				c0.33,0.42,0.75,0.76,1.23,1.02c0.49,0.25,1.06,0.38,1.7,0.38c0.6,0,1.13-0.1,1.59-0.29c0.46-0.19,0.85-0.46,1.17-0.8
				c0.32-0.34,0.56-0.74,0.72-1.2c0.16-0.46,0.23-0.95,0.21-1.47l0-0.12h-3.54v-1h4.62v5.6h-0.71l-0.43-1.54l-0.15,0.2
				c-0.42,0.56-0.95,0.97-1.56,1.21C487.1,30.83,486.46,30.96,485.82,30.96z"/>
			<path d="M485.82,19.7c0.58,0,1.13,0.07,1.64,0.2c0.5,0.13,0.96,0.34,1.35,0.62c0.39,0.28,0.72,0.64,0.99,1.07
				c0.22,0.36,0.39,0.8,0.5,1.29h-0.97c-0.08-0.37-0.22-0.7-0.4-0.98c-0.21-0.33-0.48-0.61-0.8-0.83c-0.31-0.21-0.67-0.37-1.06-0.48
				c-0.39-0.1-0.81-0.16-1.24-0.16c-0.71,0-1.34,0.15-1.86,0.44c-0.51,0.29-0.94,0.67-1.27,1.14c-0.32,0.46-0.56,1-0.71,1.59
				c-0.15,0.58-0.23,1.19-0.23,1.8c0,0.6,0.09,1.19,0.26,1.75c0.17,0.56,0.43,1.06,0.77,1.5c0.34,0.44,0.77,0.79,1.27,1.05
				c0.51,0.26,1.1,0.39,1.76,0.39c0.61,0,1.16-0.1,1.64-0.3c0.48-0.2,0.88-0.48,1.21-0.83c0.33-0.35,0.58-0.77,0.75-1.24
				c0.17-0.47,0.24-0.98,0.22-1.52l-0.01-0.24h-0.24h-3.3v-0.75h4.37v5.35h-0.49l-0.34-1.2l-0.14-0.49l-0.3,0.41
				c-0.41,0.54-0.91,0.93-1.51,1.17c-0.61,0.24-1.23,0.36-1.85,0.36c-0.79,0-1.5-0.15-2.12-0.44c-0.62-0.29-1.15-0.69-1.58-1.18
				c-0.43-0.49-0.77-1.07-0.99-1.71c-0.23-0.64-0.34-1.32-0.34-2.02c0-0.78,0.11-1.53,0.32-2.24c0.21-0.7,0.53-1.32,0.95-1.84
				c0.42-0.52,0.94-0.94,1.57-1.25C484.24,19.86,484.98,19.7,485.82,19.7 M485.82,19.45c-0.88,0-1.65,0.16-2.31,0.49
				c-0.66,0.33-1.21,0.77-1.65,1.32c-0.44,0.55-0.77,1.19-1,1.92c-0.22,0.73-0.33,1.5-0.33,2.31c0,0.73,0.12,1.43,0.36,2.1
				c0.24,0.68,0.59,1.27,1.04,1.79c0.46,0.52,1.01,0.93,1.66,1.24c0.65,0.31,1.4,0.46,2.23,0.46c0.65,0,1.3-0.13,1.95-0.38
				c0.64-0.25,1.18-0.67,1.62-1.25l0.39,1.39h0.93v-5.85h-4.87v1.25h3.55c0.02,0.51-0.05,0.98-0.2,1.42
				c-0.16,0.44-0.39,0.83-0.69,1.15c-0.31,0.33-0.68,0.58-1.13,0.77c-0.45,0.19-0.96,0.28-1.54,0.28c-0.62,0-1.17-0.12-1.64-0.37
				c-0.47-0.24-0.87-0.57-1.19-0.98c-0.32-0.41-0.57-0.88-0.73-1.42c-0.17-0.53-0.25-1.09-0.25-1.67c0-0.59,0.07-1.17,0.22-1.74
				c0.14-0.57,0.37-1.07,0.68-1.51c0.31-0.44,0.7-0.8,1.18-1.07c0.48-0.27,1.06-0.4,1.73-0.4c0.42,0,0.81,0.05,1.17,0.15
				c0.37,0.1,0.7,0.25,0.99,0.44c0.29,0.2,0.53,0.45,0.73,0.75c0.2,0.31,0.33,0.67,0.4,1.1h1.48c-0.1-0.65-0.3-1.21-0.58-1.67
				c-0.29-0.46-0.64-0.84-1.06-1.14c-0.42-0.3-0.9-0.52-1.43-0.66S486.42,19.45,485.82,19.45L485.82,19.45z"/>
		</g>
		<g>
			<polygon class="st0" points="506.08,30.71 506.08,20.84 502.38,20.84 502.38,19.84 511.01,19.84 511.01,20.84 507.31,20.84 
				507.31,30.71 			"/>
			<path d="M510.89,19.97v0.75h-3.45h-0.25v0.25v9.62h-0.98v-9.62v-0.25h-0.25h-3.45v-0.75H510.89 M511.14,19.72h-8.88v1.25h3.7
				v9.87h1.48v-9.87h3.7V19.72L511.14,19.72z"/>
		</g>
		<g>
			<polygon class="st0" points="515.55,30.71 515.55,19.84 522.97,19.84 522.97,20.84 516.78,20.84 516.78,24.62 522.55,24.62 
				522.55,25.62 516.78,25.62 516.78,29.71 523.02,29.71 523.02,30.71 			"/>
			<path d="M522.85,19.97v0.75h-5.94h-0.25v0.25v3.53v0.25h0.25h5.52v0.75h-5.52h-0.25v0.25v3.85v0.25h0.25h5.99v0.75h-7.22V19.97
				H522.85 M523.1,19.72h-7.67v11.12h7.72v-1.25h-6.24v-3.85h5.77V24.5h-5.77v-3.53h6.19V19.72L523.1,19.72z"/>
		</g>
		<g>
			<path class="st0" d="M532.34,30.96c-0.84,0-1.58-0.15-2.2-0.43c-0.62-0.29-1.15-0.69-1.56-1.19c-0.41-0.5-0.73-1.11-0.93-1.79
				c-0.21-0.69-0.31-1.44-0.31-2.24c0-0.79,0.11-1.55,0.34-2.24c0.22-0.69,0.55-1.3,0.98-1.82c0.43-0.51,0.97-0.92,1.61-1.22
				c0.64-0.3,1.38-0.45,2.21-0.45c0.57,0,1.11,0.08,1.61,0.23c0.5,0.15,0.96,0.38,1.35,0.67c0.39,0.29,0.72,0.66,0.98,1.09
				c0.24,0.4,0.4,0.86,0.49,1.38h-1.23c-0.18-0.77-0.56-1.36-1.13-1.75c-0.58-0.41-1.29-0.61-2.09-0.61c-0.68,0-1.27,0.13-1.76,0.39
				s-0.89,0.61-1.21,1.04c-0.31,0.43-0.55,0.93-0.7,1.48c-0.15,0.55-0.22,1.12-0.22,1.71c0,0.64,0.07,1.26,0.22,1.83
				c0.15,0.58,0.38,1.09,0.7,1.52c0.32,0.43,0.73,0.79,1.22,1.04c0.49,0.26,1.09,0.39,1.77,0.39c0.5,0,0.96-0.08,1.35-0.25
				c0.39-0.17,0.74-0.4,1.02-0.7c0.29-0.3,0.51-0.65,0.67-1.06c0.15-0.37,0.24-0.77,0.28-1.2h1.22c-0.16,1.3-0.63,2.33-1.39,3.05
				C534.82,30.58,533.72,30.96,532.34,30.96z"/>
			<path d="M532.46,19.7c0.55,0,1.09,0.07,1.58,0.22c0.49,0.15,0.93,0.36,1.31,0.65c0.38,0.28,0.7,0.64,0.95,1.06
				c0.21,0.35,0.36,0.74,0.45,1.19h-0.98c-0.2-0.75-0.58-1.33-1.15-1.73c-0.61-0.42-1.33-0.64-2.16-0.64c-0.7,0-1.31,0.14-1.82,0.4
				c-0.5,0.27-0.93,0.63-1.25,1.08c-0.32,0.44-0.56,0.96-0.72,1.52c-0.15,0.56-0.23,1.15-0.23,1.75c0,0.65,0.08,1.28,0.23,1.86
				c0.15,0.59,0.39,1.12,0.72,1.56c0.33,0.45,0.75,0.81,1.26,1.08c0.51,0.27,1.13,0.4,1.83,0.4c0.52,0,0.99-0.09,1.4-0.26
				c0.41-0.17,0.77-0.42,1.06-0.73c0.3-0.31,0.53-0.68,0.7-1.1c0.14-0.35,0.23-0.72,0.28-1.12h0.97c-0.17,1.2-0.62,2.16-1.34,2.84
				c-0.77,0.73-1.84,1.1-3.19,1.1c-0.82,0-1.54-0.14-2.15-0.42c-0.61-0.28-1.11-0.67-1.51-1.15c-0.4-0.49-0.71-1.08-0.91-1.75
				c-0.2-0.68-0.31-1.42-0.31-2.2c0-0.78,0.11-1.52,0.33-2.2c0.22-0.68,0.54-1.27,0.96-1.78c0.42-0.5,0.94-0.9,1.56-1.19
				C530.93,19.85,531.65,19.7,532.46,19.7 M532.46,19.45c-0.85,0-1.61,0.15-2.26,0.46c-0.66,0.31-1.21,0.72-1.65,1.25
				c-0.44,0.53-0.78,1.15-1,1.86c-0.23,0.71-0.34,1.47-0.34,2.28c0,0.81,0.11,1.57,0.32,2.27c0.21,0.71,0.53,1.32,0.96,1.84
				c0.42,0.52,0.96,0.93,1.6,1.22c0.64,0.3,1.4,0.44,2.26,0.44c1.42,0,2.54-0.39,3.36-1.17c0.82-0.78,1.3-1.87,1.45-3.27h-1.48
				c-0.03,0.46-0.12,0.88-0.28,1.28c-0.16,0.39-0.37,0.73-0.65,1.02c-0.27,0.29-0.6,0.51-0.98,0.67c-0.38,0.16-0.81,0.24-1.3,0.24
				c-0.66,0-1.23-0.12-1.71-0.37c-0.48-0.25-0.87-0.58-1.17-1c-0.31-0.42-0.53-0.91-0.68-1.48c-0.15-0.57-0.22-1.16-0.22-1.8
				c0-0.58,0.07-1.14,0.22-1.68c0.14-0.54,0.37-1.02,0.68-1.44c0.31-0.42,0.69-0.75,1.17-1c0.47-0.25,1.04-0.37,1.7-0.37
				c0.78,0,1.45,0.2,2.01,0.59c0.57,0.39,0.93,0.99,1.1,1.77h1.48c-0.08-0.59-0.26-1.11-0.53-1.56c-0.27-0.45-0.61-0.83-1.01-1.13
				c-0.4-0.3-0.87-0.53-1.38-0.69C533.59,19.53,533.05,19.45,532.46,19.45L532.46,19.45z"/>
		</g>
		<g>
			<polygon class="st0" points="549.42,30.71 549.42,25.62 543.32,25.62 543.32,30.71 542.1,30.71 542.1,19.84 543.32,19.84 
				543.32,24.62 549.42,24.62 549.42,19.84 550.65,19.84 550.65,30.71 			"/>
			<path d="M550.53,19.97v10.62h-0.98v-4.84v-0.25h-0.25h-5.85h-0.25v0.25v4.84h-0.98V19.97h0.98v4.53v0.25h0.25h5.85h0.25V24.5
				v-4.53H550.53 M550.78,19.72h-1.48v4.78h-5.85v-4.78h-1.48v11.12h1.48v-5.09h5.85v5.09h1.48V19.72L550.78,19.72z"/>
		</g>
		<g>
			<polygon class="st0" points="563.53,30.71 557.73,21.79 557.54,21.79 557.51,21.91 557.51,30.71 556.36,30.71 556.36,19.84 
				557.74,19.84 563.58,28.86 563.78,28.86 563.81,28.73 563.81,19.84 564.96,19.84 564.96,30.71 			"/>
			<path d="M564.84,19.97v10.62h-1.23l-5.73-8.81l-0.11-0.11h-0.14h-0.25v0.25v8.67h-0.9V19.97h1.19l5.78,8.9l0.11,0.11h0.14h0.25
				v-0.25v-8.76H564.84 M565.09,19.72h-1.4v9.01h-0.03l-5.85-9.01h-1.57v11.12h1.4v-8.92h0.03l5.8,8.92h1.62V19.72L565.09,19.72z"/>
		</g>
		<g>
			<path class="st0" d="M575.25,30.96c-0.86,0-1.62-0.16-2.26-0.46c-0.64-0.31-1.19-0.73-1.62-1.25c-0.43-0.52-0.76-1.14-0.98-1.82
				c-0.22-0.68-0.33-1.41-0.33-2.15c0-0.74,0.11-1.47,0.33-2.15c0.22-0.68,0.55-1.29,0.98-1.82c0.43-0.52,0.98-0.95,1.62-1.26
				c0.64-0.31,1.41-0.47,2.26-0.47c0.86,0,1.62,0.16,2.26,0.47c0.65,0.31,1.19,0.74,1.62,1.26c0.43,0.52,0.76,1.14,0.98,1.82
				c0.22,0.68,0.33,1.41,0.33,2.15c0,0.74-0.11,1.46-0.33,2.15c-0.22,0.68-0.55,1.3-0.98,1.82c-0.43,0.52-0.98,0.94-1.62,1.25
				C576.87,30.8,576.11,30.96,575.25,30.96z M575.25,20.57c-0.69,0-1.3,0.14-1.8,0.41c-0.5,0.27-0.92,0.64-1.24,1.09
				c-0.32,0.45-0.55,0.95-0.7,1.51c-0.15,0.55-0.22,1.12-0.22,1.69c0,0.57,0.07,1.14,0.22,1.69c0.15,0.56,0.39,1.07,0.7,1.51
				c0.32,0.45,0.74,0.82,1.24,1.09c0.5,0.27,1.11,0.41,1.8,0.41c0.69,0,1.3-0.14,1.8-0.41c0.5-0.27,0.92-0.64,1.24-1.09
				c0.32-0.45,0.55-0.95,0.7-1.51c0.15-0.56,0.22-1.12,0.22-1.69c0-0.57-0.07-1.13-0.22-1.69c-0.15-0.56-0.39-1.06-0.7-1.51
				c-0.32-0.45-0.74-0.82-1.24-1.09C576.55,20.71,575.94,20.57,575.25,20.57z"/>
			<path d="M575.25,19.7c0.84,0,1.58,0.15,2.21,0.46c0.63,0.3,1.16,0.72,1.58,1.23c0.42,0.51,0.75,1.11,0.96,1.78
				c0.21,0.67,0.32,1.38,0.32,2.11c0,0.73-0.11,1.44-0.32,2.11c-0.21,0.67-0.53,1.26-0.96,1.78c-0.42,0.51-0.95,0.92-1.58,1.22
				c-0.63,0.3-1.37,0.45-2.21,0.45c-0.84,0-1.58-0.15-2.21-0.45c-0.63-0.3-1.16-0.71-1.58-1.22c-0.42-0.51-0.75-1.11-0.96-1.78
				c-0.21-0.67-0.32-1.38-0.32-2.11c0-0.73,0.11-1.44,0.32-2.11c0.21-0.67,0.53-1.26,0.96-1.78c0.42-0.51,0.95-0.92,1.58-1.23
				C573.67,19.86,574.41,19.7,575.25,19.7 M575.25,30.1c0.71,0,1.34-0.14,1.86-0.43c0.52-0.28,0.95-0.66,1.28-1.13
				c0.33-0.46,0.57-0.98,0.72-1.55c0.15-0.57,0.23-1.14,0.23-1.72c0-0.58-0.08-1.16-0.23-1.72c-0.15-0.57-0.4-1.09-0.72-1.55
				c-0.33-0.46-0.76-0.84-1.28-1.12c-0.52-0.28-1.15-0.43-1.86-0.43c-0.71,0-1.34,0.14-1.86,0.43c-0.52,0.28-0.95,0.66-1.28,1.12
				c-0.33,0.46-0.57,0.98-0.72,1.55c-0.15,0.56-0.23,1.14-0.23,1.72c0,0.58,0.08,1.16,0.23,1.72c0.15,0.57,0.4,1.09,0.72,1.55
				c0.33,0.47,0.76,0.84,1.28,1.13C573.91,29.96,574.54,30.1,575.25,30.1 M575.25,19.45c-0.88,0-1.65,0.16-2.32,0.48
				c-0.66,0.32-1.22,0.75-1.66,1.29c-0.45,0.54-0.78,1.16-1,1.86c-0.22,0.7-0.33,1.43-0.33,2.19c0,0.76,0.11,1.49,0.33,2.19
				c0.22,0.7,0.56,1.32,1,1.86s1,0.97,1.66,1.28c0.66,0.32,1.44,0.47,2.32,0.47c0.88,0,1.65-0.16,2.32-0.47s1.22-0.74,1.66-1.28
				c0.45-0.54,0.78-1.16,1-1.86c0.22-0.7,0.33-1.43,0.33-2.19c0-0.76-0.11-1.49-0.33-2.19c-0.22-0.7-0.56-1.32-1-1.86
				c-0.45-0.54-1-0.97-1.66-1.29C576.91,19.61,576.13,19.45,575.25,19.45L575.25,19.45z M575.25,29.85c-0.67,0-1.26-0.13-1.74-0.4
				c-0.49-0.26-0.89-0.61-1.2-1.05c-0.31-0.44-0.54-0.93-0.68-1.47c-0.15-0.54-0.22-1.1-0.22-1.66c0-0.56,0.07-1.11,0.22-1.66
				c0.15-0.54,0.37-1.04,0.68-1.47c0.31-0.44,0.71-0.79,1.2-1.05c0.49-0.26,1.07-0.4,1.74-0.4c0.67,0,1.26,0.13,1.74,0.4
				c0.49,0.26,0.89,0.61,1.2,1.05c0.31,0.44,0.54,0.93,0.68,1.47c0.14,0.54,0.22,1.1,0.22,1.66c0,0.56-0.07,1.11-0.22,1.66
				c-0.15,0.54-0.37,1.04-0.68,1.47c-0.31,0.44-0.71,0.79-1.2,1.05C576.51,29.72,575.93,29.85,575.25,29.85L575.25,29.85z"/>
		</g>
		<g>
			<polygon class="st0" points="585.57,30.71 585.57,19.84 586.8,19.84 586.8,29.71 592.68,29.71 592.68,30.71 			"/>
			<path d="M586.67,19.97v9.62v0.25h0.25h5.63v0.75h-6.86V19.97H586.67 M586.92,19.72h-1.48v11.12h7.36v-1.25h-5.88V19.72
				L586.92,19.72z"/>
		</g>
		<g>
			<path class="st0" d="M601.49,30.96c-0.86,0-1.62-0.16-2.27-0.46c-0.65-0.31-1.19-0.73-1.62-1.25c-0.43-0.52-0.76-1.14-0.98-1.82
				c-0.22-0.69-0.33-1.41-0.33-2.15s0.11-1.46,0.33-2.15c0.22-0.68,0.55-1.29,0.98-1.82c0.43-0.52,0.98-0.95,1.62-1.26
				c0.64-0.31,1.41-0.47,2.26-0.47c0.86,0,1.62,0.16,2.26,0.47c0.65,0.31,1.19,0.74,1.62,1.26c0.43,0.53,0.76,1.14,0.98,1.82
				c0.22,0.69,0.33,1.41,0.33,2.15s-0.11,1.46-0.33,2.15c-0.22,0.68-0.55,1.29-0.98,1.82c-0.43,0.52-0.98,0.94-1.62,1.25
				C603.11,30.8,602.34,30.96,601.49,30.96z M601.49,20.57c-0.69,0-1.3,0.14-1.8,0.41c-0.5,0.27-0.92,0.64-1.24,1.09
				c-0.32,0.45-0.55,0.95-0.7,1.51c-0.15,0.55-0.22,1.12-0.22,1.69c0,0.57,0.07,1.14,0.22,1.69c0.15,0.56,0.39,1.07,0.7,1.51
				c0.32,0.45,0.74,0.82,1.24,1.09c0.5,0.27,1.11,0.41,1.8,0.41c0.69,0,1.3-0.14,1.8-0.41c0.5-0.27,0.92-0.64,1.24-1.09
				c0.32-0.44,0.55-0.95,0.7-1.51c0.15-0.55,0.22-1.12,0.22-1.69c0-0.57-0.07-1.14-0.22-1.69c-0.15-0.56-0.39-1.07-0.7-1.51
				c-0.32-0.45-0.74-0.82-1.24-1.09C602.78,20.71,602.18,20.57,601.49,20.57z"/>
			<path d="M601.49,19.7c0.84,0,1.58,0.15,2.21,0.46c0.63,0.3,1.16,0.72,1.58,1.23c0.42,0.51,0.75,1.11,0.96,1.78
				c0.21,0.67,0.32,1.38,0.32,2.11c0,0.73-0.11,1.44-0.32,2.11c-0.21,0.67-0.53,1.26-0.96,1.78c-0.42,0.51-0.95,0.92-1.58,1.22
				c-0.63,0.3-1.37,0.45-2.21,0.45c-0.84,0-1.58-0.15-2.21-0.45c-0.63-0.3-1.16-0.71-1.58-1.22c-0.42-0.51-0.75-1.11-0.96-1.78
				c-0.21-0.67-0.32-1.38-0.32-2.11c0-0.73,0.11-1.44,0.32-2.11c0.21-0.67,0.53-1.26,0.96-1.78c0.42-0.51,0.95-0.92,1.58-1.23
				C599.9,19.86,600.65,19.7,601.49,19.7 M601.49,30.1c0.71,0,1.34-0.14,1.86-0.43c0.52-0.28,0.95-0.66,1.28-1.13
				c0.33-0.46,0.57-0.98,0.72-1.55c0.15-0.57,0.23-1.14,0.23-1.72c0-0.58-0.08-1.16-0.23-1.72c-0.15-0.57-0.4-1.09-0.72-1.55
				c-0.33-0.46-0.76-0.84-1.28-1.12c-0.52-0.28-1.15-0.43-1.86-0.43c-0.71,0-1.34,0.14-1.86,0.43c-0.52,0.28-0.95,0.66-1.28,1.12
				c-0.33,0.46-0.57,0.98-0.72,1.55c-0.15,0.56-0.23,1.14-0.23,1.72c0,0.58,0.08,1.16,0.23,1.72c0.15,0.57,0.4,1.09,0.72,1.55
				c0.33,0.47,0.76,0.84,1.28,1.13C600.15,29.96,600.77,30.1,601.49,30.1 M601.49,19.45c-0.88,0-1.65,0.16-2.32,0.48
				c-0.66,0.32-1.22,0.75-1.66,1.29c-0.45,0.54-0.78,1.16-1,1.86c-0.22,0.7-0.33,1.43-0.33,2.19c0,0.76,0.11,1.49,0.33,2.19
				c0.22,0.7,0.56,1.32,1,1.86c0.45,0.54,1,0.97,1.66,1.28s1.44,0.47,2.32,0.47c0.88,0,1.65-0.16,2.32-0.47
				c0.66-0.32,1.22-0.74,1.66-1.28s0.78-1.16,1-1.86c0.22-0.7,0.33-1.43,0.33-2.19c0-0.76-0.11-1.49-0.33-2.19
				c-0.22-0.7-0.56-1.32-1-1.86c-0.45-0.54-1-0.97-1.66-1.29C603.14,19.61,602.37,19.45,601.49,19.45L601.49,19.45z M601.49,29.85
				c-0.67,0-1.26-0.13-1.74-0.4c-0.49-0.26-0.89-0.61-1.2-1.05c-0.31-0.44-0.54-0.93-0.68-1.47c-0.15-0.54-0.22-1.1-0.22-1.66
				c0-0.56,0.07-1.11,0.22-1.66c0.15-0.54,0.37-1.04,0.68-1.47c0.31-0.44,0.71-0.79,1.2-1.05c0.49-0.26,1.07-0.4,1.74-0.4
				c0.67,0,1.26,0.13,1.74,0.4c0.49,0.26,0.89,0.61,1.2,1.05c0.31,0.44,0.54,0.93,0.68,1.47c0.14,0.54,0.22,1.1,0.22,1.66
				c0,0.56-0.07,1.11-0.22,1.66c-0.15,0.54-0.37,1.04-0.68,1.47c-0.31,0.44-0.71,0.79-1.2,1.05
				C602.74,29.72,602.16,29.85,601.49,29.85L601.49,29.85z"/>
		</g>
		<g>
			<path class="st0" d="M616.41,30.96c-0.81,0-1.54-0.15-2.17-0.45c-0.63-0.3-1.18-0.7-1.62-1.21c-0.44-0.5-0.79-1.09-1.02-1.75
				c-0.23-0.66-0.35-1.35-0.35-2.06c0-0.79,0.11-1.56,0.33-2.28c0.22-0.71,0.54-1.35,0.97-1.88c0.43-0.53,0.97-0.96,1.61-1.28
				c0.64-0.32,1.4-0.48,2.25-0.48c0.59,0,1.15,0.07,1.67,0.21c0.52,0.14,0.98,0.35,1.39,0.64c0.41,0.29,0.75,0.66,1.02,1.11
				c0.25,0.41,0.44,0.91,0.54,1.48h-1.23c-0.08-0.4-0.21-0.75-0.4-1.04c-0.21-0.32-0.46-0.58-0.77-0.79
				c-0.3-0.2-0.65-0.36-1.03-0.46c-0.38-0.1-0.79-0.15-1.21-0.15c-0.69,0-1.3,0.14-1.8,0.42c-0.5,0.28-0.91,0.65-1.22,1.1
				c-0.31,0.45-0.55,0.97-0.7,1.55c-0.15,0.58-0.22,1.17-0.22,1.77c0,0.59,0.09,1.16,0.25,1.71c0.17,0.54,0.42,1.04,0.75,1.46
				c0.33,0.42,0.75,0.76,1.23,1.02c0.49,0.25,1.06,0.38,1.7,0.38c0.6,0,1.13-0.1,1.59-0.29c0.46-0.19,0.85-0.46,1.17-0.8
				c0.32-0.34,0.56-0.74,0.72-1.2c0.16-0.46,0.23-0.95,0.21-1.47l0-0.12h-3.54v-1h4.62v5.6h-0.71l-0.43-1.54l-0.15,0.2
				c-0.42,0.56-0.95,0.97-1.56,1.21C617.69,30.83,617.05,30.96,616.41,30.96z"/>
			<path d="M616.41,19.7c0.58,0,1.13,0.07,1.64,0.2c0.5,0.13,0.96,0.34,1.35,0.62c0.39,0.28,0.72,0.64,0.99,1.07
				c0.22,0.36,0.39,0.8,0.5,1.29h-0.97c-0.08-0.37-0.22-0.7-0.4-0.98c-0.21-0.33-0.48-0.61-0.8-0.83c-0.31-0.21-0.67-0.37-1.06-0.48
				c-0.39-0.1-0.81-0.16-1.24-0.16c-0.71,0-1.34,0.15-1.86,0.44c-0.51,0.29-0.94,0.67-1.27,1.14c-0.32,0.46-0.56,1-0.71,1.59
				c-0.15,0.58-0.23,1.19-0.23,1.8c0,0.6,0.09,1.19,0.26,1.75c0.17,0.56,0.43,1.06,0.77,1.5c0.34,0.44,0.77,0.79,1.27,1.05
				c0.51,0.26,1.1,0.39,1.76,0.39c0.61,0,1.16-0.1,1.64-0.3c0.48-0.2,0.88-0.48,1.21-0.83c0.33-0.35,0.58-0.77,0.75-1.24
				c0.17-0.47,0.24-0.98,0.22-1.52l-0.01-0.24h-0.24h-3.3v-0.75h4.37v5.35h-0.49l-0.34-1.2l-0.14-0.49l-0.3,0.41
				c-0.41,0.54-0.91,0.93-1.51,1.17c-0.61,0.24-1.23,0.36-1.85,0.36c-0.79,0-1.5-0.15-2.12-0.44c-0.62-0.29-1.15-0.69-1.58-1.18
				c-0.43-0.49-0.77-1.07-0.99-1.71c-0.23-0.64-0.34-1.32-0.34-2.02c0-0.78,0.11-1.53,0.32-2.24c0.21-0.7,0.53-1.32,0.95-1.84
				c0.42-0.52,0.94-0.94,1.57-1.25C614.83,19.86,615.57,19.7,616.41,19.7 M616.41,19.45c-0.88,0-1.65,0.16-2.31,0.49
				c-0.66,0.33-1.21,0.77-1.65,1.32c-0.44,0.55-0.77,1.19-1,1.92c-0.22,0.73-0.33,1.5-0.33,2.31c0,0.73,0.12,1.43,0.36,2.1
				c0.24,0.68,0.59,1.27,1.04,1.79c0.46,0.52,1.01,0.93,1.66,1.24c0.65,0.31,1.4,0.46,2.23,0.46c0.65,0,1.3-0.13,1.94-0.38
				c0.64-0.25,1.18-0.67,1.62-1.25l0.39,1.39h0.93v-5.85h-4.87v1.25h3.55c0.02,0.51-0.05,0.98-0.2,1.42
				c-0.16,0.44-0.39,0.83-0.69,1.15c-0.31,0.33-0.68,0.58-1.13,0.77c-0.45,0.19-0.96,0.28-1.54,0.28c-0.62,0-1.17-0.12-1.64-0.37
				c-0.47-0.24-0.87-0.57-1.19-0.98c-0.32-0.41-0.57-0.88-0.73-1.42c-0.17-0.53-0.25-1.09-0.25-1.67c0-0.59,0.07-1.17,0.22-1.74
				c0.14-0.57,0.37-1.07,0.68-1.51c0.31-0.44,0.7-0.8,1.18-1.07c0.48-0.27,1.06-0.4,1.73-0.4c0.41,0,0.81,0.05,1.17,0.15
				c0.37,0.1,0.7,0.25,0.99,0.44c0.29,0.2,0.53,0.45,0.73,0.75c0.2,0.31,0.33,0.67,0.4,1.1h1.48c-0.1-0.65-0.3-1.21-0.58-1.67
				c-0.29-0.46-0.64-0.84-1.06-1.14c-0.42-0.3-0.9-0.52-1.43-0.66C617.58,19.52,617.01,19.45,616.41,19.45L616.41,19.45z"/>
		</g>
		<g>
			<polygon class="st0" points="629.08,30.71 629.08,26.29 624.89,19.84 626.35,19.84 629.75,25.25 633.07,19.84 634.45,19.84 
				630.33,26.22 630.31,30.71 			"/>
			<path d="M634.22,19.97l-4,6.18l-0.04,0.06v0.07v4.3h-0.98v-4.3v-0.07l-0.04-0.06l-4.04-6.18h1.16l3.26,5.18l0.21,0.34l0.21-0.34
				l3.18-5.17H634.22 M634.68,19.72H633l-3.25,5.29l-3.33-5.29h-1.76l4.29,6.57v4.55h1.48v-4.55L634.68,19.72L634.68,19.72z"/>
		</g>
	</g>

	</g>




	<g id="PowerTECH">
		<g>
			<path class="st1" d="M0.15,45.79L6.5,15.85h9.01l-2.01,9.4h12.9c0.81,0,1.38-0.18,1.71-0.53c0.32-0.34,0.58-0.98,0.79-1.95
				l1.77-8.11c0.08-0.42,0.12-0.71,0.12-0.88c0-0.49-0.16-0.83-0.46-0.99c-0.29-0.15-0.72-0.23-1.31-0.23H7.17l1.65-7.8h25.75
				c2.03,0,3.5,0.36,4.37,1.07c0.86,0.7,1.3,1.82,1.3,3.32c0,0.4-0.03,0.81-0.09,1.23c-0.06,0.43-0.13,0.9-0.21,1.43l-2.86,13.6
				c-0.52,2.4-1.41,4.21-2.65,5.36c-1.23,1.15-3.17,1.74-5.77,1.74H11.97l-2.81,13.3H0.15z"/>
			<path d="M34.57,4.87c2,0,3.45,0.35,4.29,1.04c0.83,0.68,1.25,1.76,1.25,3.22c0,0.39-0.03,0.8-0.09,1.21
				c-0.06,0.43-0.13,0.9-0.21,1.42l-2.87,13.6c-0.52,2.38-1.39,4.16-2.61,5.3c-1.21,1.13-3.12,1.7-5.68,1.7H12.07h-0.2l-0.04,0.2
				l-2.76,13.1H0.31l6.3-29.7h8.76l-1.95,9.09l-0.06,0.3h0.31H26.4c0.85,0,1.44-0.19,1.8-0.57c0.34-0.36,0.61-1.02,0.82-2.01
				l1.77-8.12c0.09-0.43,0.13-0.72,0.13-0.9c0-0.54-0.18-0.91-0.53-1.11c-0.31-0.16-0.75-0.24-1.37-0.24H7.32l1.6-7.55H34.57
				 M34.57,4.62H8.72l-1.71,8.05h22.01c0.57,0,0.98,0.07,1.25,0.21c0.26,0.14,0.4,0.44,0.4,0.88c0,0.16-0.04,0.45-0.12,0.85
				l-1.77,8.11c-0.2,0.94-0.46,1.57-0.76,1.89c-0.3,0.33-0.84,0.49-1.62,0.49H13.66l2.01-9.39H6.4L0,45.92h9.27l2.81-13.3h16.58
				c2.64,0,4.59-0.59,5.85-1.77c1.26-1.18,2.15-2.99,2.68-5.43l2.87-13.6c0.08-0.53,0.15-1.01,0.21-1.43
				c0.06-0.43,0.09-0.84,0.09-1.25c0-1.55-0.45-2.68-1.34-3.42C38.13,4.98,36.65,4.62,34.57,4.62L34.57,4.62z"/>
		</g>
		<g>
			<path class="st1" d="M47.23,45.79c-1.62,0-2.8-0.29-3.51-0.85c-0.7-0.56-1.05-1.43-1.05-2.59c0-0.6,0.1-1.33,0.29-2.17
				l4.54-21.52c0.42-1.92,1.13-3.36,2.11-4.28c0.98-0.92,2.53-1.38,4.6-1.38h16.44c1.62,0,2.79,0.29,3.48,0.85
				c0.68,0.56,1.03,1.45,1.03,2.64c0,0.32-0.02,0.66-0.07,1.01c-0.05,0.36-0.11,0.73-0.17,1.12l-4.53,21.52
				c-0.42,1.92-1.13,3.36-2.13,4.28c-1,0.92-2.53,1.38-4.57,1.38H47.23z M56.25,19.19c-0.69,0-1.17,0.14-1.48,0.42
				c-0.3,0.28-0.53,0.8-0.69,1.58l-3.51,16.45c-0.07,0.34-0.1,0.56-0.1,0.66c0,0.52,0.27,1.15,1.54,1.15h9.22
				c0.82,0,1.39-0.14,1.74-0.42c0.35-0.28,0.59-0.73,0.73-1.34l3.51-16.45c0.03-0.17,0.06-0.32,0.08-0.45
				c0.02-0.14,0.03-0.25,0.03-0.36c0-0.83-0.62-1.25-1.83-1.25H56.25z"/>
			<path d="M70.64,13.13c1.59,0,2.74,0.28,3.4,0.82c0.65,0.53,0.98,1.39,0.98,2.54c0,0.31-0.02,0.65-0.07,0.99
				c-0.05,0.36-0.11,0.73-0.17,1.1L70.25,40.1c-0.41,1.89-1.12,3.31-2.1,4.21c-0.97,0.9-2.48,1.35-4.49,1.35H47.23
				c-1.59,0-2.75-0.28-3.43-0.82c-0.68-0.54-1-1.35-1-2.49c0-0.6,0.1-1.32,0.29-2.14l4.54-21.52c0.41-1.89,1.11-3.31,2.07-4.21
				c0.95-0.89,2.47-1.35,4.51-1.35H70.64 M52.01,39.58h9.22c0.85,0,1.44-0.15,1.81-0.45c0.37-0.3,0.63-0.77,0.77-1.41l3.51-16.45
				c0.03-0.17,0.06-0.32,0.08-0.46c0.02-0.14,0.03-0.27,0.03-0.37c0-0.63-0.34-1.37-1.96-1.37h-9.22c-0.72,0-1.23,0.15-1.56,0.46
				c-0.32,0.3-0.56,0.84-0.73,1.64l-3.51,16.45c-0.09,0.46-0.1,0.61-0.1,0.68C50.35,38.89,50.63,39.58,52.01,39.58 M70.64,12.88
				H54.2c-2.11,0-3.68,0.47-4.68,1.42c-1.01,0.94-1.72,2.39-2.15,4.34l-4.54,21.52c-0.2,0.85-0.29,1.58-0.29,2.2
				c0,1.2,0.37,2.1,1.1,2.68c0.73,0.59,1.93,0.88,3.59,0.88h16.44c2.08,0,3.63-0.47,4.66-1.42c1.02-0.94,1.75-2.39,2.17-4.34
				l4.54-21.52c0.06-0.39,0.12-0.76,0.17-1.12c0.05-0.36,0.07-0.7,0.07-1.03c0-1.24-0.36-2.15-1.07-2.73
				C73.49,13.17,72.3,12.88,70.64,12.88L70.64,12.88z M52.01,39.33c-0.94,0-1.41-0.34-1.41-1.03c0-0.1,0.03-0.31,0.1-0.63
				l3.51-16.45c0.16-0.75,0.38-1.25,0.66-1.51c0.28-0.26,0.74-0.39,1.39-0.39h9.22c1.14,0,1.71,0.37,1.71,1.12
				c0,0.1-0.01,0.21-0.02,0.34c-0.02,0.13-0.04,0.28-0.07,0.44l-3.51,16.45c-0.13,0.59-0.36,1.01-0.68,1.27
				c-0.33,0.26-0.88,0.39-1.66,0.39H52.01L52.01,39.33z"/>
		</g>
		<g>
			<polygon class="st1" points="104.84,45.79 103.61,21.87 91.43,45.79 83.33,45.79 82.08,13 89.43,13 89.98,37.6 102.12,13 
				109.34,13 110.38,37.55 121.83,13 128.82,13 112.99,45.79 			"/>
			<path d="M128.62,13.13l-15.71,32.54h-7.95l-1.21-23.33l-0.05-0.93l-0.42,0.83L91.35,45.67h-7.9L82.2,13.13h7.11l0.53,23.96
				l0.02,1.02l0.45-0.91l11.88-24.07h7.02l1.01,23.92l0.04,1.02l0.43-0.93l11.2-24.01H128.62 M129.02,12.88h-7.27l-11.27,24.16
				l-1.02-24.16h-7.41L90.09,37.08l-0.54-24.21h-7.61l1.27,33.04h8.29l12-23.57l1.22,23.57h8.34L129.02,12.88L129.02,12.88z"/>
		</g>
		<g>
			<path class="st1" d="M127.68,45.79l5.07-23.91h7.4l-1.17,5.37h12.15l-1.07,5.02h-12.15l-1.52,7.18h16.83l-1.31,6.34H127.68z
				 M133.29,19.19L134.6,13h24.23l-1.31,6.19H133.29z"/>
			<path d="M158.68,13.13l-1.26,5.94h-23.98l1.26-5.94H158.68 M140,22.01l-1.1,5.06l-0.07,0.3h0.31h11.84l-1.02,4.77h-11.94h-0.2
				l-0.04,0.2l-1.46,6.93l-0.06,0.3h0.31h16.52l-1.26,6.09h-23.97l5.02-23.66H140 M158.99,12.88H134.5l-1.37,6.44h24.49
				L158.99,12.88L158.99,12.88z M140.31,21.76h-7.66l-5.12,24.16h24.49l1.37-6.59h-16.83l1.46-6.93h12.15l1.12-5.27h-12.15
				L140.31,21.76L140.31,21.76z"/>
		</g>
		<g>
			<path class="st1" d="M179.74,45.79l2.21-10.63c0.03-0.17,0.06-0.31,0.07-0.42c0.02-0.12,0.03-0.23,0.03-0.33
				c0-0.6-0.5-0.91-1.49-0.91h-10.78l-2.59,12.3h-7.16l5.07-23.91h7.16l-1.37,6.39h10.3c0.76,0,1.25-0.12,1.52-0.37
				c0.26-0.25,0.47-0.71,0.65-1.43l1.17-5.37c0.03-0.17,0.06-0.32,0.08-0.45c0.02-0.14,0.03-0.25,0.03-0.36
				c0-0.44-0.14-0.73-0.4-0.89c-0.25-0.14-0.66-0.21-1.23-0.21h-17.36l1.31-6.19h20.87c1.65,0,2.86,0.29,3.58,0.88
				c0.71,0.58,1.07,1.47,1.07,2.66c0,0.29-0.02,0.59-0.07,0.91c-0.05,0.32-0.11,0.67-0.17,1.02l-1.51,7.17
				c-0.35,1.65-0.99,2.83-1.9,3.51c-0.92,0.68-1.95,1.09-3.06,1.22l0.01,0.25c1.02,0.06,1.88,0.3,2.58,0.69
				c0.68,0.39,1.01,1.06,1.01,2.06v0.51c0,0.16-0.03,0.34-0.09,0.52l-2.37,11.38H179.74z"/>
			<path d="M187.83,13.13c1.62,0,2.8,0.29,3.5,0.85c0.69,0.56,1.03,1.4,1.03,2.56c0,0.28-0.02,0.58-0.07,0.89
				c-0.05,0.32-0.11,0.66-0.17,1.01l-1.51,7.17c-0.34,1.62-0.97,2.78-1.86,3.44c-0.9,0.67-1.91,1.07-3,1.2l0.01,0.5
				c1,0.06,1.85,0.29,2.53,0.68c0.64,0.36,0.95,1,0.95,1.95v0.51c0,0.15-0.03,0.31-0.09,0.51l-2.35,11.27h-6.9l2.18-10.49
				c0.03-0.17,0.06-0.31,0.07-0.43c0.02-0.13,0.03-0.24,0.03-0.35c0-0.47-0.28-1.03-1.62-1.03h-10.68h-0.2l-0.04,0.2l-2.54,12.1
				h-6.9l5.02-23.66h6.9l-1.3,6.09l-0.06,0.3h0.31h10.15c0.79,0,1.31-0.13,1.61-0.41c0.28-0.26,0.51-0.75,0.68-1.5l1.17-5.37
				c0.03-0.17,0.06-0.32,0.08-0.46c0.02-0.14,0.03-0.27,0.03-0.37c0-0.48-0.16-0.82-0.47-1c-0.27-0.15-0.69-0.23-1.29-0.23h-17.2
				l1.26-5.94H187.83 M187.83,12.88h-20.98l-1.37,6.44H183c0.55,0,0.94,0.07,1.17,0.19c0.23,0.13,0.34,0.39,0.34,0.78
				c0,0.1-0.01,0.21-0.02,0.34c-0.02,0.13-0.04,0.28-0.07,0.44l-1.17,5.37c-0.16,0.68-0.37,1.14-0.61,1.37
				c-0.24,0.23-0.72,0.34-1.44,0.34h-10.15l1.37-6.39H165l-5.12,24.16h7.41l2.59-12.3h10.68c0.91,0,1.37,0.26,1.37,0.78
				c0,0.1-0.01,0.2-0.02,0.32c-0.02,0.11-0.04,0.25-0.07,0.42l-2.24,10.79H187l2.39-11.47c0.06-0.2,0.1-0.38,0.1-0.56
				c0-0.18,0-0.35,0-0.51c0-1.04-0.36-1.76-1.07-2.17c-0.72-0.41-1.59-0.64-2.63-0.71c1.14-0.13,2.18-0.54,3.12-1.24
				c0.94-0.7,1.59-1.89,1.95-3.59l1.51-7.17c0.06-0.36,0.12-0.7,0.17-1.02c0.05-0.33,0.07-0.63,0.07-0.93
				c0-1.24-0.37-2.15-1.12-2.76C190.74,13.18,189.52,12.88,187.83,12.88L187.83,12.88z"/>
		</g>
		<g>
			<polygon class="st2" points="199.52,45.79 206.53,12.61 196.53,12.61 198.18,4.74 227.25,4.74 225.6,12.61 215.54,12.61 
				208.53,45.79 			"/>
			<path d="M227.1,4.87l-1.6,7.61h-9.86h-0.2l-0.04,0.2l-6.97,32.99h-8.76l6.95-32.88l0.06-0.3h-0.31h-9.69l1.6-7.61H227.1
				 M227.41,4.62h-29.33l-1.71,8.11h10l-7.01,33.19h9.27l7.01-33.19h10.06L227.41,4.62L227.41,4.62z"/>
		</g>
		<g>
			<path class="st2" d="M225.34,45.79l6.35-29.95H241l-1.46,6.71h15.18l-1.35,6.34h-15.18l-1.88,8.91h21.04l-1.65,7.99H225.34z
				 M232.35,12.54l1.65-7.8h30.35l-1.65,7.8H232.35z"/>
			<path d="M264.2,4.87l-1.6,7.55h-30.1l1.6-7.55H264.2 M240.85,15.97l-1.4,6.41l-0.07,0.3h0.31h14.87l-1.3,6.09h-14.98h-0.2
				l-0.04,0.2l-1.83,8.66l-0.06,0.3h0.31h20.73l-1.6,7.74h-30.1l6.3-29.7H240.85 M264.51,4.62H233.9l-1.71,8.05h30.61L264.51,4.62
				L264.51,4.62z M241.16,15.72h-9.57l-6.4,30.2h30.61l1.71-8.24h-21.04l1.83-8.66h15.18l1.4-6.59h-15.18L241.16,15.72L241.16,15.72
				z"/>
		</g>
		<g>
			<path class="st2" d="M272.27,45.79c-2.03,0-3.5-0.36-4.37-1.07c-0.86-0.7-1.3-1.82-1.3-3.32c0-0.4,0.02-0.82,0.06-1.24
				c0.04-0.42,0.12-0.89,0.24-1.42l5.67-26.91c0.52-2.4,1.42-4.21,2.68-5.36c1.25-1.15,3.18-1.74,5.74-1.74h23.08l-1.66,7.99h-18.56
				c-1.02,0-1.69,0.16-2.06,0.49c-0.37,0.33-0.65,0.96-0.86,1.93l-4.33,20.13c-0.04,0.21-0.07,0.38-0.09,0.53
				c-0.02,0.15-0.03,0.3-0.03,0.47c0,0.49,0.16,0.85,0.48,1.08c0.31,0.22,0.85,0.33,1.66,0.33h18.63l-1.72,8.11H272.27z"/>
			<path d="M303.91,4.87l-1.6,7.74h-18.45c-1.05,0-1.75,0.17-2.15,0.52c-0.39,0.34-0.69,1-0.9,2l-4.33,20.13
				c-0.04,0.21-0.07,0.39-0.09,0.53c-0.02,0.15-0.03,0.31-0.03,0.49c0,0.53,0.18,0.93,0.53,1.18c0.33,0.24,0.9,0.35,1.73,0.35h18.47
				l-1.66,7.86h-23.15c-2,0-3.45-0.35-4.29-1.04c-0.83-0.68-1.25-1.76-1.25-3.22c0-0.4,0.02-0.81,0.06-1.23
				c0.04-0.41,0.12-0.88,0.24-1.41l5.67-26.9c0.51-2.38,1.4-4.16,2.64-5.3c1.23-1.13,3.13-1.7,5.65-1.7H303.91 M304.22,4.62h-23.23
				c-2.6,0-4.54,0.59-5.82,1.77c-1.28,1.18-2.19,2.99-2.71,5.43l-5.67,26.9c-0.12,0.53-0.2,1.01-0.24,1.43
				c-0.04,0.43-0.06,0.84-0.06,1.25c0,1.55,0.45,2.68,1.34,3.42c0.89,0.73,2.38,1.1,4.45,1.1h23.35l1.77-8.36h-18.78
				c-0.77,0-1.3-0.1-1.59-0.31c-0.28-0.2-0.43-0.53-0.43-0.98c0-0.16,0.01-0.31,0.03-0.46c0.02-0.14,0.05-0.31,0.09-0.52l4.33-20.13
				c0.2-0.93,0.48-1.56,0.82-1.86c0.34-0.31,1.01-0.46,1.98-0.46h18.66L304.22,4.62L304.22,4.62z"/>
		</g>
		<g>
			<polygon class="st2" points="330.31,45.79 333.91,28.71 317.49,28.71 313.89,45.79 304.88,45.79 313.55,4.74 322.56,4.74 
				319.08,21.21 335.5,21.21 338.97,4.74 347.99,4.74 339.32,45.79 			"/>
			<path d="M347.83,4.87l-8.61,40.8h-8.76L334,28.89l0.06-0.3h-0.31h-16.16h-0.2l-0.04,0.2l-3.56,16.88h-8.76l8.61-40.8h8.76
				l-3.41,16.17l-0.06,0.3h0.31h16.16h0.2l0.04-0.2l3.43-16.27H347.83 M348.14,4.62h-9.27l-3.48,16.47h-16.16l3.48-16.47h-9.27
				l-8.72,41.3H314l3.6-17.08h16.16l-3.6,17.08h9.27L348.14,4.62L348.14,4.62z"/>
		</g>
		<path class="st3" d="M355.98,1.06c1.96,0,3.56,1.6,3.56,3.56s-1.6,3.56-3.56,3.56s-3.56-1.6-3.56-3.56S354.02,1.06,355.98,1.06
			 M355.98,0.4c-2.33,0-4.21,1.89-4.21,4.22s1.89,4.22,4.21,4.22c2.33,0,4.21-1.89,4.21-4.22S358.31,0.4,355.98,0.4L355.98,0.4z"/>
		<g>
			<g>
				<polygon class="st0" points="354.09,6.15 354.09,3.26 353.1,3.26 353.1,3.16 355.25,3.16 355.25,3.26 354.26,3.26 354.26,6.15 
									"/>
				<polygon points="355.37,3.03 352.98,3.03 352.98,3.39 353.96,3.39 353.96,6.27 354.38,6.27 354.38,3.39 355.37,3.39 
					355.37,3.03 				"/>
			</g>
			<g>
				<path class="st0" d="M358.66,6.15l-0.07-1.3c-0.02-0.45-0.05-0.99-0.05-1.39V3.33h-0.22l-0.04,0.09
					c-0.12,0.37-0.24,0.78-0.41,1.22l-0.54,1.49h-0.14l-0.5-1.46c-0.15-0.46-0.28-0.87-0.37-1.25l-0.02-0.1h-0.22l-0.01,0.12
					c-0.01,0.4-0.03,0.94-0.06,1.43l-0.08,1.27h-0.15l0.21-2.99h0.33l0.52,1.48c0.13,0.39,0.24,0.75,0.32,1.08l0.02,0.09h0.19
					l0.03-0.09c0.08-0.32,0.2-0.68,0.34-1.08l0.54-1.48h0.33l0.19,2.99H358.66z"/>
				<path d="M357.27,5.94l0,0.01L357.27,5.94L357.27,5.94 M358.75,3.03h-0.53l-0.58,1.57c-0.14,0.41-0.26,0.76-0.35,1.09h-0.01
					c-0.09-0.34-0.19-0.69-0.33-1.09l-0.55-1.57h-0.53l-0.23,3.24h0.4l0.09-1.39c0.03-0.49,0.05-1.03,0.06-1.43h0.01
					c0.09,0.38,0.22,0.8,0.37,1.26l0.53,1.54h0.32l0.57-1.57c0.16-0.45,0.29-0.86,0.41-1.23h0.01c0,0.4,0.03,0.95,0.05,1.4
					l0.08,1.42h0.41L358.75,3.03L358.75,3.03z"/>
			</g>
		</g>
	</g>
</g>
</svg>
