<?xml version="1.0" encoding="utf-8"?>

<svg version="1.1" id="Layer_1" xmlns="http://www.w3.org/2000/svg" xmlns:xlink="http://www.w3.org/1999/xlink" x="0px" y="0px"
	 viewBox="0 0 100.2 118.4" style="enable-background:new 0 0 100.2 118.4;" xml:space="preserve">
	<style type="text/css">
		.st0{fill:#CB2026;}
		.st1{fill:url(#SVGID_1_);}
		.st2{fill:url(#SVGID_2_);}
		.st3{fill-rule:evenodd;clip-rule:evenodd;fill:#231F20;}
	</style>
	<g id="Yamaha">
		<g>
			<circle id="XMLID_1_" class="st0" cx="50.2" cy="46.4" r="45.1"/>
			<linearGradient id="SVGID_1_" gradientUnits="userSpaceOnUse" x1="24.84" y1="27.1973" x2="75.5114" y2="77.8687">
				<stop  offset="0" style="stop-color:#FFFFFF"/>
				<stop  offset="0.2999" style="stop-color:#FDFEFF"/>
				<stop  offset="0.4079" style="stop-color:#F6FAFD"/>
				<stop  offset="0.4849" style="stop-color:#EBF3FB"/>
				<stop  offset="0.5467" style="stop-color:#DAE9F7"/>
				<stop  offset="0.5976" style="stop-color:#C5DDF3"/>
				<stop  offset="0.6456" style="stop-color:#C9DFF4"/>
				<stop  offset="0.6955" style="stop-color:#D6E7F6"/>
				<stop  offset="0.7461" style="stop-color:#EAF3FB"/>
				<stop  offset="0.7839" style="stop-color:#FFFFFF"/>
				<stop  offset="0.8708" style="stop-color:#D9E4F0"/>
				<stop  offset="1" style="stop-color:#9BB6D6"/>
			</linearGradient>
			<path class="st1" d="M76.9,57.2c-1.3,0.7-2.8,0.7-4.2,0c-1.2-0.7-2-2-2.1-3.3c-0.2-2.1-1.3-4-3.3-5.2l-3.9-2.3l16.8-9.7l-1.7-3
				L60,44.4l-3.1-1.8v-3.7l18.5-10.7l-1.7-3l-16.7,9.7v-4.7c0-2.2-1.1-4.2-2.8-5.4c-1.1-0.8-1.8-2-1.8-3.5c0-1.5,0.8-2.9,2-3.6
				l-4.1-13l-4.1,13c1.2,0.7,2,2.1,2,3.6c0,1.4-0.7,2.7-1.8,3.5c-1.7,1.2-2.8,3.2-2.8,5.4V35l-16.8-9.7l-1.7,3L43.6,39v3.6l-3.2,1.9
				L21.9,33.8l-1.7,3l16.8,9.7L33,48.7c-1.9,1.1-3.1,3.1-3.3,5.2c-0.1,1.3-0.9,2.6-2.1,3.3c-1.3,0.8-2.9,0.7-4.2,0l-9.2,10l13.3-3
				c0-1.4,0.8-2.8,2.1-3.6c1.2-0.7,2.7-0.7,3.9-0.2c1.9,0.9,4.2,0.9,6.1-0.3l4-2.3v19.2H47V55.9l3.1-1.8l3.2,1.9v21.2h3.5V58l3.9,2.2
				c1.9,1.1,4.2,1.1,6.1,0.3c1.2-0.6,2.7-0.5,3.9,0.2c1.3,0.8,2.1,2.2,2.1,3.6l13.3,3L76.9,57.2z M50.2,50.1L47,48.3v-3.7l3.1-1.8
				l3.2,1.9v3.6L50.2,50.1z M47,30.2c0-1.8,1.4-3.2,3.2-3.2s3.2,1.4,3.2,3.2v6.7l-3.2,1.9L47,37V30.2z M37.9,57.2
				c-1.5,0.9-3.5,0.4-4.3-1.2c-0.9-1.5-0.4-3.5,1.2-4.3l5.7-3.3l3.2,1.9v3.6L37.9,57.2z M66.8,56c-0.9,1.5-2.8,2-4.3,1.2L56.9,54
				v-3.7l3.1-1.8l5.7,3.3C67.2,52.6,67.7,54.5,66.8,56z"/>
			<linearGradient id="SVGID_2_" gradientUnits="userSpaceOnUse" x1="19.43" y1="15.6403" x2="81.0012" y2="77.2115">
				<stop  offset="0" style="stop-color:#FFFFFF"/>
				<stop  offset="0.2999" style="stop-color:#FDFEFF"/>
				<stop  offset="0.4079" style="stop-color:#F6FAFD"/>
				<stop  offset="0.4849" style="stop-color:#EBF3FB"/>
				<stop  offset="0.5467" style="stop-color:#DAE9F7"/>
				<stop  offset="0.5976" style="stop-color:#C5DDF3"/>
				<stop  offset="0.6456" style="stop-color:#C9DFF4"/>
				<stop  offset="0.6955" style="stop-color:#D6E7F6"/>
				<stop  offset="0.7461" style="stop-color:#EAF3FB"/>
				<stop  offset="0.7839" style="stop-color:#FFFFFF"/>
				<stop  offset="0.8708" style="stop-color:#D9E4F0"/>
				<stop  offset="1" style="stop-color:#9BB6D6"/>
			</linearGradient>
			<path class="st2" d="M50.2,2.9c-24,0-43.5,19.5-43.5,43.5c0,24,19.5,43.5,43.5,43.5c24,0,43.5-19.5,43.5-43.5
				C93.8,22.4,74.3,2.9,50.2,2.9z M85.9,68.3L85.9,68.3L80.1,67c-6.5,9.5-17.5,15.7-29.9,15.7S26.9,76.5,20.4,67l-5.8,1.3v0
				c-0.5,0.1-1.1-0.1-1.4-0.5c-0.3-0.5-0.2-1.1,0.2-1.4l0,0l4-4.4c-2.2-4.7-3.5-10-3.5-15.5c0-19.1,14.7-34.7,33.4-36.2l1.8-5.7h0
				c0.1-0.5,0.6-0.9,1.2-0.9c0.6,0,1,0.4,1.2,0.9h0l1.8,5.7c18.7,1.5,33.4,17.1,33.4,36.2c0,5.6-1.3,10.8-3.5,15.5l4,4.4l0,0
				c0.4,0.4,0.5,1,0.2,1.4C87,68.3,86.4,68.5,85.9,68.3z"/>
		</g>
		<path class="st3" d="M26,94.5h-6.3l-4,23.1h4.7l0.8-5.5l3.4,0l0.8,5.5h4.7L26,94.5z M21.7,107.8l1.1-8l1.2,8L21.7,107.8z"/>
		<polygon class="st3" points="77.8,94.6 77.8,103.7 73.7,103.7 73.7,94.6 69,94.6 69,117.7 73.7,117.7 73.7,107.9 77.8,107.9 
			77.8,117.7 82.5,117.7 82.5,94.6 	"/>
		<path class="st3" d="M62.3,94.6h-6.3l-4,23h4.7l0.8-5.5l3.5,0l0.8,5.5h4.7L62.3,94.6z M58,107.9l1.1-8l1.2,8L58,107.9z"/>
		<polygon class="st3" points="49.3,117.6 45,117.6 44.9,103 42.4,117.6 39.5,117.6 37,103 36.9,117.6 32.6,117.6 32.6,94.6 
			39.1,94.6 41,105.5 42.8,94.6 49.3,94.6 	"/>
		<path class="st3" d="M95.5,94.5h-6.3l-4,23h4.7l0.8-5.5l3.5,0l0.8,5.5h4.7L95.5,94.5z M91.2,107.9l1.1-8l1.2,8L91.2,107.9z"/>
		<polygon class="st3" points="10.9,109.9 16,94.6 11.2,94.6 8.4,104.8 5.5,94.6 0.8,94.6 5.9,109.9 5.9,117.6 10.9,117.6 	"/>
	</g>
</svg>
