<?xml version="1.0" encoding="utf-8"?>

<svg version="1.1" id="Layer_3" xmlns="http://www.w3.org/2000/svg" xmlns:xlink="http://www.w3.org/1999/xlink" x="0px" y="0px"
	 viewBox="0 0 1999 785" style="enable-background:new 0 0 1999 785;" xml:space="preserve">
	<style type="text/css">
		.st0{fill:#F17622;}
	</style>
	<rect class="st0" width="1999" height="785"/>
	<polyline points="1058.3,483.4 1159.5,184.1 1531.1,184.1 1548,109.4 573.6,109.4 545.1,185.1 904,185.1 752.4,567.8 633.6,411.5 
		840.2,239.2 667.1,239.2 455.3,408.4 527.3,239.7 275,239.7 90.4,674.7 344.7,674.7 408.6,518.8 525.7,674.7 1073,674.7 
		1242.5,516.5 1213.4,675.1 1428,675.1 1604.7,519 1580.4,675.1 1811.8,675.1 1907.8,240 1674.9,240 1487.8,406 1524.5,239.6 
		1300.7,239.6 1057.8,483.9 "/>
</svg>
