<?xml version="1.0" encoding="utf-8"?>
<!-- Generator: Adobe Illustrator 24.0.1, SVG Export Plug-In . SVG Version: 6.00 Build 0)  -->
<svg version="1.1" id="all" xmlns="http://www.w3.org/2000/svg" xmlns:xlink="http://www.w3.org/1999/xlink" x="0px" y="0px"
	 viewBox="0 0 362 72" style="enable-background:new 0 0 362 72;" xml:space="preserve">
<style type="text/css">
	.st0{fill:#FFFFFF;}
	.st1{fill:#CC0000;}
	.st2{fill:#333333;stroke:#000000;stroke-width:0.25;stroke-miterlimit:10;}
	.st3{fill:#333333;}
</style>
<g id="PowerTECH">
	<g>
		<path class="st0" d="M0.99,46.11l6.35-29.94h9.01l-2.01,9.4h12.9c0.81,0,1.38-0.18,1.71-0.53c0.32-0.34,0.58-0.98,0.79-1.95
			l1.77-8.11c0.08-0.42,0.12-0.71,0.12-0.88c0-0.49-0.16-0.83-0.46-0.99c-0.29-0.15-0.72-0.23-1.31-0.23H8.01l1.65-7.8h25.75
			c2.03,0,3.5,0.36,4.37,1.07c0.86,0.7,1.3,1.82,1.3,3.32c0,0.4-0.03,0.81-0.09,1.23c-0.06,0.43-0.13,0.9-0.21,1.43l-2.86,13.6
			c-0.52,2.4-1.41,4.21-2.65,5.36c-1.23,1.15-3.17,1.74-5.77,1.74H12.81L10,46.13H0.99V46.11z"/>
		<path d="M35.41,5.19c2,0,3.45,0.35,4.29,1.04c0.83,0.68,1.25,1.76,1.25,3.22c0,0.39-0.03,0.8-0.09,1.21
			c-0.06,0.43-0.13,0.9-0.21,1.42l-2.87,13.6c-0.52,2.38-1.39,4.16-2.61,5.3c-1.21,1.13-3.12,1.7-5.68,1.7H12.91h-0.2l-0.04,0.2
			l-2.76,13.1H1.15l6.3-29.7h8.76l-1.95,9.09l-0.06,0.3h0.31h12.73c0.85,0,1.44-0.19,1.8-0.57c0.34-0.36,0.61-1.02,0.82-2.01
			l1.77-8.12c0.09-0.43,0.13-0.72,0.13-0.9c0-0.54-0.18-0.91-0.53-1.11c-0.31-0.16-0.75-0.24-1.37-0.24H8.16l1.6-7.55h25.65
			 M35.41,4.94H9.56l-1.71,8.05h22.01c0.57,0,0.98,0.07,1.25,0.21c0.26,0.14,0.4,0.44,0.4,0.88c0,0.16-0.04,0.45-0.12,0.85
			l-1.77,8.11c-0.2,0.94-0.46,1.57-0.76,1.89c-0.3,0.33-0.84,0.49-1.62,0.49H14.5l2.01-9.39H7.24l-6.4,30.21h9.27l2.81-13.3H29.5
			c2.64,0,4.59-0.59,5.85-1.77c1.26-1.18,2.15-2.99,2.68-5.43l2.87-13.6c0.08-0.53,0.15-1.01,0.21-1.43
			c0.06-0.43,0.09-0.84,0.09-1.25c0-1.55-0.45-2.68-1.34-3.42C38.97,5.3,37.49,4.94,35.41,4.94L35.41,4.94z"/>
	</g>
	<g>
		<path class="st0" d="M48.07,46.11c-1.62,0-2.8-0.29-3.51-0.85c-0.7-0.56-1.05-1.43-1.05-2.59c0-0.6,0.1-1.33,0.29-2.17l4.54-21.52
			c0.42-1.92,1.13-3.36,2.11-4.28c0.98-0.92,2.53-1.38,4.6-1.38h16.44c1.62,0,2.79,0.29,3.48,0.85c0.68,0.56,1.03,1.45,1.03,2.64
			c0,0.32-0.02,0.66-0.07,1.01c-0.05,0.36-0.11,0.73-0.17,1.12l-4.53,21.52c-0.42,1.92-1.13,3.36-2.13,4.28s-2.53,1.38-4.57,1.38
			L48.07,46.11L48.07,46.11z M57.09,19.51c-0.69,0-1.17,0.14-1.48,0.42c-0.3,0.28-0.53,0.8-0.69,1.58l-3.51,16.45
			c-0.07,0.34-0.1,0.56-0.1,0.66c0,0.52,0.27,1.15,1.54,1.15h9.22c0.82,0,1.39-0.14,1.74-0.42c0.35-0.28,0.59-0.73,0.73-1.34
			l3.51-16.45c0.03-0.17,0.06-0.32,0.08-0.45c0.02-0.14,0.03-0.25,0.03-0.36c0-0.83-0.62-1.25-1.83-1.25h-9.24V19.51z"/>
		<path d="M71.48,13.45c1.59,0,2.74,0.28,3.4,0.82c0.65,0.53,0.98,1.39,0.98,2.54c0,0.31-0.02,0.65-0.07,0.99
			c-0.05,0.36-0.11,0.73-0.17,1.1l-4.53,21.52c-0.41,1.89-1.12,3.31-2.1,4.21c-0.97,0.9-2.48,1.35-4.49,1.35H48.07
			c-1.59,0-2.75-0.28-3.43-0.82s-1-1.35-1-2.49c0-0.6,0.1-1.32,0.29-2.14l4.54-21.52c0.41-1.89,1.11-3.31,2.07-4.21
			c0.95-0.89,2.47-1.35,4.51-1.35L71.48,13.45 M52.85,39.9h9.22c0.85,0,1.44-0.15,1.81-0.45s0.63-0.77,0.77-1.41l3.51-16.45
			c0.03-0.17,0.06-0.32,0.08-0.46c0.02-0.14,0.03-0.27,0.03-0.37c0-0.63-0.34-1.37-1.96-1.37h-9.22c-0.72,0-1.23,0.15-1.56,0.46
			c-0.32,0.3-0.56,0.84-0.73,1.64l-3.51,16.45c-0.09,0.46-0.1,0.61-0.1,0.68C51.19,39.21,51.47,39.9,52.85,39.9 M71.48,13.2H55.04
			c-2.11,0-3.68,0.47-4.68,1.42c-1.01,0.94-1.72,2.39-2.15,4.34l-4.54,21.52c-0.2,0.85-0.29,1.58-0.29,2.2c0,1.2,0.37,2.1,1.1,2.68
			c0.73,0.59,1.93,0.88,3.59,0.88h16.44c2.08,0,3.63-0.47,4.66-1.42c1.02-0.94,1.75-2.39,2.17-4.34l4.54-21.52
			c0.06-0.39,0.12-0.76,0.17-1.12c0.05-0.36,0.07-0.7,0.07-1.03c0-1.24-0.36-2.15-1.07-2.73C74.33,13.49,73.14,13.2,71.48,13.2
			L71.48,13.2z M52.85,39.65c-0.94,0-1.41-0.34-1.41-1.03c0-0.1,0.03-0.31,0.1-0.63l3.51-16.45c0.16-0.75,0.38-1.25,0.66-1.51
			s0.74-0.39,1.39-0.39h9.22c1.14,0,1.71,0.37,1.71,1.12c0,0.1-0.01,0.21-0.02,0.34c-0.02,0.13-0.04,0.28-0.07,0.44l-3.51,16.45
			c-0.13,0.59-0.36,1.01-0.68,1.27c-0.33,0.26-0.88,0.39-1.66,0.39L52.85,39.65L52.85,39.65z"/>
	</g>
	<g>
		<polygon class="st0" points="105.68,46.11 104.45,22.19 92.27,46.11 84.17,46.11 82.92,13.32 90.27,13.32 90.82,37.92 
			102.96,13.32 110.18,13.32 111.22,37.87 122.67,13.32 129.66,13.32 113.83,46.11 		"/>
		<path d="M129.46,13.45l-15.71,32.54h-7.95l-1.21-23.33l-0.05-0.93l-0.42,0.83L92.19,45.99h-7.9l-1.25-32.54h7.11l0.53,23.96
			l0.02,1.02l0.45-0.91l11.88-24.07h7.02l1.01,23.92l0.04,1.02l0.43-0.93l11.2-24.01L129.46,13.45 M129.86,13.2h-7.27l-11.27,24.16
			L110.3,13.2h-7.41L90.93,37.4l-0.54-24.21h-7.61l1.27,33.04h8.29l12-23.57l1.22,23.57h8.34L129.86,13.2L129.86,13.2z"/>
	</g>
	<g>
		<path class="st0" d="M128.52,46.11l5.07-23.91h7.4l-1.17,5.37h12.15l-1.07,5.02h-12.15l-1.52,7.18h16.83l-1.31,6.34H128.52z
			 M134.13,19.51l1.31-6.19h24.23l-1.31,6.19H134.13z"/>
		<path d="M159.52,13.45l-1.26,5.94h-23.98l1.26-5.94L159.52,13.45 M140.84,22.33l-1.1,5.06l-0.07,0.3h0.31h11.84l-1.02,4.77h-11.94
			h-0.2l-0.04,0.2l-1.46,6.93l-0.06,0.3h0.31h16.52l-1.26,6.09H128.7l5.02-23.66h7.12 M159.83,13.2h-24.49l-1.37,6.44h24.49
			L159.83,13.2L159.83,13.2z M141.15,22.08h-7.66l-5.12,24.16h24.49l1.37-6.59H137.4l1.46-6.93h12.15l1.12-5.27h-12.15L141.15,22.08
			L141.15,22.08z"/>
	</g>
	<g>
		<path class="st0" d="M180.58,46.11l2.21-10.63c0.03-0.17,0.06-0.31,0.07-0.42c0.02-0.12,0.03-0.23,0.03-0.33
			c0-0.6-0.5-0.91-1.49-0.91h-10.78l-2.59,12.3h-7.16l5.07-23.91h7.16l-1.37,6.39h10.3c0.76,0,1.25-0.12,1.52-0.37
			c0.26-0.25,0.47-0.71,0.65-1.43l1.17-5.37c0.03-0.17,0.06-0.32,0.08-0.45c0.02-0.14,0.03-0.25,0.03-0.36
			c0-0.44-0.14-0.73-0.4-0.89c-0.25-0.14-0.66-0.21-1.23-0.21h-17.36l1.31-6.19h20.87c1.65,0,2.86,0.29,3.58,0.88
			c0.71,0.58,1.07,1.47,1.07,2.66c0,0.29-0.02,0.59-0.07,0.91s-0.11,0.67-0.17,1.02l-1.51,7.17c-0.35,1.65-0.99,2.83-1.9,3.51
			c-0.92,0.68-1.95,1.09-3.06,1.22l0.01,0.25c1.02,0.06,1.88,0.3,2.58,0.69c0.68,0.39,1.01,1.06,1.01,2.06v0.51
			c0,0.16-0.03,0.34-0.09,0.52l-2.37,11.38C187.75,46.11,180.58,46.11,180.58,46.11z"/>
		<path d="M188.67,13.45c1.62,0,2.8,0.29,3.5,0.85c0.69,0.56,1.03,1.4,1.03,2.56c0,0.28-0.02,0.58-0.07,0.89
			c-0.05,0.32-0.11,0.66-0.17,1.01l-1.51,7.17c-0.34,1.62-0.97,2.78-1.86,3.44c-0.9,0.67-1.91,1.07-3,1.2l0.01,0.5
			c1,0.06,1.85,0.29,2.53,0.68c0.64,0.36,0.95,1,0.95,1.95v0.51c0,0.15-0.03,0.31-0.09,0.51l-2.35,11.27h-6.9l2.18-10.49
			c0.03-0.17,0.06-0.31,0.07-0.43c0.02-0.13,0.03-0.24,0.03-0.35c0-0.47-0.28-1.03-1.62-1.03h-10.68h-0.2l-0.04,0.2l-2.54,12.1h-6.9
			l5.02-23.66h6.9l-1.3,6.09l-0.06,0.3h0.31h10.15c0.79,0,1.31-0.13,1.61-0.41c0.28-0.26,0.51-0.75,0.68-1.5l1.17-5.37
			c0.03-0.17,0.06-0.32,0.08-0.46s0.03-0.27,0.03-0.37c0-0.48-0.16-0.82-0.47-1c-0.27-0.15-0.69-0.23-1.29-0.23h-17.2l1.26-5.94
			L188.67,13.45 M188.67,13.2h-20.98l-1.37,6.44h17.52c0.55,0,0.94,0.07,1.17,0.19c0.23,0.13,0.34,0.39,0.34,0.78
			c0,0.1-0.01,0.21-0.02,0.34c-0.02,0.13-0.04,0.28-0.07,0.44l-1.17,5.37c-0.16,0.68-0.37,1.14-0.61,1.37
			c-0.24,0.23-0.72,0.34-1.44,0.34h-10.15l1.37-6.39h-7.42l-5.12,24.16h7.41l2.59-12.3h10.68c0.91,0,1.37,0.26,1.37,0.78
			c0,0.1-0.01,0.2-0.02,0.32c-0.02,0.11-0.04,0.25-0.07,0.42l-2.24,10.79h7.4l2.39-11.47c0.06-0.2,0.1-0.38,0.1-0.56s0-0.35,0-0.51
			c0-1.04-0.36-1.76-1.07-2.17c-0.72-0.41-1.59-0.64-2.63-0.71c1.14-0.13,2.18-0.54,3.12-1.24c0.94-0.7,1.59-1.89,1.95-3.59
			l1.51-7.17c0.06-0.36,0.12-0.7,0.17-1.02c0.05-0.33,0.07-0.63,0.07-0.93c0-1.24-0.37-2.15-1.12-2.76
			C191.58,13.5,190.36,13.2,188.67,13.2L188.67,13.2z"/>
	</g>
	<g>
		<polygon class="st1" points="200.36,46.11 207.37,12.93 197.37,12.93 199.02,5.06 228.09,5.06 226.44,12.93 216.38,12.93 
			209.37,46.11 		"/>
		<path d="M227.94,5.19l-1.6,7.61h-9.86h-0.2l-0.04,0.2l-6.97,32.99h-8.76l6.95-32.88l0.06-0.3h-0.31h-9.69l1.6-7.61h28.82
			 M228.25,4.94h-29.33l-1.71,8.11h10l-7.01,33.19h9.27l7.01-33.19h10.06L228.25,4.94L228.25,4.94z"/>
	</g>
	<g>
		<path class="st1" d="M226.18,46.11l6.35-29.95h9.31l-1.46,6.71h15.18l-1.35,6.34h-15.18l-1.88,8.91h21.04l-1.65,7.99H226.18z
			 M233.19,12.86l1.65-7.8h30.35l-1.65,7.8H233.19z"/>
		<path d="M265.04,5.19l-1.6,7.55h-30.1l1.6-7.55H265.04 M241.69,16.29l-1.4,6.41l-0.07,0.3h0.31h14.87l-1.3,6.09h-14.98h-0.2
			l-0.04,0.2l-1.83,8.66l-0.06,0.3h0.31h20.73l-1.6,7.74h-30.1l6.3-29.7L241.69,16.29 M265.35,4.94h-30.61l-1.71,8.05h30.61
			L265.35,4.94L265.35,4.94z M242,16.04h-9.57l-6.4,30.2h30.61l1.71-8.24h-21.04l1.83-8.66h15.18l1.4-6.59h-15.18L242,16.04
			L242,16.04z"/>
	</g>
	<g>
		<path class="st1" d="M273.11,46.11c-2.03,0-3.5-0.36-4.37-1.07c-0.86-0.7-1.3-1.82-1.3-3.32c0-0.4,0.02-0.82,0.06-1.24
			c0.04-0.42,0.12-0.89,0.24-1.42l5.67-26.91c0.52-2.4,1.42-4.21,2.68-5.36c1.25-1.15,3.18-1.74,5.74-1.74h23.08l-1.66,7.99h-18.56
			c-1.02,0-1.69,0.16-2.06,0.49s-0.65,0.96-0.86,1.93l-4.33,20.13c-0.04,0.21-0.07,0.38-0.09,0.53c-0.02,0.15-0.03,0.3-0.03,0.47
			c0,0.49,0.16,0.85,0.48,1.08c0.31,0.22,0.85,0.33,1.66,0.33h18.63l-1.72,8.11C296.37,46.11,273.11,46.11,273.11,46.11z"/>
		<path d="M304.75,5.19l-1.6,7.74H284.7c-1.05,0-1.75,0.17-2.15,0.52c-0.39,0.34-0.69,1-0.9,2l-4.33,20.13
			c-0.04,0.21-0.07,0.39-0.09,0.53c-0.02,0.15-0.03,0.31-0.03,0.49c0,0.53,0.18,0.93,0.53,1.18c0.33,0.24,0.9,0.35,1.73,0.35h18.47
			l-1.66,7.86h-23.15c-2,0-3.45-0.35-4.29-1.04c-0.83-0.68-1.25-1.76-1.25-3.22c0-0.4,0.02-0.81,0.06-1.23
			c0.04-0.41,0.12-0.88,0.24-1.41l5.67-26.9c0.51-2.38,1.4-4.16,2.64-5.3c1.23-1.13,3.13-1.7,5.65-1.7L304.75,5.19 M305.06,4.94
			h-23.23c-2.6,0-4.54,0.59-5.82,1.77s-2.19,2.99-2.71,5.43l-5.67,26.9c-0.12,0.53-0.2,1.01-0.24,1.43
			c-0.04,0.43-0.06,0.84-0.06,1.25c0,1.55,0.45,2.68,1.34,3.42c0.89,0.73,2.38,1.1,4.45,1.1h23.35l1.77-8.36h-18.78
			c-0.77,0-1.3-0.1-1.59-0.31c-0.28-0.2-0.43-0.53-0.43-0.98c0-0.16,0.01-0.31,0.03-0.46c0.02-0.14,0.05-0.31,0.09-0.52l4.33-20.13
			c0.2-0.93,0.48-1.56,0.82-1.86c0.34-0.31,1.01-0.46,1.98-0.46h18.66L305.06,4.94L305.06,4.94z"/>
	</g>
	<g>
		<polygon class="st1" points="331.15,46.11 334.75,29.03 318.33,29.03 314.73,46.11 305.72,46.11 314.39,5.06 323.4,5.06 
			319.92,21.53 336.34,21.53 339.81,5.06 348.83,5.06 340.16,46.11 		"/>
		<path d="M348.67,5.19l-8.61,40.8h-8.76l3.54-16.78l0.06-0.3h-0.31h-16.16h-0.2l-0.04,0.2l-3.56,16.88h-8.76l8.61-40.8h8.76
			l-3.41,16.17l-0.06,0.3h0.31h16.16h0.2l0.04-0.2l3.43-16.27L348.67,5.19 M348.98,4.94h-9.27l-3.48,16.47h-16.16l3.48-16.47h-9.27
			l-8.72,41.3h9.28l3.6-17.08h16.16L331,46.24h9.27L348.98,4.94L348.98,4.94z"/>
	</g>
	<path class="st2" d="M356.82,1.38c1.96,0,3.56,1.6,3.56,3.56s-1.6,3.56-3.56,3.56s-3.56-1.6-3.56-3.56S354.86,1.38,356.82,1.38
		 M356.82,0.72c-2.33,0-4.21,1.89-4.21,4.22s1.89,4.22,4.21,4.22c2.33,0,4.21-1.89,4.21-4.22S359.15,0.72,356.82,0.72L356.82,0.72z"
		/>
	<g>
		<g>
			<polygon class="st3" points="354.93,6.47 354.93,3.58 353.94,3.58 353.94,3.48 356.09,3.48 356.09,3.58 355.1,3.58 355.1,6.47 
							"/>
			<polygon points="356.21,3.35 353.82,3.35 353.82,3.71 354.8,3.71 354.8,6.59 355.22,6.59 355.22,3.71 356.21,3.71 			"/>
		</g>
		<g>
			<path class="st3" d="M359.5,6.47l-0.07-1.3c-0.02-0.45-0.05-0.99-0.05-1.39V3.65h-0.22l-0.04,0.09
				c-0.12,0.37-0.24,0.78-0.41,1.22l-0.54,1.49h-0.14l-0.5-1.46c-0.15-0.46-0.28-0.87-0.37-1.25l-0.02-0.1h-0.22l-0.01,0.12
				c-0.01,0.4-0.03,0.94-0.06,1.43l-0.08,1.27h-0.15l0.21-2.99h0.33l0.52,1.48c0.13,0.39,0.24,0.75,0.32,1.08l0.02,0.09h0.19
				l0.03-0.09c0.08-0.32,0.2-0.68,0.34-1.08l0.54-1.48h0.33l0.19,2.99L359.5,6.47L359.5,6.47z"/>
			<path d="M358.11,6.26v0.01V6.26L358.11,6.26 M359.59,3.35h-0.53l-0.58,1.57c-0.14,0.41-0.26,0.76-0.35,1.09h-0.01
				c-0.09-0.34-0.19-0.69-0.33-1.09l-0.55-1.57h-0.53l-0.23,3.24h0.4l0.09-1.39c0.03-0.49,0.05-1.03,0.06-1.43h0.01
				c0.09,0.38,0.22,0.8,0.37,1.26l0.53,1.54h0.32L358.83,5c0.16-0.45,0.29-0.86,0.41-1.23h0.01c0,0.4,0.03,0.95,0.05,1.4l0.08,1.42
				h0.41L359.59,3.35L359.59,3.35z"/>
		</g>
	</g>
</g>
<g id="ECU_Tuning_Technology">
	<g transform="translate(-370, 40)">
		<g>
			<polygon class="st3" points="371.91,31.03 371.91,20.16 379.33,20.16 379.33,21.16 373.14,21.16 373.14,24.94 378.91,24.94 
				378.91,25.94 373.14,25.94 373.14,30.03 379.38,30.03 379.38,31.03 			"/>
			<path d="M379.21,20.29v0.75h-5.94h-0.25v0.25v3.53v0.25h0.25h5.52v0.75h-5.52h-0.25v0.25v3.85v0.25h0.25h5.99v0.75h-7.22V20.29
				H379.21 M379.46,20.04h-7.67v11.12h7.72v-1.25h-6.24v-3.85h5.77v-1.24h-5.77v-3.53h6.19V20.04L379.46,20.04z"/>
		</g>
		<g>
			<path class="st3" d="M388.7,31.28c-0.84,0-1.58-0.15-2.21-0.43c-0.62-0.29-1.15-0.69-1.56-1.19s-0.73-1.11-0.93-1.79
				c-0.21-0.69-0.31-1.44-0.31-2.24c0-0.79,0.11-1.55,0.34-2.24c0.22-0.69,0.55-1.3,0.98-1.82c0.43-0.51,0.97-0.92,1.61-1.22
				c0.64-0.3,1.38-0.45,2.21-0.45c0.57,0,1.11,0.08,1.61,0.23s0.96,0.38,1.35,0.67s0.72,0.66,0.98,1.09c0.24,0.4,0.4,0.86,0.49,1.38
				h-1.23c-0.18-0.77-0.56-1.36-1.13-1.75c-0.58-0.41-1.29-0.61-2.09-0.61c-0.68,0-1.27,0.13-1.76,0.39s-0.9,0.59-1.21,1.02
				s-0.55,0.93-0.7,1.48c-0.15,0.55-0.22,1.13-0.22,1.71c0,0.64,0.08,1.25,0.22,1.83c0.15,0.58,0.38,1.09,0.7,1.52
				s0.72,0.78,1.22,1.04c0.49,0.26,1.09,0.39,1.77,0.39c0.5,0,0.96-0.08,1.35-0.25s0.74-0.4,1.02-0.7c0.29-0.3,0.51-0.65,0.67-1.06
				c0.15-0.37,0.24-0.77,0.28-1.2h1.22c-0.16,1.3-0.63,2.33-1.39,3.05C391.18,30.9,390.08,31.28,388.7,31.28z"/>
			<path d="M388.82,20.02c0.55,0,1.09,0.07,1.58,0.22s0.93,0.36,1.31,0.65c0.38,0.28,0.7,0.64,0.95,1.06
				c0.21,0.35,0.36,0.74,0.45,1.19h-0.98c-0.2-0.75-0.58-1.33-1.15-1.73c-0.61-0.42-1.33-0.64-2.16-0.64c-0.7,0-1.31,0.14-1.82,0.4
				c-0.5,0.27-0.93,0.63-1.25,1.08c-0.32,0.44-0.56,0.96-0.72,1.52c-0.15,0.56-0.23,1.15-0.23,1.75c0,0.65,0.08,1.28,0.23,1.86
				c0.15,0.59,0.39,1.12,0.72,1.56c0.33,0.45,0.75,0.81,1.26,1.08s1.13,0.4,1.83,0.4c0.52,0,0.99-0.09,1.4-0.26s0.77-0.42,1.06-0.73
				c0.3-0.31,0.53-0.68,0.7-1.1c0.14-0.35,0.23-0.72,0.28-1.12h0.97c-0.17,1.2-0.62,2.16-1.34,2.84c-0.77,0.73-1.84,1.1-3.19,1.1
				c-0.82,0-1.54-0.14-2.15-0.42s-1.11-0.67-1.51-1.15c-0.4-0.49-0.71-1.08-0.91-1.75c-0.2-0.68-0.31-1.42-0.31-2.2
				s0.11-1.52,0.33-2.2s0.54-1.27,0.96-1.78c0.42-0.5,0.94-0.9,1.56-1.19C387.29,20.17,388.01,20.02,388.82,20.02 M388.82,19.77
				c-0.85,0-1.61,0.15-2.26,0.46c-0.66,0.31-1.21,0.72-1.65,1.25s-0.78,1.15-1,1.86c-0.23,0.71-0.34,1.47-0.34,2.28
				c0,0.81,0.11,1.57,0.32,2.27c0.21,0.71,0.53,1.32,0.96,1.84c0.42,0.52,0.96,0.93,1.6,1.22c0.64,0.3,1.4,0.44,2.26,0.44
				c1.42,0,2.54-0.39,3.36-1.17c0.82-0.78,1.3-1.87,1.45-3.27h-1.48c-0.03,0.46-0.12,0.88-0.28,1.28c-0.16,0.39-0.37,0.73-0.65,1.02
				c-0.27,0.29-0.6,0.51-0.98,0.67s-0.81,0.24-1.3,0.24c-0.66,0-1.23-0.12-1.71-0.37c-0.48-0.25-0.87-0.58-1.17-1
				c-0.31-0.42-0.53-0.91-0.68-1.48s-0.22-1.16-0.22-1.8c0-0.58,0.07-1.14,0.22-1.68c0.14-0.54,0.37-1.02,0.68-1.44
				s0.69-0.75,1.17-1c0.47-0.25,1.04-0.37,1.7-0.37c0.78,0,1.45,0.2,2.01,0.59c0.57,0.39,0.93,0.99,1.1,1.77h1.48
				c-0.08-0.59-0.26-1.11-0.53-1.56c-0.27-0.45-0.61-0.83-1.01-1.13c-0.4-0.3-0.87-0.53-1.38-0.69
				C389.95,19.85,389.41,19.77,388.82,19.77L388.82,19.77z"/>
		</g>
		<g>
			<path class="st3" d="M402.79,31.28c-1.4,0-2.5-0.33-3.27-0.99c-0.77-0.65-1.16-1.71-1.16-3.15v-6.97h1.23v6.97
				c0,1.03,0.28,1.82,0.83,2.35s1.35,0.81,2.37,0.81c0.97,0,1.73-0.27,2.25-0.81c0.51-0.54,0.77-1.33,0.77-2.35v-6.97h1.23v6.97
				c0,1.38-0.37,2.42-1.1,3.11C405.21,30.93,404.15,31.28,402.79,31.28z"/>
			<path d="M406.91,20.29v6.85c0,1.34-0.36,2.36-1.06,3.02c-0.71,0.66-1.74,1-3.07,1c-1.36,0-2.44-0.32-3.19-0.96
				c-0.74-0.63-1.12-1.65-1.12-3.05V20.3h0.98v6.85c0,1.06,0.29,1.88,0.87,2.44c0.57,0.56,1.4,0.84,2.46,0.84
				c1.01,0,1.8-0.29,2.34-0.85s0.81-1.38,0.81-2.44v-6.85L406.91,20.29 M407.16,20.04h-1.48v7.1c0,1-0.25,1.75-0.74,2.27
				c-0.49,0.51-1.21,0.77-2.15,0.77c-1,0-1.76-0.26-2.29-0.77s-0.79-1.27-0.79-2.27v-7.1h-1.48v7.1c0,1.48,0.4,2.57,1.21,3.25
				c0.8,0.68,1.92,1.02,3.35,1.02c1.4,0,2.48-0.36,3.24-1.07c0.76-0.71,1.14-1.78,1.14-3.2L407.16,20.04L407.16,20.04z"/>
		</g>
		<g>
			<polygon class="st3" points="422.72,31.03 422.72,21.16 419.02,21.16 419.02,20.16 427.66,20.16 427.66,21.16 423.95,21.16 
				423.95,31.03 			"/>
			<path d="M427.53,20.29v0.75h-3.45h-0.25v0.25v9.62h-0.98v-9.62v-0.25h-0.25h-3.45v-0.75L427.53,20.29 M427.78,20.04h-8.88v1.25
				h3.7v9.87h1.48v-9.87h3.7L427.78,20.04L427.78,20.04z"/>
		</g>
		<g>
			<path class="st3" d="M436.6,31.28c-1.4,0-2.5-0.33-3.27-0.99c-0.77-0.65-1.16-1.71-1.16-3.15v-6.97h1.23v6.97
				c0,1.03,0.28,1.82,0.83,2.35s1.35,0.81,2.37,0.81c0.97,0,1.73-0.27,2.25-0.81c0.51-0.54,0.77-1.33,0.77-2.35v-6.97h1.22v6.97
				c0,1.38-0.37,2.42-1.1,3.11C439.02,30.93,437.96,31.28,436.6,31.28z"/>
			<path d="M440.72,20.29v6.85c0,1.34-0.36,2.36-1.06,3.02c-0.71,0.66-1.74,1-3.07,1c-1.36,0-2.44-0.32-3.19-0.96
				c-0.74-0.63-1.12-1.65-1.12-3.05V20.3h0.98v6.85c0,1.06,0.29,1.88,0.87,2.44c0.57,0.56,1.4,0.84,2.46,0.84
				c1.01,0,1.8-0.29,2.34-0.85s0.81-1.38,0.81-2.44v-6.85L440.72,20.29 M440.97,20.04h-1.48v7.1c0,1-0.25,1.75-0.74,2.27
				c-0.49,0.51-1.21,0.77-2.15,0.77c-1,0-1.76-0.26-2.29-0.77s-0.79-1.27-0.79-2.27v-7.1h-1.48v7.1c0,1.48,0.4,2.57,1.21,3.25
				c0.8,0.68,1.92,1.02,3.35,1.02c1.4,0,2.48-0.36,3.24-1.07c0.76-0.71,1.14-1.78,1.14-3.2L440.97,20.04L440.97,20.04z"/>
		</g>
		<g>
			<polygon class="st3" points="453.67,31.03 447.86,22.11 447.67,22.11 447.64,22.23 447.64,31.03 446.49,31.03 446.49,20.16 
				447.87,20.16 453.72,29.18 453.91,29.18 453.94,29.05 453.94,20.16 455.09,20.16 455.09,31.03 			"/>
			<path d="M454.97,20.29v10.62h-1.23l-5.73-8.81l-0.11-0.11h-0.14h-0.25v0.25v8.67h-0.9V20.29h1.19l5.78,8.9l0.11,0.11h0.14h0.25
				v-0.25v-8.76H454.97 M455.22,20.04h-1.4v9.01h-0.03l-5.85-9.01h-1.57v11.12h1.4v-8.92h0.03l5.8,8.92h1.62L455.22,20.04
				L455.22,20.04z"/>
		</g>
		<g>
			<rect x="460.81" y="20.16" class="st3" width="1.23" height="10.87"/>
			<path d="M461.91,20.29v10.62h-0.98V20.29H461.91 M462.16,20.04h-1.48v11.12h1.48V20.04L462.16,20.04z"/>
		</g>
		<g>
			<polygon class="st3" points="474.94,31.03 469.13,22.11 468.94,22.11 468.91,22.23 468.91,31.03 467.76,31.03 467.76,20.16 
				469.14,20.16 474.99,29.18 475.18,29.18 475.21,29.05 475.21,20.16 476.36,20.16 476.36,31.03 			"/>
			<path d="M476.24,20.29v10.62h-1.23l-5.73-8.81l-0.11-0.11h-0.14h-0.25v0.25v8.67h-0.9V20.29h1.19l5.78,8.9l0.11,0.11h0.14h0.25
				v-0.25v-8.76H476.24 M476.49,20.04h-1.4v9.01h-0.03l-5.85-9.01h-1.57v11.12h1.4v-8.92h0.03l5.8,8.92h1.62L476.49,20.04
				L476.49,20.04z"/>
		</g>
		<g>
			<path class="st3" d="M486.66,31.28c-0.81,0-1.54-0.15-2.17-0.45c-0.63-0.3-1.18-0.7-1.62-1.21c-0.44-0.5-0.79-1.09-1.02-1.75
				c-0.23-0.66-0.35-1.35-0.35-2.06c0-0.79,0.11-1.56,0.33-2.28c0.22-0.71,0.55-1.35,0.97-1.88c0.43-0.53,0.97-0.96,1.61-1.28
				c0.64-0.32,1.4-0.48,2.25-0.48c0.59,0,1.15,0.07,1.67,0.21c0.52,0.14,0.98,0.35,1.39,0.64c0.41,0.29,0.75,0.66,1.02,1.11
				c0.25,0.41,0.44,0.91,0.54,1.48h-1.23c-0.08-0.4-0.21-0.75-0.4-1.04c-0.21-0.32-0.46-0.58-0.77-0.79
				c-0.3-0.2-0.65-0.36-1.03-0.46c-0.38-0.1-0.79-0.15-1.21-0.15c-0.69,0-1.3,0.14-1.8,0.42s-0.91,0.65-1.22,1.1
				s-0.55,0.97-0.69,1.55c-0.15,0.58-0.22,1.17-0.22,1.77c0,0.59,0.09,1.17,0.25,1.71s0.42,1.04,0.75,1.46
				c0.33,0.42,0.75,0.76,1.23,1.02c0.49,0.25,1.06,0.38,1.7,0.38c0.6,0,1.13-0.1,1.59-0.29s0.85-0.46,1.17-0.8s0.56-0.74,0.72-1.2
				c0.16-0.46,0.23-0.95,0.21-1.47v-0.12h-3.54v-1h4.62v5.6h-0.71l-0.43-1.54l-0.15,0.2c-0.42,0.56-0.95,0.97-1.56,1.21
				C487.94,31.15,487.3,31.28,486.66,31.28z"/>
			<path d="M486.66,20.02c0.58,0,1.13,0.07,1.64,0.2c0.5,0.13,0.96,0.34,1.35,0.62s0.72,0.64,0.99,1.07c0.22,0.36,0.39,0.8,0.5,1.29
				h-0.97c-0.08-0.37-0.22-0.7-0.4-0.98c-0.21-0.33-0.48-0.61-0.8-0.83c-0.31-0.21-0.67-0.37-1.06-0.48
				c-0.39-0.1-0.81-0.16-1.24-0.16c-0.71,0-1.34,0.15-1.86,0.44c-0.51,0.29-0.94,0.67-1.27,1.14c-0.32,0.46-0.56,1-0.71,1.59
				c-0.15,0.58-0.23,1.19-0.23,1.8c0,0.6,0.09,1.19,0.26,1.75s0.43,1.06,0.77,1.5s0.77,0.79,1.27,1.05c0.51,0.26,1.1,0.39,1.76,0.39
				c0.61,0,1.16-0.1,1.64-0.3c0.48-0.2,0.88-0.48,1.21-0.83s0.58-0.77,0.75-1.24s0.24-0.98,0.22-1.52l-0.01-0.24h-0.24h-3.3v-0.75
				h4.37v5.35h-0.49l-0.34-1.2l-0.14-0.49l-0.3,0.41c-0.41,0.54-0.91,0.93-1.51,1.17c-0.61,0.24-1.23,0.36-1.85,0.36
				c-0.79,0-1.5-0.15-2.12-0.44s-1.15-0.69-1.58-1.18s-0.77-1.07-0.99-1.71c-0.23-0.64-0.34-1.32-0.34-2.02
				c0-0.78,0.11-1.53,0.32-2.24c0.21-0.7,0.53-1.32,0.95-1.84s0.94-0.94,1.57-1.25C485.08,20.18,485.82,20.02,486.66,20.02
				 M486.66,19.77c-0.88,0-1.65,0.16-2.31,0.49s-1.21,0.77-1.65,1.32s-0.77,1.19-1,1.92c-0.22,0.73-0.33,1.5-0.33,2.31
				c0,0.73,0.12,1.43,0.36,2.1c0.24,0.68,0.59,1.27,1.04,1.79c0.46,0.52,1.01,0.93,1.66,1.24s1.4,0.46,2.23,0.46
				c0.65,0,1.3-0.13,1.95-0.38c0.64-0.25,1.18-0.67,1.62-1.25l0.39,1.39h0.93v-5.85h-4.87v1.25h3.55c0.02,0.51-0.05,0.98-0.2,1.42
				c-0.16,0.44-0.39,0.83-0.69,1.15c-0.31,0.33-0.68,0.58-1.13,0.77s-0.96,0.28-1.54,0.28c-0.62,0-1.17-0.12-1.64-0.37
				c-0.47-0.24-0.87-0.57-1.19-0.98s-0.57-0.88-0.73-1.42c-0.17-0.53-0.25-1.09-0.25-1.67c0-0.59,0.07-1.17,0.22-1.74
				c0.14-0.57,0.37-1.07,0.68-1.51s0.7-0.8,1.18-1.07c0.48-0.27,1.06-0.4,1.73-0.4c0.42,0,0.81,0.05,1.17,0.15
				c0.37,0.1,0.7,0.25,0.99,0.44c0.29,0.2,0.53,0.45,0.73,0.75c0.2,0.31,0.33,0.67,0.4,1.1h1.48c-0.1-0.65-0.3-1.21-0.58-1.67
				c-0.29-0.46-0.64-0.84-1.06-1.14c-0.42-0.3-0.9-0.52-1.43-0.66S487.26,19.77,486.66,19.77L486.66,19.77z"/>
		</g>
		<g>
			<polygon class="st3" points="506.92,31.03 506.92,21.16 503.22,21.16 503.22,20.16 511.85,20.16 511.85,21.16 508.15,21.16 
				508.15,31.03 			"/>
			<path d="M511.73,20.29v0.75h-3.45h-0.25v0.25v9.62h-0.98v-9.62v-0.25h-0.25h-3.45v-0.75L511.73,20.29 M511.98,20.04h-8.88v1.25
				h3.7v9.87h1.48v-9.87h3.7L511.98,20.04L511.98,20.04z"/>
		</g>
		<g>
			<polygon class="st3" points="516.39,31.03 516.39,20.16 523.81,20.16 523.81,21.16 517.62,21.16 517.62,24.94 523.39,24.94 
				523.39,25.94 517.62,25.94 517.62,30.03 523.86,30.03 523.86,31.03 			"/>
			<path d="M523.69,20.29v0.75h-5.94h-0.25v0.25v3.53v0.25h0.25h5.52v0.75h-5.52h-0.25v0.25v3.85v0.25h0.25h5.99v0.75h-7.22V20.29
				H523.69 M523.94,20.04h-7.67v11.12h7.72v-1.25h-6.24v-3.85h5.77v-1.24h-5.77v-3.53h6.19V20.04L523.94,20.04z"/>
		</g>
		<g>
			<path class="st3" d="M533.18,31.28c-0.84,0-1.58-0.15-2.2-0.43c-0.62-0.29-1.15-0.69-1.56-1.19c-0.41-0.5-0.73-1.11-0.93-1.79
				c-0.21-0.69-0.31-1.44-0.31-2.24c0-0.79,0.11-1.55,0.34-2.24c0.22-0.69,0.55-1.3,0.98-1.82c0.43-0.51,0.97-0.92,1.61-1.22
				s1.38-0.45,2.21-0.45c0.57,0,1.11,0.08,1.61,0.23s0.96,0.38,1.35,0.67c0.39,0.29,0.72,0.66,0.98,1.09
				c0.24,0.4,0.4,0.86,0.49,1.38h-1.23c-0.18-0.77-0.56-1.36-1.13-1.75c-0.58-0.41-1.29-0.61-2.09-0.61c-0.68,0-1.27,0.13-1.76,0.39
				s-0.89,0.61-1.21,1.04c-0.31,0.43-0.55,0.93-0.7,1.48s-0.22,1.12-0.22,1.71c0,0.64,0.07,1.26,0.22,1.83
				c0.15,0.58,0.38,1.09,0.7,1.52c0.32,0.43,0.73,0.79,1.22,1.04c0.49,0.26,1.09,0.39,1.77,0.39c0.5,0,0.96-0.08,1.35-0.25
				c0.39-0.17,0.74-0.4,1.02-0.7c0.29-0.3,0.51-0.65,0.67-1.06c0.15-0.37,0.24-0.77,0.28-1.2h1.22c-0.16,1.3-0.63,2.33-1.39,3.05
				C535.66,30.9,534.56,31.28,533.18,31.28z"/>
			<path d="M533.3,20.02c0.55,0,1.09,0.07,1.58,0.22s0.93,0.36,1.31,0.65c0.38,0.28,0.7,0.64,0.95,1.06
				c0.21,0.35,0.36,0.74,0.45,1.19h-0.98c-0.2-0.75-0.58-1.33-1.15-1.73c-0.61-0.42-1.33-0.64-2.16-0.64c-0.7,0-1.31,0.14-1.82,0.4
				c-0.5,0.27-0.93,0.63-1.25,1.08c-0.32,0.44-0.56,0.96-0.72,1.52c-0.15,0.56-0.23,1.15-0.23,1.75c0,0.65,0.08,1.28,0.23,1.86
				c0.15,0.59,0.39,1.12,0.72,1.56c0.33,0.45,0.75,0.81,1.26,1.08s1.13,0.4,1.83,0.4c0.52,0,0.99-0.09,1.4-0.26
				c0.41-0.17,0.77-0.42,1.06-0.73c0.3-0.31,0.53-0.68,0.7-1.1c0.14-0.35,0.23-0.72,0.28-1.12h0.97c-0.17,1.2-0.62,2.16-1.34,2.84
				c-0.77,0.73-1.84,1.1-3.19,1.1c-0.82,0-1.54-0.14-2.15-0.42s-1.11-0.67-1.51-1.15c-0.4-0.49-0.71-1.08-0.91-1.75
				c-0.2-0.68-0.31-1.42-0.31-2.2s0.11-1.52,0.33-2.2s0.54-1.27,0.96-1.78c0.42-0.5,0.94-0.9,1.56-1.19
				C531.77,20.17,532.49,20.02,533.3,20.02 M533.3,19.77c-0.85,0-1.61,0.15-2.26,0.46c-0.66,0.31-1.21,0.72-1.65,1.25
				c-0.44,0.53-0.78,1.15-1,1.86c-0.23,0.71-0.34,1.47-0.34,2.28c0,0.81,0.11,1.57,0.32,2.27c0.21,0.71,0.53,1.32,0.96,1.84
				c0.42,0.52,0.96,0.93,1.6,1.22c0.64,0.3,1.4,0.44,2.26,0.44c1.42,0,2.54-0.39,3.36-1.17c0.82-0.78,1.3-1.87,1.45-3.27h-1.48
				c-0.03,0.46-0.12,0.88-0.28,1.28c-0.16,0.39-0.37,0.73-0.65,1.02c-0.27,0.29-0.6,0.51-0.98,0.67s-0.81,0.24-1.3,0.24
				c-0.66,0-1.23-0.12-1.71-0.37c-0.48-0.25-0.87-0.58-1.17-1c-0.31-0.42-0.53-0.91-0.68-1.48s-0.22-1.16-0.22-1.8
				c0-0.58,0.07-1.14,0.22-1.68c0.14-0.54,0.37-1.02,0.68-1.44c0.31-0.42,0.69-0.75,1.17-1c0.47-0.25,1.04-0.37,1.7-0.37
				c0.78,0,1.45,0.2,2.01,0.59c0.57,0.39,0.93,0.99,1.1,1.77h1.48c-0.08-0.59-0.26-1.11-0.53-1.56c-0.27-0.45-0.61-0.83-1.01-1.13
				s-0.87-0.53-1.38-0.69C534.43,19.85,533.89,19.77,533.3,19.77L533.3,19.77z"/>
		</g>
		<g>
			<polygon class="st3" points="550.26,31.03 550.26,25.94 544.16,25.94 544.16,31.03 542.94,31.03 542.94,20.16 544.16,20.16 
				544.16,24.94 550.26,24.94 550.26,20.16 551.49,20.16 551.49,31.03 			"/>
			<path d="M551.37,20.29v10.62h-0.98v-4.84v-0.25h-0.25h-5.85h-0.25v0.25v4.84h-0.98V20.29h0.98v4.53v0.25h0.25h5.85h0.25v-0.25
				v-4.53H551.37 M551.62,20.04h-1.48v4.78h-5.85v-4.78h-1.48v11.12h1.48v-5.09h5.85v5.09h1.48V20.04L551.62,20.04z"/>
		</g>
		<g>
			<polygon class="st3" points="564.37,31.03 558.57,22.11 558.38,22.11 558.35,22.23 558.35,31.03 557.2,31.03 557.2,20.16 
				558.58,20.16 564.42,29.18 564.62,29.18 564.65,29.05 564.65,20.16 565.8,20.16 565.8,31.03 			"/>
			<path d="M565.68,20.29v10.62h-1.23l-5.73-8.81l-0.11-0.11h-0.14h-0.25v0.25v8.67h-0.9V20.29h1.19l5.78,8.9l0.11,0.11h0.14h0.25
				v-0.25v-8.76H565.68 M565.93,20.04h-1.4v9.01h-0.03l-5.85-9.01h-1.57v11.12h1.4v-8.92h0.03l5.8,8.92h1.62V20.04L565.93,20.04z"/>
		</g>
		<g>
			<path class="st3" d="M576.09,31.28c-0.86,0-1.62-0.16-2.26-0.46c-0.64-0.31-1.19-0.73-1.62-1.25c-0.43-0.52-0.76-1.14-0.98-1.82
				s-0.33-1.41-0.33-2.15s0.11-1.47,0.33-2.15c0.22-0.68,0.55-1.29,0.98-1.82c0.43-0.52,0.98-0.95,1.62-1.26s1.41-0.47,2.26-0.47
				c0.86,0,1.62,0.16,2.26,0.47c0.65,0.31,1.19,0.74,1.62,1.26c0.43,0.52,0.76,1.14,0.98,1.82s0.33,1.41,0.33,2.15
				s-0.11,1.46-0.33,2.15c-0.22,0.68-0.55,1.3-0.98,1.82c-0.43,0.52-0.98,0.94-1.62,1.25C577.71,31.12,576.95,31.28,576.09,31.28z
				 M576.09,20.89c-0.69,0-1.3,0.14-1.8,0.41s-0.92,0.64-1.24,1.09c-0.32,0.45-0.55,0.95-0.7,1.51c-0.15,0.55-0.22,1.12-0.22,1.69
				s0.07,1.14,0.22,1.69c0.15,0.56,0.39,1.07,0.7,1.51c0.32,0.45,0.74,0.82,1.24,1.09s1.11,0.41,1.8,0.41c0.69,0,1.3-0.14,1.8-0.41
				s0.92-0.64,1.24-1.09c0.32-0.45,0.55-0.95,0.7-1.51s0.22-1.12,0.22-1.69s-0.07-1.13-0.22-1.69c-0.15-0.56-0.39-1.06-0.7-1.51
				c-0.32-0.45-0.74-0.82-1.24-1.09S576.78,20.89,576.09,20.89z"/>
			<path d="M576.09,20.02c0.84,0,1.58,0.15,2.21,0.46c0.63,0.3,1.16,0.72,1.58,1.23c0.42,0.51,0.75,1.11,0.96,1.78
				c0.21,0.67,0.32,1.38,0.32,2.11c0,0.73-0.11,1.44-0.32,2.11c-0.21,0.67-0.53,1.26-0.96,1.78c-0.42,0.51-0.95,0.92-1.58,1.22
				s-1.37,0.45-2.21,0.45c-0.84,0-1.58-0.15-2.21-0.45c-0.63-0.3-1.16-0.71-1.58-1.22s-0.75-1.11-0.96-1.78
				c-0.21-0.67-0.32-1.38-0.32-2.11c0-0.73,0.11-1.44,0.32-2.11c0.21-0.67,0.53-1.26,0.96-1.78c0.42-0.51,0.95-0.92,1.58-1.23
				C574.51,20.18,575.25,20.02,576.09,20.02 M576.09,30.42c0.71,0,1.34-0.14,1.86-0.43c0.52-0.28,0.95-0.66,1.28-1.13
				c0.33-0.46,0.57-0.98,0.72-1.55s0.23-1.14,0.23-1.72s-0.08-1.16-0.23-1.72c-0.15-0.57-0.4-1.09-0.72-1.55
				c-0.33-0.46-0.76-0.84-1.28-1.12s-1.15-0.43-1.86-0.43c-0.71,0-1.34,0.14-1.86,0.43c-0.52,0.28-0.95,0.66-1.28,1.12
				c-0.33,0.46-0.57,0.98-0.72,1.55c-0.15,0.56-0.23,1.14-0.23,1.72s0.08,1.16,0.23,1.72c0.15,0.57,0.4,1.09,0.72,1.55
				c0.33,0.47,0.76,0.84,1.28,1.13C574.75,30.28,575.38,30.42,576.09,30.42 M576.09,19.77c-0.88,0-1.65,0.16-2.32,0.48
				c-0.66,0.32-1.22,0.75-1.66,1.29c-0.45,0.54-0.78,1.16-1,1.86s-0.33,1.43-0.33,2.19s0.11,1.49,0.33,2.19
				c0.22,0.7,0.56,1.32,1,1.86c0.44,0.54,1,0.97,1.66,1.28c0.66,0.32,1.44,0.47,2.32,0.47s1.65-0.16,2.32-0.47
				c0.67-0.31,1.22-0.74,1.66-1.28c0.45-0.54,0.78-1.16,1-1.86s0.33-1.43,0.33-2.19s-0.11-1.49-0.33-2.19s-0.56-1.32-1-1.86
				c-0.45-0.54-1-0.97-1.66-1.29C577.75,19.93,576.97,19.77,576.09,19.77L576.09,19.77z M576.09,30.17c-0.67,0-1.26-0.13-1.74-0.4
				c-0.49-0.26-0.89-0.61-1.2-1.05c-0.31-0.44-0.54-0.93-0.68-1.47c-0.15-0.54-0.22-1.1-0.22-1.66s0.07-1.11,0.22-1.66
				c0.15-0.54,0.37-1.04,0.68-1.47c0.31-0.44,0.71-0.79,1.2-1.05c0.49-0.26,1.07-0.4,1.74-0.4c0.67,0,1.26,0.13,1.74,0.4
				c0.49,0.26,0.89,0.61,1.2,1.05c0.31,0.44,0.54,0.93,0.68,1.47c0.14,0.54,0.22,1.1,0.22,1.66s-0.07,1.11-0.22,1.66
				c-0.15,0.54-0.37,1.04-0.68,1.47c-0.31,0.44-0.71,0.79-1.2,1.05C577.35,30.04,576.77,30.17,576.09,30.17L576.09,30.17z"/>
		</g>
		<g>
			<polygon class="st3" points="586.41,31.03 586.41,20.16 587.64,20.16 587.64,30.03 593.52,30.03 593.52,31.03 			"/>
			<path d="M587.51,20.29v9.62v0.25h0.25h5.63v0.75h-6.86V20.29H587.51 M587.76,20.04h-1.48v11.12h7.36v-1.25h-5.88V20.04
				L587.76,20.04z"/>
		</g>
		<g>
			<path class="st3" d="M602.33,31.28c-0.86,0-1.62-0.16-2.27-0.46c-0.65-0.31-1.19-0.73-1.62-1.25c-0.43-0.52-0.76-1.14-0.98-1.82
				c-0.22-0.69-0.33-1.41-0.33-2.15s0.11-1.46,0.33-2.15c0.22-0.68,0.55-1.29,0.98-1.82c0.43-0.52,0.98-0.95,1.62-1.26
				s1.41-0.47,2.26-0.47c0.86,0,1.62,0.16,2.26,0.47c0.65,0.31,1.19,0.74,1.62,1.26c0.43,0.53,0.76,1.14,0.98,1.82
				c0.22,0.69,0.33,1.41,0.33,2.15s-0.11,1.46-0.33,2.15c-0.22,0.68-0.55,1.29-0.98,1.82c-0.43,0.52-0.98,0.94-1.62,1.25
				C603.95,31.12,603.18,31.28,602.33,31.28z M602.33,20.89c-0.69,0-1.3,0.14-1.8,0.41s-0.92,0.64-1.24,1.09
				c-0.32,0.45-0.55,0.95-0.7,1.51c-0.15,0.55-0.22,1.12-0.22,1.69s0.07,1.14,0.22,1.69c0.15,0.56,0.39,1.07,0.7,1.51
				c0.32,0.45,0.74,0.82,1.24,1.09s1.11,0.41,1.8,0.41c0.69,0,1.3-0.14,1.8-0.41s0.92-0.64,1.24-1.09c0.32-0.44,0.55-0.95,0.7-1.51
				c0.15-0.55,0.22-1.12,0.22-1.69s-0.07-1.14-0.22-1.69c-0.15-0.56-0.39-1.07-0.7-1.51c-0.32-0.45-0.74-0.82-1.24-1.09
				C603.62,21.03,603.02,20.89,602.33,20.89z"/>
			<path d="M602.33,20.02c0.84,0,1.58,0.15,2.21,0.46c0.63,0.3,1.16,0.72,1.58,1.23c0.42,0.51,0.75,1.11,0.96,1.78
				c0.21,0.67,0.32,1.38,0.32,2.11c0,0.73-0.11,1.44-0.32,2.11c-0.21,0.67-0.53,1.26-0.96,1.78c-0.42,0.51-0.95,0.92-1.58,1.22
				s-1.37,0.45-2.21,0.45c-0.84,0-1.58-0.15-2.21-0.45c-0.63-0.3-1.16-0.71-1.58-1.22s-0.75-1.11-0.96-1.78
				c-0.21-0.67-0.32-1.38-0.32-2.11c0-0.73,0.11-1.44,0.32-2.11c0.21-0.67,0.53-1.26,0.96-1.78c0.42-0.51,0.95-0.92,1.58-1.23
				C600.74,20.18,601.49,20.02,602.33,20.02 M602.33,30.42c0.71,0,1.34-0.14,1.86-0.43c0.52-0.28,0.95-0.66,1.28-1.13
				c0.33-0.46,0.57-0.98,0.72-1.55s0.23-1.14,0.23-1.72s-0.08-1.16-0.23-1.72c-0.15-0.57-0.4-1.09-0.72-1.55
				c-0.33-0.46-0.76-0.84-1.28-1.12s-1.15-0.43-1.86-0.43c-0.71,0-1.34,0.14-1.86,0.43c-0.52,0.28-0.95,0.66-1.28,1.12
				c-0.33,0.46-0.57,0.98-0.72,1.55c-0.15,0.56-0.23,1.14-0.23,1.72s0.08,1.16,0.23,1.72c0.15,0.57,0.4,1.09,0.72,1.55
				c0.33,0.47,0.76,0.84,1.28,1.13S601.61,30.42,602.33,30.42 M602.33,19.77c-0.88,0-1.65,0.16-2.32,0.48
				c-0.66,0.32-1.22,0.75-1.66,1.29c-0.45,0.54-0.78,1.16-1,1.86s-0.33,1.43-0.33,2.19s0.11,1.49,0.33,2.19
				c0.22,0.7,0.56,1.32,1,1.86c0.45,0.54,1,0.97,1.66,1.28c0.66,0.31,1.44,0.47,2.32,0.47s1.65-0.16,2.32-0.47
				c0.66-0.32,1.22-0.74,1.66-1.28c0.44-0.54,0.78-1.16,1-1.86s0.33-1.43,0.33-2.19s-0.11-1.49-0.33-2.19s-0.56-1.32-1-1.86
				c-0.45-0.54-1-0.97-1.66-1.29C603.98,19.93,603.21,19.77,602.33,19.77L602.33,19.77z M602.33,30.17c-0.67,0-1.26-0.13-1.74-0.4
				c-0.49-0.26-0.89-0.61-1.2-1.05c-0.31-0.44-0.54-0.93-0.68-1.47c-0.15-0.54-0.22-1.1-0.22-1.66s0.07-1.11,0.22-1.66
				c0.15-0.54,0.37-1.04,0.68-1.47c0.31-0.44,0.71-0.79,1.2-1.05c0.49-0.26,1.07-0.4,1.74-0.4c0.67,0,1.26,0.13,1.74,0.4
				c0.49,0.26,0.89,0.61,1.2,1.05c0.31,0.44,0.54,0.93,0.68,1.47c0.14,0.54,0.22,1.1,0.22,1.66s-0.07,1.11-0.22,1.66
				c-0.15,0.54-0.37,1.04-0.68,1.47c-0.31,0.44-0.71,0.79-1.2,1.05C603.58,30.04,603,30.17,602.33,30.17L602.33,30.17z"/>
		</g>
		<g>
			<path class="st3" d="M617.25,31.28c-0.81,0-1.54-0.15-2.17-0.45c-0.63-0.3-1.18-0.7-1.62-1.21c-0.44-0.5-0.79-1.09-1.02-1.75
				s-0.35-1.35-0.35-2.06c0-0.79,0.11-1.56,0.33-2.28c0.22-0.71,0.54-1.35,0.97-1.88c0.43-0.53,0.97-0.96,1.61-1.28
				c0.64-0.32,1.4-0.48,2.25-0.48c0.59,0,1.15,0.07,1.67,0.21s0.98,0.35,1.39,0.64c0.41,0.29,0.75,0.66,1.02,1.11
				c0.25,0.41,0.44,0.91,0.54,1.48h-1.23c-0.08-0.4-0.21-0.75-0.4-1.04c-0.21-0.32-0.46-0.58-0.77-0.79
				c-0.3-0.2-0.65-0.36-1.03-0.46c-0.38-0.1-0.79-0.15-1.21-0.15c-0.69,0-1.3,0.14-1.8,0.42s-0.91,0.65-1.22,1.1
				c-0.31,0.45-0.55,0.97-0.7,1.55s-0.22,1.17-0.22,1.77c0,0.59,0.09,1.16,0.25,1.71c0.17,0.54,0.42,1.04,0.75,1.46
				c0.33,0.42,0.75,0.76,1.23,1.02c0.49,0.25,1.06,0.38,1.7,0.38c0.6,0,1.13-0.1,1.59-0.29c0.46-0.19,0.85-0.46,1.17-0.8
				c0.32-0.34,0.56-0.74,0.72-1.2c0.16-0.46,0.23-0.95,0.21-1.47v-0.12h-3.54v-1h4.62v5.6h-0.71l-0.43-1.54l-0.15,0.2
				c-0.42,0.56-0.95,0.97-1.56,1.21C618.53,31.15,617.89,31.28,617.25,31.28z"/>
			<path d="M617.25,20.02c0.58,0,1.13,0.07,1.64,0.2c0.5,0.13,0.96,0.34,1.35,0.62c0.39,0.28,0.72,0.64,0.99,1.07
				c0.22,0.36,0.39,0.8,0.5,1.29h-0.97c-0.08-0.37-0.22-0.7-0.4-0.98c-0.21-0.33-0.48-0.61-0.8-0.83c-0.31-0.21-0.67-0.37-1.06-0.48
				c-0.39-0.1-0.81-0.16-1.24-0.16c-0.71,0-1.34,0.15-1.86,0.44c-0.51,0.29-0.94,0.67-1.27,1.14c-0.32,0.46-0.56,1-0.71,1.59
				c-0.15,0.58-0.23,1.19-0.23,1.8c0,0.6,0.09,1.19,0.26,1.75c0.17,0.56,0.43,1.06,0.77,1.5c0.34,0.44,0.77,0.79,1.27,1.05
				c0.51,0.26,1.1,0.39,1.76,0.39c0.61,0,1.16-0.1,1.64-0.3c0.48-0.2,0.88-0.48,1.21-0.83c0.33-0.35,0.58-0.77,0.75-1.24
				c0.17-0.47,0.24-0.98,0.22-1.52l-0.01-0.24h-0.24h-3.3v-0.75h4.37v5.35h-0.49l-0.34-1.2l-0.14-0.49l-0.3,0.41
				c-0.41,0.54-0.91,0.93-1.51,1.17c-0.61,0.24-1.23,0.36-1.85,0.36c-0.79,0-1.5-0.15-2.12-0.44s-1.15-0.69-1.58-1.18
				c-0.43-0.49-0.77-1.07-0.99-1.71c-0.23-0.64-0.34-1.32-0.34-2.02c0-0.78,0.11-1.53,0.32-2.24c0.21-0.7,0.53-1.32,0.95-1.84
				c0.42-0.52,0.94-0.94,1.57-1.25C615.67,20.18,616.41,20.02,617.25,20.02 M617.25,19.77c-0.88,0-1.65,0.16-2.31,0.49
				c-0.66,0.33-1.21,0.77-1.65,1.32c-0.44,0.55-0.77,1.19-1,1.92c-0.22,0.73-0.33,1.5-0.33,2.31c0,0.73,0.12,1.43,0.36,2.1
				c0.24,0.68,0.59,1.27,1.04,1.79c0.46,0.52,1.01,0.93,1.66,1.24c0.65,0.31,1.4,0.46,2.23,0.46c0.65,0,1.3-0.13,1.94-0.38
				s1.18-0.67,1.62-1.25l0.39,1.39h0.93v-5.85h-4.87v1.25h3.55c0.02,0.51-0.05,0.98-0.2,1.42c-0.16,0.44-0.39,0.83-0.69,1.15
				c-0.31,0.33-0.68,0.58-1.13,0.77c-0.45,0.19-0.96,0.28-1.54,0.28c-0.62,0-1.17-0.12-1.64-0.37c-0.47-0.24-0.87-0.57-1.19-0.98
				c-0.32-0.41-0.57-0.88-0.73-1.42c-0.17-0.53-0.25-1.09-0.25-1.67c0-0.59,0.07-1.17,0.22-1.74c0.14-0.57,0.37-1.07,0.68-1.51
				c0.31-0.44,0.7-0.8,1.18-1.07s1.06-0.4,1.73-0.4c0.41,0,0.81,0.05,1.17,0.15c0.37,0.1,0.7,0.25,0.99,0.44
				c0.29,0.2,0.53,0.45,0.73,0.75c0.2,0.31,0.33,0.67,0.4,1.1h1.48c-0.1-0.65-0.3-1.21-0.58-1.67c-0.29-0.46-0.64-0.84-1.06-1.14
				c-0.42-0.3-0.9-0.52-1.43-0.66C618.42,19.84,617.85,19.77,617.25,19.77L617.25,19.77z"/>
		</g>
		<g>
			<polygon class="st3" points="629.92,31.03 629.92,26.61 625.73,20.16 627.19,20.16 630.59,25.57 633.91,20.16 635.29,20.16 
				631.17,26.54 631.15,31.03 			"/>
			<path d="M635.06,20.29l-4,6.18l-0.04,0.06v0.07v4.3h-0.98v-4.3v-0.07L630,26.47l-4.04-6.18h1.16l3.26,5.18l0.21,0.34l0.21-0.34
				l3.18-5.17h1.08 M635.52,20.04h-1.68l-3.25,5.29l-3.33-5.29h-1.76l4.29,6.57v4.55h1.48v-4.55L635.52,20.04L635.52,20.04z"/>
		</g>
	</g>
</g>
</svg>
