<?xml version="1.0" encoding="utf-8"?>
<!-- Generator: Adobe Illustrator 24.0.3, SVG Export Plug-In . SVG Version: 6.00 Build 0)  -->
<svg version="1.1" id="Layer_1" xmlns="http://www.w3.org/2000/svg" xmlns:xlink="http://www.w3.org/1999/xlink" x="0px" y="0px"
	 viewBox="0 0 112.8 120.2" style="enable-background:new 0 0 112.8 120.2;" xml:space="preserve">
<style type="text/css">
	.st0{fill:#FFFFFF;stroke:#333333;stroke-miterlimit:10;}
	.st1{fill:#AF1F24;stroke:#333333;stroke-miterlimit:10;}
</style>
<g id="Ducati">
	<g id="g10" transform="matrix(1.25,0,0,-1.25,0,500.3625)">
		<g id="g12" transform="scale(0.1,0.1)">
			<path id="path14" class="st0" d="M89.5,3907.9c-35.8-17.4-78.4-55.8-78.4-139.8c0-13,1-26.9,3.1-41.4l0.8-6.5
				c5.2-38.5,21.1-156.1,80-279.6c59.4-124.1,114.4-203.2,203.1-292c0.7-0.7,67-66.2,99.9-82.7c23.4-11.7,46.9-12.2,52.9-12.1h-0.7
				h1.5h-0.7c6-0.1,29.5,0.4,52.9,12.1c32.8,16.5,99.2,82.1,99.9,82.7c88.8,88.8,143.8,167.9,203.1,292c59,123.5,74.7,241,80,279.7
				l0.9,6.6c15.6,111.6-32.4,160-75.3,181c-108.6,52.9-230.2,79.8-361.5,79.8C319.6,3987.7,198.1,3960.8,89.5,3907.9"/>
			<path id="path16" class="st1" d="M548,3751.3h20.1l0.1,44.9H568L548,3751.3z M765.1,3703.2H718l25.3,119h47.1L765.1,3703.2z
				 M679.7,3703.2h-47.1l18.5,87h-29.4l6.8,32h105.8l-6.9-32h-29.3L679.7,3703.2z M569.5,3703.2l-0.5,19.1h-34.2l-8.8-19.1h-45.2
				l63.3,119h61.2l13-119H569.5L569.5,3703.2z M426.8,3700.1c-41.7,0-55.6,25.4-47.6,63.2c6.8,37.1,34.2,62.1,74.4,62.1
				c30,0,52.8-12.3,45.5-47.2h-43.2c2.2,13.5-2.1,16.2-7.9,16.2c-12.2,0-15.9-12.5-20.1-31.6c-3.7-18.1-5.7-31.6,6.1-31.6
				c6.1,0,11,3.6,14.4,16.1h44.2C485.6,3714.5,456.3,3700.1,426.8,3700.1 M297.6,3700.1c-35.9,0-53.4,14.4-47.4,43l16.8,79.1h47.2
				l-16.4-77.1c-2-9.4,1.7-13,6.6-13c4.9,0,10.2,3.6,12.2,13l16.4,77.1h47.1l-16.8-79.1C357.2,3714.5,333.5,3700.1,297.6,3700.1
				 M242.4,3761.4c-7.7-35.9-35.8-58.2-72.4-58.2h-58.6l25.2,119h55.9C240.1,3822.2,249.9,3796.7,242.4,3761.4 M798.9,3880.4
				c-114.7,55.9-236.4,76.7-348.1,76.7c-111.6,0-233.3-20.8-347.9-76.7c-40.7-19.8-61.2-57.5-61.2-112.2c0-11.7,1-24,2.8-37.1
				l0.9-6.6c3.6-27.2,12.6-94.6,39.1-175.1c30.4,39.1,151.5,72.3,366.3,83.6c202.6,10.7,347.3,10,391.5,9.4
				c8,37.3,11.9,66.4,14.1,82.1l0.9,6.6C867.9,3806.1,848.2,3856.4,798.9,3880.4 M181.7,3795.2h-4.6l-13.9-64.9h4.7
				c7.5,0,12.6,2.7,16.6,7.5c4.2,5,7,13.4,9.4,24.9c2.5,11.6,3.3,20,1.2,24.9C193.1,3792.4,189.3,3795.2,181.7,3795.2 M610,3582.4
				c-233.7-36.5-346.7-98.3-401.8-156.5c-42.2-44.6-27.5-78.9-16.2-98.6c36.2-56.6,76.1-105.1,127.9-156.9
				c16.6-16.6,69.2-65.6,91.9-77c18.8-9.4,38.3-8.9,39.2-8.9c0.9,0,20.5-0.4,39.2,8.9c22.7,11.4,75.3,60.5,91.9,77
				c86.1,86,139.4,162.9,197.1,283.5c25.3,53.1,42.4,105.1,54,149.8l0.2,0.7C782.3,3603.3,709.4,3597.9,610,3582.4"/>
		</g>
	</g>
</g>
</svg>
