<?xml version="1.0" encoding="utf-8"?>
<!-- Generator: Adobe Illustrator 24.0.3, SVG Export Plug-In . SVG Version: 6.00 Build 0)  -->
<svg version="1.1" xmlns="http://www.w3.org/2000/svg" xmlns:xlink="http://www.w3.org/1999/xlink" x="0px" y="0px"
	 viewBox="0 0 669.6 164" style="enable-background:new 0 0 669.6 164;" xml:space="preserve">
<style type="text/css">
	.st0{display:none;}
	.st1{display:inline;fill:#808285;}
	.st2{fill:#231F20;}
	.st3{fill:#FFFFFF;}
	.st4{fill:#AF1F24;}
	.st5{fill:#F1F2F2;}
</style>
<g id="Layer_2" class="st0">
	<rect class="st1" width="669.6" height="164"/>
</g>
<g id="Layer_1">
	<g id="PowerTECH_7_">
		<g>
			<path class="st2" d="M64,77.5l-5.2,24.4h-17l11.8-55.5h17l-3.7,17.3h23.4c1.4,0,2.4-0.3,3-0.9c0.6-0.6,1-1.8,1.4-3.5l3.2-14.9
				c0.1-0.7,0.2-1.3,0.2-1.6c0-0.8-0.2-1.4-0.7-1.6c-0.5-0.3-1.3-0.4-2.3-0.4H54.7l3.1-14.8h47.5c3.8,0,6.5,0.7,8.2,2
				c1.6,1.3,2.5,3.4,2.5,6.3c0,0.7-0.1,1.5-0.2,2.3c-0.1,0.8-0.2,1.7-0.4,2.6l-5.3,25c-1,4.5-2.6,7.8-4.9,10
				c-2.3,2.2-5.9,3.3-10.8,3.3H64z"/>
			<path class="st3" d="M105.3,26.1c3.8,0,6.5,0.7,8.2,2c1.6,1.3,2.5,3.4,2.5,6.3c0,0.7-0.1,1.5-0.2,2.3c-0.1,0.8-0.2,1.7-0.4,2.6
				l-5.3,25c-1,4.5-2.6,7.8-4.9,10c-2.3,2.2-5.9,3.3-10.8,3.3H64l-5.2,24.4h-17l11.8-55.5h17l-3.7,17.3h23.4c1.4,0,2.4-0.3,3-0.9
				c0.6-0.6,1-1.8,1.4-3.5l3.2-14.9c0.1-0.7,0.2-1.3,0.2-1.6c0-0.8-0.2-1.4-0.7-1.6c-0.5-0.3-1.3-0.4-2.3-0.4H54.7l3.1-14.8H105.3
				 M70.6,46.5L70.6,46.5 M105.3,20.1H57.8h-4.9l-1,4.8l-3.1,14.8l-1.5,7.2h0.1l-11.4,53.8l-1.5,7.2h7.4h17h4.9l1-4.8l4.2-19.7h25.6
				c6.4,0,11.4-1.6,14.9-4.9c3.2-3,5.5-7.4,6.7-13.1l5.3-25l0-0.2l0-0.2c0.2-1,0.3-1.9,0.4-2.7c0.2-1.1,0.2-2.1,0.2-3.2
				c0-5.9-2.5-9.2-4.7-10.9C114.5,21.2,110.6,20.1,105.3,20.1L105.3,20.1z M70.6,40.5L70.6,40.5L70.6,40.5L70.6,40.5z M76.6,46.9
				h14.6l-2.4,10.9H74.3l2.1-10L76.6,46.9L76.6,46.9z M90.5,57.7C90.5,57.7,90.5,57.7,90.5,57.7L90.5,57.7L90.5,57.7z"/>
		</g>
		<g>
			<path class="st2" d="M120.6,101.9c-2.9,0-4.9-0.5-6.2-1.5c-1.3-1-1.9-2.5-1.9-4.6c0-1.1,0.2-2.3,0.5-3.8l7.8-37.1
				c0.7-3.4,2-5.9,3.7-7.5c1.7-1.6,4.4-2.4,8.1-2.4H161c2.9,0,4.9,0.5,6.1,1.5c1.2,1,1.8,2.6,1.8,4.7c0,0.6,0,1.1-0.1,1.8
				c-0.1,0.6-0.2,1.3-0.3,1.9L160.7,92c-0.7,3.4-2,5.9-3.7,7.5s-4.4,2.4-8,2.4H120.6z M154.8,59.4c0.1-0.3,0.1-0.5,0.1-0.8
				c0-0.2,0-0.4,0-0.6c0-1.3-1-1.9-2.9-1.9h-15.9c-1.1,0-1.9,0.2-2.4,0.7c-0.5,0.4-0.9,1.3-1.1,2.6l-6.1,28.3
				c-0.1,0.6-0.2,0.9-0.2,1.1c0,1.2,0.8,1.8,2.4,1.8h15.9c1.3,0,2.3-0.2,2.9-0.7c0.6-0.4,1-1.2,1.2-2.2L154.8,59.4z"/>
			<path class="st3" d="M161,45c2.9,0,4.9,0.5,6.1,1.5c1.2,1,1.8,2.6,1.8,4.7c0,0.6,0,1.1-0.1,1.8c-0.1,0.6-0.2,1.3-0.3,1.9
				L160.7,92c-0.7,3.4-2,5.9-3.7,7.5c-1.8,1.6-4.4,2.4-8,2.4h-28.3c-2.9,0-4.9-0.5-6.2-1.5c-1.3-1-1.9-2.5-1.9-4.6
				c0-1.1,0.2-2.3,0.5-3.8l7.8-37.1c0.7-3.4,2-5.9,3.7-7.5c1.7-1.6,4.4-2.4,8.1-2.4H161 M128.8,90.6h15.9c1.3,0,2.3-0.2,2.9-0.7
				c0.6-0.4,1-1.2,1.2-2.2l6.1-28.3c0.1-0.3,0.1-0.5,0.1-0.8c0-0.2,0-0.4,0-0.6c0-1.3-1-1.9-2.9-1.9h-15.9c-1.1,0-1.9,0.2-2.4,0.7
				c-0.5,0.4-0.9,1.3-1.1,2.6l-6.1,28.3c-0.1,0.6-0.2,0.9-0.2,1.1C126.4,90,127.2,90.6,128.8,90.6 M161,39h-28.3
				c-5.2,0-9.3,1.4-12.2,4.1c-2.6,2.5-4.5,6-5.5,10.6l-7.8,37c-0.4,1.9-0.6,3.6-0.6,5.1c0,5,2.3,7.8,4.1,9.3
				c2.4,1.9,5.6,2.8,9.9,2.8h28.3c5.1,0,9.2-1.4,12.1-4c2.7-2.5,4.5-6,5.5-10.6l7.8-37.1l0-0.1l0-0.1c0.1-0.7,0.2-1.4,0.3-2.1
				c0.1-0.9,0.2-1.7,0.2-2.6c0-5-2.2-7.8-4-9.4C168.5,40,165.3,39,161,39L161,39z M138.2,62.1h9.9l-4.8,22.5h-9.9L138.2,62.1
				L138.2,62.1z"/>
		</g>
		<g>
			<path class="st2" d="M215.4,101.9l-2.1-40.6l-20.7,40.6h-14.3L176.2,45h13.1l0.9,41.7L210.8,45h12.8l1.8,41.6L244.8,45h12.5
				l-27.5,56.9H215.4z"/>
			<path class="st3" d="M257.3,45l-27.5,56.9h-14.4l-2.1-40.6l-20.7,40.6h-14.3L176.2,45h13.1l0.9,41.7L210.8,45h12.8l1.8,41.6
				L244.8,45H257.3 M266.8,39h-9.6h-12.5h-3.8l-1.6,3.5l-9,19.3l-0.7-17.1l-0.2-5.7h-5.8h-12.8h-3.7l-1.7,3.3l-9.8,19.8l-0.4-17.2
				l-0.1-5.9h-5.9h-13.1h-6.2l0.2,6.2l2.2,56.9l0.2,5.8h5.8h14.3h3.7l1.7-3.3L208.5,84l0.9,18.2l0.3,5.7h5.7h14.4h3.8l1.6-3.4
				l27.5-56.9L266.8,39L266.8,39z M257.3,51L257.3,51L257.3,51L257.3,51z"/>
		</g>
		<g>
			<path class="st2" d="M251,101.9l8.8-41.6H273l-2,9.2h20.9l-1.9,9.1h-20.9l-2.5,11.9h29l-2.4,11.3H251z M260.6,56.1L263,45h42.2
				l-2.4,11.1H260.6z"/>
			<path class="st3" d="M305.2,45l-2.4,11.1h-42.2L263,45H305.2 M273,60.3L273,60.3 M273,60.3l-2,9.2h20.9l-1.9,9.1h-20.9l-2.5,11.9
				h29l-2.4,11.3H251l8.8-41.6H273 M291.9,69.6L291.9,69.6 M312.6,39h-7.4H263h-4.9l-1,4.8l-2.4,11.1l-1.5,7.2h0l-8.2,38.6l-1.5,7.2
				h7.4h42.2h4.9l1-4.8l2.4-11.3l1.5-7.2h-7.4h-0.7l1-4.7l1.9-9.1l1.5-7.2h-7.4h0h-13.5l0.3-1.4h24.1h4.9l1-4.8l2.4-11.1L312.6,39
				L312.6,39z M305.2,51L305.2,51L305.2,51L305.2,51z M280.5,54.3L280.5,54.3L280.5,54.3L280.5,54.3z"/>
		</g>
		<g>
			<path class="st2" d="M336.5,101.9l3.9-18.6c0.1-0.3,0.1-0.5,0.1-0.7c0-0.2,0-0.4,0-0.5c0-0.9-0.8-1.3-2.4-1.3h-18.4l-4.5,21.2
				h-12.8l8.8-41.6h12.8l-2.4,11h17.5c1.2,0,2.1-0.2,2.5-0.6c0.4-0.4,0.8-1.2,1.1-2.4l2-9.2c0.1-0.3,0.1-0.5,0.1-0.8
				c0-0.2,0-0.4,0-0.6c0-0.7-0.2-1.1-0.6-1.3c-0.4-0.2-1.1-0.3-2-0.3h-30.2l2.4-11.1h36.1c2.9,0,5,0.5,6.3,1.6
				c1.3,1,1.9,2.6,1.9,4.7c0,0.5,0,1-0.1,1.6c-0.1,0.6-0.2,1.2-0.3,1.8L355.9,67c-0.6,2.9-1.7,5-3.4,6.2c-1.6,1.2-3.4,1.9-5.4,2.1
				c1.8,0.1,3.3,0.5,4.5,1.2c1.2,0.7,1.8,1.9,1.8,3.7c0,0.3,0,0.6,0,0.9c0,0.3-0.1,0.6-0.2,1l-4.1,19.8H336.5z"/>
			<path class="st3" d="M350.7,45c2.9,0,5,0.5,6.3,1.6c1.3,1,1.9,2.6,1.9,4.7c0,0.5,0,1-0.1,1.6c-0.1,0.6-0.2,1.2-0.3,1.8L355.9,67
				c-0.6,2.9-1.7,5-3.4,6.2c-1.6,1.2-3.4,1.9-5.4,2.1c1.8,0.1,3.3,0.5,4.5,1.2s1.8,1.9,1.8,3.7c0,0.3,0,0.6,0,0.9
				c0,0.3-0.1,0.6-0.2,1l-4.1,19.8h-12.8l3.9-18.6c0.1-0.3,0.1-0.5,0.1-0.7c0-0.2,0-0.4,0-0.5c0-0.9-0.8-1.3-2.4-1.3h-18.4
				l-4.5,21.2h-12.8l8.8-41.6h12.8l-2.4,11h17.5c1.2,0,2.1-0.2,2.5-0.6s0.8-1.2,1.1-2.4l2-9.2c0.1-0.3,0.1-0.5,0.1-0.8
				c0-0.2,0-0.4,0-0.6c0-0.7-0.2-1.1-0.6-1.3c-0.4-0.2-1.1-0.3-2-0.3h-30.2l2.4-11.1H350.7 M324.1,60.3L324.1,60.3 M350.7,39h-36.1
				h-4.9l-1,4.8l-2.4,11.1l-1.5,7.2h0.1l-8.2,38.6l-1.5,7.2h7.4h12.8h4.9l1-4.8l3.5-16.4h8.9l-2.9,14l-1.5,7.2h7.4h12.8h4.9l1-4.8
				l4.1-19.5c0.2-0.8,0.3-1.6,0.3-2.4v-0.9c0-1.9-0.4-3.5-1-4.7c1.5-1.9,2.6-4.4,3.2-7.3l2.6-12.4l0-0.1l0-0.1
				c0.1-0.7,0.2-1.3,0.3-1.9c0.1-0.8,0.2-1.7,0.2-2.5c0-5-2.3-7.9-4.2-9.4C358.3,40,355,39,350.7,39L350.7,39z M324.1,54.3
				L324.1,54.3L324.1,54.3L324.1,54.3z M329.9,62.1h8.1l-0.7,3.2h-8.1L329.9,62.1L329.9,62.1z"/>
		</g>
		<g>
			<path class="st4" d="M391.8,101.9h-17l12.9-61h-18.4l3.1-14.9h53.9L423.2,41h-18.5L391.8,101.9z"/>
			<path class="st3" d="M426.3,26.1L423.2,41h-18.5l-12.9,61h-17l12.9-61h-18.4l3.1-14.9H426.3 M433.7,20.1h-7.4h-53.9h-4.9l-1,4.8
				l-3.1,14.9l-1.5,7.2h7.4h11l-11.4,53.7l-1.5,7.2h7.4h17h4.9l1-4.8L409.6,47h13.6h4.9l1-4.8l3.1-14.9L433.7,20.1L433.7,20.1z
				 M426.3,32.1L426.3,32.1L426.3,32.1L426.3,32.1z"/>
		</g>
		<g>
			<path class="st4" d="M419.1,101.9l11.8-55.5h17.6l-2.7,12.3h27.9l-2.6,12.1h-27.9l-3.4,15.9h38.7l-3.1,15.1H419.1z M432,40.9
				l3.1-14.8h56.3l-3.1,14.8H432z"/>
			<path class="st3" d="M491.4,26.1l-3.1,14.8H432l3.1-14.8H491.4 M448.4,46.5L448.4,46.5 M448.4,46.5l-2.7,12.3h27.9l-2.6,12.1
				h-27.9l-3.4,15.9h38.7l-3.1,15.1h-56.3l11.8-55.5H448.4 M473.6,58.8L473.6,58.8 M498.8,20.1h-7.4h-56.3h-4.9l-1,4.8l-3.1,14.8
				l-1.5,7.2h0.1l-11.4,53.8l-1.5,7.2h7.4h56.3h4.9l1-4.8l3.1-15.1l1.5-7.2h-7.4h-31.3l0.8-3.9h23h4.9l1-4.7l2.6-12.1l1.5-7.3h-7.4
				h0h-20.5l1.1-5l0.2-0.9h33.7h4.9l1-4.8l3.1-14.8L498.8,20.1L498.8,20.1z M491.4,32.1L491.4,32.1L491.4,32.1L491.4,32.1z
				 M455.9,40.5L455.9,40.5L455.9,40.5L455.9,40.5z M448.4,52.5L448.4,52.5L448.4,52.5L448.4,52.5z"/>
		</g>
		<g>
			<path class="st4" d="M496.8,101.9c-3.8,0-6.5-0.7-8.2-2c-1.6-1.3-2.5-3.4-2.5-6.3c0-0.7,0-1.5,0.1-2.3c0.1-0.8,0.2-1.7,0.4-2.6
				l10.4-49.4c1-4.5,2.6-7.8,5-10c2.4-2.2,5.9-3.2,10.7-3.2h42.7l-3.1,15.1h-34.3c-1.8,0-3,0.3-3.6,0.8c-0.6,0.6-1.1,1.7-1.5,3.4
				l-8,37c-0.1,0.4-0.1,0.7-0.2,1c0,0.3-0.1,0.5-0.1,0.8c0,0.8,0.3,1.4,0.8,1.8c0.5,0.4,1.5,0.6,2.9,0.6H543l-3.3,15.4H496.8z"/>
			<path class="st3" d="M555.5,26.1L555.5,26.1 M555.5,26.1l-3.1,15.1h-34.3c-1.8,0-3,0.3-3.6,0.8c-0.6,0.6-1.1,1.7-1.5,3.4l-8,37
				c-0.1,0.4-0.1,0.7-0.2,1c0,0.3-0.1,0.5-0.1,0.8c0,0.8,0.3,1.4,0.8,1.8c0.5,0.4,1.5,0.6,2.9,0.6H543l-3.3,15.4h-42.9
				c-3.8,0-6.5-0.7-8.2-2c-1.6-1.3-2.5-3.4-2.5-6.3c0-0.7,0-1.5,0.1-2.3c0.1-0.8,0.2-1.7,0.4-2.6l10.4-49.4c1-4.5,2.6-7.8,5-10
				c2.4-2.2,5.9-3.2,10.7-3.2H555.5 M562.9,20.1h-7.4h-42.7c-6.3,0-11.3,1.6-14.8,4.8c-3.3,3-5.6,7.4-6.8,13.1l-10.4,49.4
				c-0.3,1.2-0.5,2.3-0.6,3.4c-0.1,0.9-0.1,1.9-0.1,2.9c0,5.9,2.5,9.2,4.7,10.9c2.8,2.3,6.7,3.4,12,3.4h42.9h4.9l1-4.8l3.3-15.4
				l1.5-7.2H543h-31.5l7.2-33.4h33.7h4.9l1-4.8l3.1-15.1L562.9,20.1L562.9,20.1z M555.5,20.1L555.5,20.1L555.5,20.1L555.5,20.1z
				 M555.5,32.1L555.5,32.1L555.5,32.1L555.5,32.1z"/>
		</g>
		<g>
			<path class="st4" d="M611.8,101.9h-17l6.6-31.4h-29.7l-6.6,31.4h-17l16-75.9h17l-6.4,30.3h29.7l6.4-30.3h17L611.8,101.9z"/>
			<path class="st3" d="M627.9,26.1l-16,75.9h-17l6.6-31.4h-29.7l-6.6,31.4h-17l16-75.9h17l-6.4,30.3h29.7l6.4-30.3H627.9
				 M581.1,26.1L581.1,26.1 M635.3,20.1h-7.4h-17H606l-1,4.8l-5.4,25.5h-17.4l4.9-23l1.5-7.2h-7.4h0h-17h-4.9l-1,4.8l-16,75.9
				l-1.5,7.2h7.4h17h4.9l1-4.8l5.6-26.6H594l-5.1,24.1l-1.5,7.2h7.4h17h4.9l1-4.8l16-75.9L635.3,20.1L635.3,20.1z M627.9,32.1
				L627.9,32.1L627.9,32.1L627.9,32.1z"/>
		</g>
	</g>
	<g id="ECU_TUNING_TECHNOLOGY_2_">
		<path class="st5" d="M56.6,117.6v2.9H42v8.3h13.6v2.9H42v9h14.7v2.9H38.5v-26.1H56.6z"/>
		<path class="st5" d="M81.7,121.3c-1.3-0.9-2.9-1.4-4.7-1.4c-1.6,0-2.9,0.3-4,0.9c-1.1,0.6-2,1.4-2.7,2.4c-0.7,1-1.3,2.1-1.6,3.4
			c-0.3,1.3-0.5,2.6-0.5,4c0,1.5,0.2,2.9,0.5,4.2c0.3,1.3,0.9,2.5,1.6,3.5c0.7,1,1.6,1.8,2.8,2.4c1.1,0.6,2.5,0.9,4,0.9
			c1.1,0,2.2-0.2,3.1-0.6c0.9-0.4,1.7-0.9,2.3-1.6c0.6-0.7,1.2-1.5,1.5-2.4c0.4-0.9,0.6-1.9,0.7-3H88c-0.3,3.3-1.5,5.9-3.4,7.7
			c-1.9,1.8-4.6,2.7-7.9,2.7c-2,0-3.8-0.3-5.3-1c-1.5-0.7-2.8-1.7-3.8-2.9c-1-1.2-1.8-2.7-2.3-4.3c-0.5-1.7-0.8-3.4-0.8-5.3
			c0-1.9,0.3-3.7,0.8-5.4c0.5-1.7,1.3-3.1,2.4-4.4c1-1.2,2.3-2.2,3.9-2.9c1.6-0.7,3.3-1.1,5.3-1.1c1.4,0,2.7,0.2,3.9,0.5
			c1.2,0.4,2.3,0.9,3.3,1.6c1,0.7,1.7,1.6,2.4,2.7c0.6,1.1,1,2.3,1.2,3.7h-3.5C83.8,123.6,83,122.2,81.7,121.3z"/>
		<path class="st5" d="M115.4,141.8c-1.8,1.7-4.3,2.5-7.6,2.5c-3.4,0-6-0.8-7.9-2.4c-1.9-1.6-2.8-4.1-2.8-7.6v-16.7h3.5v16.7
			c0,2.3,0.6,4.1,1.9,5.3c1.2,1.2,3,1.8,5.4,1.8c2.2,0,3.9-0.6,5.1-1.8c1.2-1.2,1.7-3,1.7-5.3v-16.7h3.5v16.7
			C118.1,137.6,117.2,140.1,115.4,141.8z"/>
		<path class="st5" d="M141,120.5v-2.9h20.9v2.9h-8.7v23.2h-3.5v-23.2H141z"/>
		<path class="st5" d="M187.9,141.8c-1.8,1.7-4.3,2.5-7.6,2.5c-3.4,0-6-0.8-7.9-2.4c-1.9-1.6-2.8-4.1-2.8-7.6v-16.7h3.5v16.7
			c0,2.3,0.6,4.1,1.9,5.3c1.2,1.2,3,1.8,5.4,1.8c2.2,0,3.9-0.6,5.1-1.8c1.2-1.2,1.7-3,1.7-5.3v-16.7h3.5v16.7
			C190.6,137.6,189.7,140.1,187.9,141.8z"/>
		<path class="st5" d="M204.8,117.6l13.8,21.2h0.1v-21.2h3.3v26.1h-3.8l-13.7-21h-0.1v21h-3.3v-26.1H204.8z"/>
		<path class="st5" d="M236.1,117.6v26.1h-3.5v-26.1H236.1z"/>
		<path class="st5" d="M250.6,117.6l13.8,21.2h0.1v-21.2h3.3v26.1h-3.8l-13.7-21h-0.1v21h-3.3v-26.1H250.6z"/>
		<path class="st5" d="M294,143.4c-1.5,0.6-3,0.9-4.6,0.9c-2,0-3.7-0.4-5.2-1.1c-1.5-0.7-2.8-1.7-3.9-2.9c-1.1-1.2-1.9-2.6-2.5-4.2
			c-0.6-1.6-0.8-3.2-0.8-4.9c0-1.9,0.3-3.7,0.8-5.4c0.5-1.7,1.3-3.2,2.3-4.5c1-1.3,2.3-2.3,3.9-3.1c1.6-0.8,3.4-1.2,5.4-1.2
			c1.4,0,2.8,0.2,4,0.5c1.3,0.3,2.4,0.8,3.4,1.6c1,0.7,1.8,1.6,2.5,2.7c0.7,1.1,1.1,2.4,1.4,3.9h-3.5c-0.2-1-0.5-1.9-1-2.6
			c-0.5-0.7-1-1.3-1.7-1.8c-0.7-0.5-1.5-0.8-2.3-1c-0.9-0.2-1.8-0.3-2.8-0.3c-1.6,0-2.9,0.3-4.1,1c-1.1,0.6-2.1,1.5-2.8,2.5
			c-0.7,1-1.3,2.2-1.6,3.6c-0.3,1.3-0.5,2.7-0.5,4.1c0,1.4,0.2,2.7,0.6,3.9c0.4,1.3,1,2.4,1.7,3.3s1.7,1.7,2.8,2.3
			c1.1,0.6,2.4,0.9,3.9,0.9c1.4,0,2.6-0.2,3.6-0.7c1-0.4,1.9-1,2.7-1.8c0.7-0.8,1.3-1.7,1.6-2.7c0.4-1,0.5-2.2,0.5-3.4h-8.4V130H301
			v13.8h-2.2l-0.9-3.3C296.8,141.8,295.6,142.8,294,143.4z"/>
		<path class="st5" d="M323.4,120.5v-2.9h20.9v2.9h-8.7v23.2h-3.5v-23.2H323.4z"/>
		<path class="st5" d="M370.2,117.6v2.9h-14.6v8.3h13.6v2.9h-13.6v9h14.7v2.9h-18.2v-26.1H370.2z"/>
		<path class="st5" d="M395.2,121.3c-1.3-0.9-2.9-1.4-4.7-1.4c-1.6,0-2.9,0.3-4,0.9c-1.1,0.6-2,1.4-2.7,2.4c-0.7,1-1.3,2.1-1.6,3.4
			c-0.3,1.3-0.5,2.6-0.5,4c0,1.5,0.2,2.9,0.5,4.2c0.3,1.3,0.9,2.5,1.6,3.5c0.7,1,1.6,1.8,2.8,2.4c1.1,0.6,2.5,0.9,4,0.9
			c1.1,0,2.2-0.2,3.1-0.6c0.9-0.4,1.7-0.9,2.3-1.6c0.6-0.7,1.2-1.5,1.5-2.4c0.4-0.9,0.6-1.9,0.7-3h3.5c-0.3,3.3-1.5,5.9-3.4,7.7
			c-1.9,1.8-4.6,2.7-7.9,2.7c-2,0-3.8-0.3-5.3-1c-1.5-0.7-2.8-1.7-3.8-2.9c-1-1.2-1.8-2.7-2.3-4.3c-0.5-1.7-0.8-3.4-0.8-5.3
			c0-1.9,0.3-3.7,0.8-5.4c0.5-1.7,1.3-3.1,2.4-4.4c1-1.2,2.3-2.2,3.9-2.9c1.6-0.7,3.3-1.1,5.3-1.1c1.4,0,2.7,0.2,3.9,0.5
			c1.2,0.4,2.3,0.9,3.3,1.6c1,0.7,1.7,1.6,2.4,2.7c0.6,1.1,1,2.3,1.2,3.7h-3.5C397.4,123.6,396.6,122.2,395.2,121.3z"/>
		<path class="st5" d="M414.3,117.6v11.2h13.8v-11.2h3.5v26.1h-3.5v-12h-13.8v12h-3.5v-26.1H414.3z"/>
		<path class="st5" d="M445.9,117.6l13.8,21.2h0.1v-21.2h3.3v26.1h-3.8l-13.7-21h-0.1v21h-3.3v-26.1H445.9z"/>
		<path class="st5" d="M472.9,125.5c0.5-1.6,1.3-3.1,2.4-4.4c1-1.3,2.4-2.3,3.9-3c1.6-0.8,3.4-1.1,5.5-1.1c2.1,0,3.9,0.4,5.5,1.1
			c1.6,0.8,2.9,1.8,3.9,3c1,1.3,1.8,2.7,2.4,4.4c0.5,1.6,0.8,3.4,0.8,5.1c0,1.8-0.3,3.5-0.8,5.1c-0.5,1.6-1.3,3.1-2.4,4.4
			c-1.1,1.3-2.4,2.3-3.9,3c-1.6,0.7-3.4,1.1-5.5,1.1c-2.1,0-3.9-0.4-5.5-1.1c-1.6-0.7-2.9-1.8-3.9-3c-1-1.3-1.8-2.7-2.4-4.4
			c-0.5-1.6-0.8-3.4-0.8-5.1C472.1,128.9,472.4,127.2,472.9,125.5z M476.1,134.5c0.3,1.3,0.9,2.4,1.6,3.5c0.7,1,1.7,1.8,2.8,2.5
			c1.1,0.6,2.5,0.9,4.1,0.9c1.6,0,3-0.3,4.1-0.9c1.1-0.6,2.1-1.4,2.8-2.5c0.7-1,1.3-2.2,1.6-3.5c0.3-1.3,0.5-2.6,0.5-3.9
			s-0.2-2.6-0.5-3.9c-0.3-1.3-0.9-2.4-1.6-3.5c-0.7-1-1.7-1.8-2.8-2.5c-1.1-0.6-2.5-0.9-4.1-0.9c-1.6,0-3,0.3-4.1,0.9
			c-1.1,0.6-2.1,1.4-2.8,2.5c-0.7,1-1.3,2.2-1.6,3.5c-0.3,1.3-0.5,2.6-0.5,3.9S475.8,133.3,476.1,134.5z"/>
		<path class="st5" d="M509.8,117.6v23.2h13.8v2.9h-17.3v-26.1H509.8z"/>
		<path class="st5" d="M531,125.5c0.5-1.6,1.3-3.1,2.4-4.4c1-1.3,2.4-2.3,3.9-3c1.6-0.8,3.4-1.1,5.5-1.1c2.1,0,3.9,0.4,5.5,1.1
			c1.6,0.8,2.9,1.8,3.9,3c1,1.3,1.8,2.7,2.4,4.4c0.5,1.6,0.8,3.4,0.8,5.1c0,1.8-0.3,3.5-0.8,5.1c-0.5,1.6-1.3,3.1-2.4,4.4
			c-1.1,1.3-2.4,2.3-3.9,3c-1.6,0.7-3.4,1.1-5.5,1.1c-2.1,0-3.9-0.4-5.5-1.1c-1.6-0.7-2.9-1.8-3.9-3s-1.8-2.7-2.4-4.4
			c-0.5-1.6-0.8-3.4-0.8-5.1C530.2,128.9,530.5,127.2,531,125.5z M534.2,134.5c0.3,1.3,0.9,2.4,1.6,3.5c0.7,1,1.7,1.8,2.8,2.5
			c1.1,0.6,2.5,0.9,4.1,0.9c1.6,0,3-0.3,4.1-0.9s2.1-1.4,2.8-2.5c0.7-1,1.3-2.2,1.6-3.5c0.3-1.3,0.5-2.6,0.5-3.9s-0.2-2.6-0.5-3.9
			c-0.3-1.3-0.9-2.4-1.6-3.5c-0.7-1-1.7-1.8-2.8-2.5c-1.1-0.6-2.5-0.9-4.1-0.9c-1.6,0-3,0.3-4.1,0.9c-1.1,0.6-2.1,1.4-2.8,2.5
			c-0.7,1-1.3,2.2-1.6,3.5c-0.3,1.3-0.5,2.6-0.5,3.9S533.9,133.3,534.2,134.5z"/>
		<path class="st5" d="M580.2,143.4c-1.5,0.6-3,0.9-4.6,0.9c-2,0-3.7-0.4-5.2-1.1c-1.5-0.7-2.8-1.7-3.9-2.9
			c-1.1-1.2-1.9-2.6-2.5-4.2c-0.6-1.6-0.8-3.2-0.8-4.9c0-1.9,0.3-3.7,0.8-5.4c0.5-1.7,1.3-3.2,2.3-4.5c1-1.3,2.3-2.3,3.9-3.1
			c1.6-0.8,3.4-1.2,5.4-1.2c1.4,0,2.8,0.2,4,0.5c1.3,0.3,2.4,0.8,3.4,1.6c1,0.7,1.8,1.6,2.5,2.7c0.7,1.1,1.1,2.4,1.4,3.9h-3.5
			c-0.2-1-0.5-1.9-1-2.6c-0.5-0.7-1-1.3-1.7-1.8c-0.7-0.5-1.5-0.8-2.3-1c-0.9-0.2-1.8-0.3-2.8-0.3c-1.6,0-2.9,0.3-4.1,1
			c-1.1,0.6-2.1,1.5-2.8,2.5c-0.7,1-1.3,2.2-1.6,3.6c-0.3,1.3-0.5,2.7-0.5,4.1c0,1.4,0.2,2.7,0.6,3.9c0.4,1.3,1,2.4,1.7,3.3
			s1.7,1.7,2.8,2.3c1.1,0.6,2.4,0.9,3.9,0.9c1.4,0,2.6-0.2,3.6-0.7c1-0.4,1.9-1,2.7-1.8c0.7-0.8,1.3-1.7,1.6-2.7
			c0.4-1,0.5-2.2,0.5-3.4h-8.4V130h11.5v13.8h-2.2l-0.9-3.3C583,141.8,581.7,142.8,580.2,143.4z"/>
		<path class="st5" d="M608,143.7h-3.5V133l-10.1-15.5h4.1l7.8,12.5l7.7-12.5h4L608,133V143.7z"/>
	</g>
</g>
</svg>
