<?xml version="1.0" encoding="utf-8"?>
<!-- Generator: Adobe Illustrator 24.0.3, SVG Export Plug-In . SVG Version: 6.00 Build 0)  -->
<svg version="1.1" id="Layer_1" xmlns="http://www.w3.org/2000/svg" xmlns:xlink="http://www.w3.org/1999/xlink" x="0px" y="0px"
	 viewBox="0 0 220 110" style="enable-background:new 0 0 220 110;" xml:space="preserve">
<style type="text/css">
	.st0{fill:#EC472F;}
	.st1{fill:#FFFFFF;}
</style>
<g>
	<rect class="st0" width="220" height="110"/>
	<path class="st1" d="M56.5,66.6c0,2.7,0.2,7.2,0.6,9.8h-8.6c-0.3-1.2-0.6-3.5-0.6-5.2c-1.7,3.5-5.8,5.9-12.2,5.9
		C25.3,77,21.8,70.8,21.8,65c0-6.7,4.9-12.9,19.7-12.9c1.7,0,3.5,0,5.5,0v-3.2c0-3.4-1.1-5.4-6.8-5.4c-5.3,0-6.8,1.5-7.3,5.4h-9.4
		C24,42,28,36,40.4,36c9.6,0,16.1,3.3,16.1,12.8V66.6z M47.3,58.1c-1.6,0-3.4,0-5.7,0c-8.5,0-10.1,3.2-10.1,6.2c0,3.1,2,5.7,6.6,5.7
		c7.2,0,9.1-4.5,9.1-11.1V58.1z"/>
	<path class="st1" d="M69.7,72.5v19.3h-9.5V48.3c0-5.4,0.1-9-0.1-11.5h9.4c0.1,1.3,0.2,3.6,0.3,5.6C71.3,39.1,75,36,82,36
		c8.8,0,15.7,6.5,15.7,20.1c0,13-7.6,21-17.6,21C74.6,77,71.3,75.1,69.7,72.5z M87.7,55.7c0-8.5-3.5-12.3-8.8-12.3
		c-6.9,0-9,4.1-9,12.7c0,7.7,1.8,12.5,8.6,12.5C84.4,68.6,87.7,64.1,87.7,55.7z"/>
	<path class="st1" d="M100.3,50.2c0-6.4,0-10.9-0.2-13.4h9.5c0.2,1.8,0.2,4.3,0.2,7.3c1.5-3.9,4.6-7.9,11.6-8v9.8
		c-8.4,0-11.5,6.1-11.5,15v15.4h-9.7V50.2z"/>
	<path class="st1" d="M124.8,21.7h9.1v9.2h-9.1V21.7z M124.8,35.3h9.1v41h-9.1V35.3z"/>
	<path class="st1" d="M137.3,76.3v-56h9.7v56H137.3z"/>
	<path class="st1" d="M150.2,21.7h9.9v9.2h-9.9V21.7z M150.2,36.7h9.9v39.6h-9.9V36.7z"/>
	<path class="st1" d="M198.1,66.6c0,2.7,0.2,7.2,0.6,9.8h-8.6c-0.3-1.2-0.6-3.5-0.6-5.2c-1.7,3.5-5.8,5.9-12.2,5.9
		c-10.4,0-13.9-6.2-13.9-12.1c0-6.7,4.9-12.9,19.7-12.9c1.7,0,3.5,0,5.5,0v-3.2c0-3.4-1.1-5.4-6.8-5.4c-5.3,0-6.8,1.5-7.3,5.4h-9.4
		C165.6,42,169.6,36,182,36c9.6,0,16.1,3.3,16.1,12.8V66.6z M188.9,58.1c-1.6,0-3.4,0-5.7,0c-8.5,0-10.1,3.2-10.1,6.2
		c0,3.1,2,5.7,6.6,5.7c7.2,0,9.1-4.5,9.1-11.1V58.1z"/>
	<path class="st1" d="M202.8,28v2.7h-1.1v-6.3h2.5c1.2,0,2,0.6,2,1.7c0,0.9-0.5,1.3-1,1.5c0.6,0.2,0.9,0.7,0.9,1.5v0.1
		c0,0.6,0,1.1,0.1,1.5h-1.1c-0.1-0.3-0.1-0.7-0.1-1.5v-0.2c0-0.8-0.3-1.1-1.2-1.1H202.8z M202.8,27.1h1c0.7,0,1.2-0.2,1.2-1
		c0-0.6-0.4-0.9-1-0.9h-1.2V27.1z"/>
	<path class="st1" d="M203.8,34c-3.6,0-6.5-2.9-6.5-6.5c0-3.6,2.9-6.5,6.5-6.5s6.5,2.9,6.5,6.5C210.3,31.1,207.4,34,203.8,34z
		 M203.8,22.3c-2.9,0-5.3,2.4-5.3,5.3s2.4,5.3,5.3,5.3s5.3-2.4,5.3-5.3S206.7,22.3,203.8,22.3z"/>
</g>
</svg>
