<?xml version="1.0" encoding="utf-8"?>
<!-- Generator: Adobe Illustrator 24.0.3, SVG Export Plug-In . SVG Version: 6.00 Build 0)  -->
<svg version="1.1" id="Layer_1" xmlns="http://www.w3.org/2000/svg" xmlns:xlink="http://www.w3.org/1999/xlink" x="0px" y="0px"
	 viewBox="0 0 146.5 118.2" style="enable-background:new 0 0 146.5 118.2;" xml:space="preserve">
<style type="text/css">
	.st0{fill-rule:evenodd;clip-rule:evenodd;fill:#ED2224;stroke:#333333;stroke-width:0.25;stroke-miterlimit:10;}
</style>
<g>
	<path class="st0" d="M144.8,115.9c-4.6,0-9.2,0-13.9,0c0-0.7,0-1.4,0-2.1c0.5-0.1,1-0.1,1.5-0.2c0.6-0.1,1.4-0.2,1.2-0.9
		c-0.2-0.6-0.8-1.6-1.3-1.7c-3.1-0.2-6.1-0.2-9.2,0c-0.5,0-1.1,1-1.3,1.7c-0.2,0.7,0.6,0.8,1.2,0.9c0.5,0.1,0.9,0.1,1.4,0.2
		c0,0.7,0,1.4,0,2.1c-3.4,0-6.8,0-10.2,0c0-0.7,0-1.4,0-2c0.1-0.1,0.1-0.1,0.1-0.1c2.1,0.2,3.2-1.1,4.2-2.8c1.3-2.3,2.8-4.5,4.1-6.8
		c0.8-1.3,0.5-1.8-1.1-2c-0.7-0.1-1.3-0.2-2-0.2c0-0.7,0-1.4,0-2.1c0.9,0,1.8,0,2.7,0c3,0,5.9,0,8.9,0c1.1,0,1.9,0.4,2.5,1.3
		c2.2,3.5,4.6,6.8,6.7,10.3c1.1,1.8,2.5,2.4,4.4,2.3C144.8,114.4,144.8,115.1,144.8,115.9z M124.5,108c2.2,0,4.2,0,6.3,0
		c-1.1-1.7-2.1-3.3-3.3-5C126.5,104.7,125.5,106.3,124.5,108z"/>
	<path class="st0" d="M88.8,115.8c0-0.7,0-1.4,0-2.1c0.6-0.1,1.2-0.2,1.8-0.2c0.9-0.1,1.4-0.5,1.4-1.4c0-2.9,0-5.8,0-8.7
		c0-0.8-0.4-1.2-1.2-1.3c-0.6,0-1.1-0.1-1.7-0.2c0-0.7,0-1.4,0-2.1c0.3,0,0.6-0.1,0.9-0.1c5,0,10-0.1,15,0c1.9,0.1,3.8,0.4,5.6,1
		c3.1,1.1,4.8,3.7,4.8,7c0,3.3-1.6,5.9-4.8,7c-1.6,0.6-3.3,1-5,1c-5.5,0.1-10.9,0.1-16.4,0.1C89.1,115.8,89,115.8,88.8,115.8z
		 M98.3,112.7c2.3,0,4.5,0.1,6.7,0c1.5-0.1,2.6-1,2.8-2.5c0.2-1.5,0.2-3.1,0-4.7c-0.1-1.3-1-2.3-2.3-2.4c-2.4-0.2-4.7-0.3-7.1-0.4
		C98.3,106.2,98.3,109.4,98.3,112.7z"/>
	<path class="st0" d="M69.5,113.7c0,0.7,0,1.4,0,2.1c-3.4,0-6.7,0-10.1,0c0-0.7,0-1.4,0-2.1c0.6-0.1,1.3-0.2,1.9-0.2
		c0.8-0.1,1.2-0.5,1.2-1.3c0-2.9,0-5.8,0-8.7c0-0.9-0.5-1.3-1.3-1.4c-0.6-0.1-1.2-0.1-1.8-0.2c0-0.7,0-1.4,0-2.1c0.4,0,0.8,0,1.2,0
		c3.2,0,6.3,0,9.5,0c1,0,1.6,0.3,2.2,1.1c2.5,3.3,5,6.6,7.4,9.8c0.2,0.3,0.4,0.5,0.7,1c0.1-0.4,0.1-0.7,0.1-0.9c0-2.2,0-4.4,0-6.6
		c0-1.6-0.2-1.9-1.9-2.1c-0.4,0-0.8-0.1-1.3-0.2c0-0.7,0-1.3,0-2c3.3,0,6.7,0,10.1,0c0,0.7,0,1.3,0,2.1c-0.5,0.1-1.1,0.2-1.6,0.2
		c-1.3,0.1-1.6,0.4-1.6,1.7c0,3.6,0,7.1,0,10.7c0,0.4,0,0.8,0,1.3c-2.9,0-5.6,0.1-8.4,0c-0.5,0-1-0.6-1.4-1
		c-2.5-3.2-4.9-6.4-7.3-9.6c-0.3-0.3-0.5-0.7-0.9-1.2c-0.1,0.4-0.1,0.7-0.1,0.9c0,2.1,0,4.2,0,6.4c0,1.9,0.1,2.1,2,2.3
		C68.6,113.6,69,113.6,69.5,113.7z"/>
	<path class="st0" d="M44.9,116.5c-1.9-0.3-3.9-0.4-5.8-0.9c-1.2-0.3-2.3-0.8-3.3-1.4c-4.9-3-4.8-9.9,0-12.9c1.8-1.1,3.9-1.7,6-1.9
		c3.7-0.4,7.5-0.4,11.1,0.9c4.5,1.6,6.7,5.6,5.3,9.9c-1,3.2-3.5,4.7-6.5,5.4c-1.9,0.5-3.8,0.6-5.8,0.9
		C45.5,116.5,45.2,116.5,44.9,116.5z M45.4,102.2c-0.5,0-1.1,0-1.7,0.1c-2.2,0.3-3.5,1.4-3.9,3.5c-0.4,2.4-0.6,4.9,1.7,6.6
		c0.4,0.3,0.9,0.5,1.4,0.6c1.3,0.1,2.5,0.3,3.8,0.2c2.8-0.2,4.2-1.6,4.5-4.3c0.1-0.9,0.1-1.9-0.1-2.8c-0.4-2.4-1.8-3.6-4.2-3.9
		C46.3,102.2,45.9,102.2,45.4,102.2z"/>
	<path class="st0" d="M2.2,101.9c0-0.7,0-1.4,0-2.1c4.2,0,8.4,0,12.7,0c0,0.7,0,1.3,0,2.1c-0.6,0.1-1.2,0.2-1.8,0.2
		c-0.8,0.1-1.3,0.5-1.3,1.3c0,0.9,0,1.7,0,2.7c3.4,0,6.6,0,10,0c0-0.9,0-1.8,0-2.7c0-0.8-0.5-1.2-1.3-1.3c-0.6-0.1-1.2-0.1-1.9-0.2
		c0-0.7,0-1.3,0-2.1c4.2,0,8.5,0,12.8,0c0,0.7,0,1.3,0,2.1c-0.6,0.1-1.1,0.2-1.7,0.2c-1,0.1-1.5,0.5-1.5,1.5c0,2.8,0,5.6,0,8.4
		c0,0.9,0.4,1.4,1.4,1.5c0.6,0,1.1,0.1,1.8,0.2c0,0.7,0,1.3,0,2.1c-4.2,0-8.4,0-12.7,0c0-0.6,0-1.3,0-2.1c0.6-0.1,1.2-0.2,1.8-0.2
		c0.9-0.1,1.3-0.6,1.3-1.4c0-0.8,0-1.7,0-2.6c-3.3,0-6.6,0-10,0c0,1-0.1,2,0,3.1c0,0.3,0.6,0.8,1,0.9c0.6,0.2,1.3,0.2,2,0.3
		c0,0.7,0,1.3,0,2.1c-4.2,0-8.4,0-12.7,0c0-0.7,0-1.3,0-2c0.6-0.1,1.2-0.2,1.8-0.2c0.8-0.1,1.3-0.5,1.3-1.3c0-2.9,0-5.9,0-8.8
		c0-0.8-0.5-1.3-1.4-1.3C3.4,102,2.8,101.9,2.2,101.9z"/>
	<path class="st0" d="M90,96.7c-0.6,0-0.9,0-1.3,0c-16,0-31.9,0-47.9,0c-0.8,0-1.3-0.2-1.9-0.7c-2.2-2.1-4.5-4.2-6.9-6.4
		c1.4-0.2,2.6-0.3,3.9-0.5c7.2-0.8,14.4-1.7,21.7-2.5c4.3-0.5,8.6-1,12.9-1.5c0.4,0,0.9,0,1.2,0.2c5.9,3.7,11.8,7.3,17.8,11
		C89.6,96.3,89.7,96.4,90,96.7z"/>
	<path class="st0" d="M68.1,83.2c-2.9,0.4-5.7,0.7-8.6,1.1c-6.7,0.9-13.4,1.7-20.1,2.6c-2.8,0.4-5.5,0.7-8.3,1c-0.3,0-0.8,0-1-0.3
		c-2.2-2-4.3-4-6.5-6c-0.1-0.1-0.1-0.2-0.2-0.3c27.6-5.2,55.2-10.3,83-15.6c-0.3,0.5-0.4,0.7-0.5,0.9c-2.2,2.4-4.3,4.9-6.5,7.2
		c-2.6,2.7-6.1,3.7-9.7,4.2c-6.8,0.9-13.5,2-20.3,3C67.7,81.2,67.5,81.7,68.1,83.2z"/>
	<path class="st0" d="M119.3,47.9c-0.1,0.3-0.2,0.5-0.4,0.8c-2,2.9-4,5.8-6.1,8.6c-2.2,2.9-5.4,4.2-8.9,4.8
		c-16.5,3.1-33,6.4-49.6,9.6c-0.1,0-0.3,0.1-0.4,0.1c-1.4,0.3-1.6,1-0.7,2.3c-1.7,0.3-3.4,0.7-5,1c-8.5,1.6-16.9,3.2-25.4,4.9
		c-0.8,0.2-1.4,0.1-2-0.5c-1.7-1.6-3.4-3.2-5.3-5c34.6-8.9,69.1-17.8,103.5-26.7C119.2,47.7,119.2,47.8,119.3,47.9z"/>
	<path class="st0" d="M40.4,66c-4.8,1.2-9.4,2.5-14.1,3.7c-3.8,1-7.6,2-11.3,3c-0.6,0.2-1.1,0.1-1.5-0.4c-0.5-0.6-1.1-1-1.7-1.6
		c-1.5-1.7-1.3-3.8,0.7-4.9c0.8-0.4,1.6-0.8,2.5-1c33.8-11.1,67.6-22.2,101.4-33.4c4.5-1.5,9-3.3,13.5-4.9c0.3-0.1,0.7-0.2,1-0.4
		c0.1,0.2,0.1,0.3,0.1,0.4c-1.8,4.3-4,8.3-6.9,11.9c-2.1,2.7-4.9,4.4-8.2,5.2c-18.5,5-37,10-55.5,14.9c-6.3,1.7-12.7,3.4-19,5.1
		C39.9,64.1,39.6,64.7,40.4,66z"/>
	<path class="st0" d="M1.4,65.7c0.5-2.4,1.5-4.4,3.3-6.1c1.8-1.6,4-2.7,6.2-3.7c31.3-12.7,62.6-25.3,93.8-38.2
		c11.9-4.9,23.5-10.7,35.3-16c0.2-0.1,0.3-0.2,0.5-0.3c0.1,0,0.3,0,0.4,0c0,0.3,0.1,0.7,0,1c-1.6,3.9-3.1,7.9-4.9,11.7
		c-1.9,3.9-5.1,6.6-9.1,8.1c-12.1,4.4-24.3,8.8-36.4,13.1c-25.6,9.1-51.2,18.1-76.8,27.1c-1.1,0.4-2.3,0.9-3.3,1.6
		c-2.5,1.7-3,4.3-1.4,6.8c0.6,0.9,1.4,1.7,2.2,2.5c8,7.5,16.1,15,24.2,22.6c0.2,0.2,0.5,0.4,0.9,0.7c-0.5,0.1-0.6,0.1-0.8,0.1
		c-3.4,0-6.9,0-10.3,0c-0.6,0-0.9-0.2-1.1-0.7c-0.6-1.8-1.7-3.3-3-4.6c-4.4-4.4-8.8-8.9-13.3-13.3c-2.9-2.8-5.6-5.7-6.3-9.9
		C1.4,67.3,1.4,66.5,1.4,65.7z"/>
</g>
</svg>
