<?xml version="1.0" encoding="utf-8"?>
<!-- Generator: Adobe Illustrator 24.0.1, SVG Export Plug-In . SVG Version: 6.00 Build 0)  -->
<svg version="1.1" id="Layer_1" xmlns="http://www.w3.org/2000/svg" xmlns:xlink="http://www.w3.org/1999/xlink" x="0px" y="0px"
	 viewBox="0 0 112 119" style="enable-background:new 0 0 112 119;" xml:space="preserve">
<style type="text/css">
	.st0{fill:#FFFFFF;}
	.st1{fill:#B00E0A;}
</style>
<g id="Ducati">
	<g>
		<g id="g10_6_" transform="matrix(1.25,0,0,-1.25,0,500.3625)">
			<g id="g12_6_" transform="scale(0.1,0.1)">
				<path id="path14_6_" class="st0" d="M83.7,3914.4c-35.8-17.4-78.4-55.8-78.4-139.8c0-13,1-26.9,3.1-41.4l0.8-6.5
					c5.2-38.5,21.1-156.1,80-279.6c59.4-124.1,114.4-203.2,203.1-292c0.7-0.7,67-66.2,99.9-82.7c23.4-11.7,46.9-12.2,52.9-12.1h-0.7
					h1.5H445c6-0.1,29.5,0.4,52.9,12.1c32.8,16.5,99.2,82.1,99.9,82.7c88.8,88.8,143.8,167.9,203.1,292c59,123.5,74.7,241,80,279.7
					l0.9,6.6c15.6,111.6-32.4,160-75.3,181c-108.6,52.9-230.2,79.8-361.5,79.8C313.8,3994.2,192.2,3967.4,83.7,3914.4"/>
				<path id="path16_6_" class="st1" d="M542.2,3757.8h20.1l0.1,44.9h-0.2L542.2,3757.8z M759.2,3709.8h-47.1l25.3,119h47.1
					L759.2,3709.8z M673.8,3709.8h-47.1l18.5,87h-29.4l6.8,32h105.8l-6.9-32h-29.3L673.8,3709.8z M563.6,3709.8l-0.5,19.1h-34.2
					l-8.8-19.1H475l63.3,119h61.2l13-119H563.6L563.6,3709.8z M420.9,3706.6c-41.7,0-55.6,25.4-47.6,63.2
					c6.8,37.1,34.2,62.1,74.4,62.1c30,0,52.8-12.3,45.5-47.2H450c2.2,13.5-2.1,16.2-7.9,16.2c-12.2,0-15.9-12.5-20.1-31.6
					c-3.7-18.1-5.7-31.6,6.1-31.6c6.1,0,11,3.6,14.4,16.1h44.2C479.7,3721,450.4,3706.6,420.9,3706.6 M291.7,3706.6
					c-35.9,0-53.4,14.4-47.4,43l16.8,79.1h47.2l-16.4-77.1c-2-9.4,1.7-13,6.6-13c4.9,0,10.2,3.6,12.2,13l16.4,77.1h47.1l-16.8-79.1
					C351.3,3721,327.7,3706.6,291.7,3706.6 M236.6,3767.9c-7.7-35.9-35.8-58.2-72.4-58.2h-58.6l25.2,119h55.9
					C234.3,3828.7,244,3803.2,236.6,3767.9 M793,3886.9c-114.7,55.9-236.4,76.7-348.1,76.7c-111.6,0-233.3-20.8-347.9-76.7
					c-40.7-19.8-61.2-57.5-61.2-112.2c0-11.7,1-24,2.8-37.1l0.9-6.6c3.6-27.2,12.6-94.6,39.1-175.1c30.4,39.1,151.5,72.3,366.3,83.6
					c202.6,10.7,347.3,10,391.5,9.4c8,37.3,11.9,66.4,14.1,82.1l0.9,6.6C862,3812.6,842.3,3862.9,793,3886.9 M175.8,3801.7h-4.6
					l-13.9-64.9h4.7c7.5,0,12.6,2.7,16.6,7.5c4.2,5,7,13.4,9.4,24.9c2.5,11.6,3.3,20,1.2,24.9
					C187.2,3798.9,183.4,3801.7,175.8,3801.7 M604.1,3588.9c-233.7-36.5-346.7-98.3-401.8-156.5c-42.2-44.6-27.5-78.9-16.2-98.6
					c36.2-56.6,76.1-105.1,127.9-156.9c16.6-16.6,69.2-65.6,91.9-77c18.8-9.4,38.3-8.9,39.2-8.9c0.9,0,20.5-0.4,39.2,8.9
					c22.7,11.4,75.3,60.5,91.9,77c86.1,86,139.4,162.9,197.1,283.5c25.3,53.1,42.4,105.1,54,149.8l0.2,0.7
					C776.4,3609.9,703.5,3604.4,604.1,3588.9"/>
			</g>
		</g>
	</g>
</g>
</svg>
