<?xml version="1.0" encoding="utf-8"?>
<!-- Generator: Adobe Illustrator 24.0.1, SVG Export Plug-In . SVG Version: 6.00 Build 0)  -->
<svg version="1.1" id="Layer_1" xmlns="http://www.w3.org/2000/svg" xmlns:xlink="http://www.w3.org/1999/xlink" x="0px" y="0px"
	 viewBox="0 0 146 119" style="enable-background:new 0 0 146 119;" xml:space="preserve">
<style type="text/css">
	.st0{fill-rule:evenodd;clip-rule:evenodd;fill:#FF0000;}
</style>
<g>
	<g>
		<path class="st0" d="M144.4,116.9c-4.6,0-9.2,0-13.9,0c0-0.7,0-1.4,0-2.1c0.5-0.1,1-0.1,1.5-0.2c0.6-0.1,1.4-0.2,1.2-0.9
			c-0.2-0.6-0.8-1.6-1.3-1.7c-3.1-0.2-6.1-0.2-9.2,0c-0.5,0-1.1,1-1.3,1.7c-0.2,0.7,0.6,0.8,1.2,0.9c0.5,0.1,0.9,0.1,1.4,0.2
			c0,0.7,0,1.4,0,2.1c-3.4,0-6.8,0-10.2,0c0-0.7,0-1.4,0-2c0.1-0.1,0.1-0.1,0.1-0.1c2.1,0.2,3.2-1.1,4.2-2.8
			c1.3-2.3,2.8-4.5,4.1-6.8c0.8-1.3,0.5-1.8-1.1-2c-0.7-0.1-1.3-0.2-2-0.2c0-0.7,0-1.4,0-2.1c0.9,0,1.8,0,2.7,0c3,0,5.9,0,8.9,0
			c1.1,0,1.9,0.4,2.5,1.3c2.2,3.5,4.6,6.8,6.7,10.3c1.1,1.8,2.5,2.4,4.4,2.3C144.4,115.4,144.4,116.1,144.4,116.9z M124.2,109
			c2.2,0,4.2,0,6.3,0c-1.1-1.7-2.1-3.3-3.3-5C126.2,105.8,125.2,107.3,124.2,109z"/>
		<path class="st0" d="M88.4,116.8c0-0.7,0-1.4,0-2.1c0.6-0.1,1.2-0.2,1.8-0.2c0.9-0.1,1.4-0.5,1.4-1.4c0-2.9,0-5.8,0-8.7
			c0-0.8-0.4-1.2-1.2-1.3c-0.6,0-1.1-0.1-1.7-0.2c0-0.7,0-1.4,0-2.1c0.3,0,0.6-0.1,0.9-0.1c5,0,10-0.1,15,0c1.9,0.1,3.8,0.4,5.6,1
			c3.1,1.1,4.8,3.7,4.8,7c0,3.3-1.6,5.9-4.8,7c-1.6,0.6-3.3,1-5,1c-5.5,0.1-10.9,0.1-16.4,0.1C88.8,116.8,88.7,116.8,88.4,116.8z
			 M97.9,113.7c2.3,0,4.5,0.1,6.7,0c1.5-0.1,2.6-1,2.8-2.5c0.2-1.5,0.2-3.1,0-4.7c-0.1-1.3-1-2.3-2.3-2.4c-2.4-0.2-4.7-0.3-7.1-0.4
			C97.9,107.2,97.9,110.4,97.9,113.7z"/>
		<path class="st0" d="M69.2,114.7c0,0.7,0,1.4,0,2.1c-3.4,0-6.7,0-10.1,0c0-0.7,0-1.4,0-2.1c0.6-0.1,1.3-0.2,1.9-0.2
			c0.8-0.1,1.2-0.5,1.2-1.3c0-2.9,0-5.8,0-8.7c0-0.9-0.5-1.3-1.3-1.4c-0.6-0.1-1.2-0.1-1.8-0.2c0-0.7,0-1.4,0-2.1c0.4,0,0.8,0,1.2,0
			c3.2,0,6.3,0,9.5,0c1,0,1.6,0.3,2.2,1.1c2.5,3.3,5,6.6,7.4,9.8c0.2,0.3,0.4,0.5,0.7,1c0.1-0.4,0.1-0.7,0.1-0.9c0-2.2,0-4.4,0-6.6
			c0-1.6-0.2-1.9-1.9-2.1c-0.4,0-0.8-0.1-1.3-0.2c0-0.7,0-1.3,0-2c3.3,0,6.7,0,10.1,0c0,0.7,0,1.3,0,2.1c-0.5,0.1-1.1,0.2-1.6,0.2
			c-1.3,0.1-1.6,0.4-1.6,1.7c0,3.6,0,7.1,0,10.7c0,0.4,0,0.8,0,1.3c-2.9,0-5.6,0.1-8.4,0c-0.5,0-1-0.6-1.4-1
			c-2.5-3.2-4.9-6.4-7.3-9.6c-0.3-0.3-0.5-0.7-0.9-1.2c-0.1,0.4-0.1,0.7-0.1,0.9c0,2.1,0,4.2,0,6.4c0,1.9,0.1,2.1,2,2.3
			C68.3,114.6,68.7,114.7,69.2,114.7z"/>
		<path class="st0" d="M44.5,117.5c-1.9-0.3-3.9-0.4-5.8-0.9c-1.2-0.3-2.3-0.8-3.3-1.4c-4.9-3-4.8-9.9,0-12.9c1.8-1.1,3.9-1.7,6-1.9
			c3.7-0.4,7.5-0.4,11.1,0.9c4.5,1.6,6.7,5.6,5.3,9.9c-1,3.2-3.5,4.7-6.5,5.4c-1.9,0.5-3.8,0.6-5.8,0.9
			C45.2,117.5,44.9,117.5,44.5,117.5z M45,103.2c-0.5,0-1.1,0-1.7,0.1c-2.2,0.3-3.5,1.4-3.9,3.5c-0.4,2.4-0.6,4.9,1.7,6.6
			c0.4,0.3,0.9,0.5,1.4,0.6c1.3,0.1,2.5,0.3,3.8,0.2c2.8-0.2,4.2-1.6,4.5-4.3c0.1-0.9,0.1-1.9-0.1-2.8c-0.4-2.4-1.8-3.6-4.2-3.9
			C46,103.3,45.6,103.2,45,103.2z"/>
		<path class="st0" d="M1.9,102.9c0-0.7,0-1.4,0-2.1c4.2,0,8.4,0,12.7,0c0,0.7,0,1.3,0,2.1c-0.6,0.1-1.2,0.2-1.8,0.2
			c-0.8,0.1-1.3,0.5-1.3,1.3c0,0.9,0,1.7,0,2.7c3.4,0,6.6,0,10,0c0-0.9,0-1.8,0-2.7c0-0.8-0.5-1.2-1.3-1.3c-0.6-0.1-1.2-0.1-1.9-0.2
			c0-0.7,0-1.3,0-2.1c4.2,0,8.5,0,12.8,0c0,0.7,0,1.3,0,2.1c-0.6,0.1-1.1,0.2-1.7,0.2c-1,0.1-1.5,0.5-1.5,1.5c0,2.8,0,5.6,0,8.4
			c0,0.9,0.4,1.4,1.4,1.5c0.6,0,1.1,0.1,1.8,0.2c0,0.7,0,1.3,0,2.1c-4.2,0-8.4,0-12.7,0c0-0.6,0-1.3,0-2.1c0.6-0.1,1.2-0.2,1.8-0.2
			c0.9-0.1,1.3-0.6,1.3-1.4c0-0.8,0-1.7,0-2.6c-3.3,0-6.6,0-10,0c0,1-0.1,2,0,3.1c0,0.3,0.6,0.8,1,0.9c0.6,0.2,1.3,0.2,2,0.3
			c0,0.7,0,1.3,0,2.1c-4.2,0-8.4,0-12.7,0c0-0.7,0-1.3,0-2c0.6-0.1,1.2-0.2,1.8-0.2c0.8-0.1,1.3-0.5,1.3-1.3c0-2.9,0-5.9,0-8.8
			c0-0.8-0.5-1.3-1.4-1.3C3.1,103.1,2.5,103,1.9,102.9z"/>
		<path class="st0" d="M89.6,97.7c-0.6,0-0.9,0-1.3,0c-16,0-31.9,0-47.9,0c-0.8,0-1.3-0.2-1.9-0.7c-2.2-2.1-4.5-4.2-6.9-6.4
			c1.4-0.2,2.6-0.3,3.9-0.5c7.2-0.8,14.4-1.7,21.7-2.5c4.3-0.5,8.6-1,12.9-1.5c0.4,0,0.9,0,1.2,0.2c5.9,3.7,11.8,7.3,17.8,11
			C89.2,97.3,89.3,97.4,89.6,97.7z"/>
		<path class="st0" d="M67.8,84.2c-2.9,0.4-5.7,0.7-8.6,1.1C52.4,86.2,45.7,87,39,87.9c-2.8,0.4-5.5,0.7-8.3,1c-0.3,0-0.8,0-1-0.3
			c-2.2-2-4.3-4-6.5-6c-0.1-0.1-0.1-0.2-0.2-0.3c27.6-5.2,55.2-10.3,83-15.6c-0.3,0.5-0.4,0.7-0.5,0.9c-2.2,2.4-4.3,4.9-6.5,7.2
			c-2.6,2.7-6.1,3.7-9.7,4.2C82.5,80,75.7,81,69,82C67.4,82.2,67.1,82.7,67.8,84.2z"/>
		<path class="st0" d="M119,48.9c-0.1,0.3-0.2,0.5-0.4,0.8c-2,2.9-4,5.8-6.1,8.6c-2.2,2.9-5.4,4.2-8.9,4.8
			c-16.5,3.1-33,6.4-49.6,9.6c-0.1,0-0.3,0.1-0.4,0.1C52.3,73,52,73.7,53,75c-1.7,0.3-3.4,0.7-5,1c-8.5,1.6-16.9,3.2-25.4,4.9
			c-0.8,0.2-1.4,0.1-2-0.5c-1.7-1.6-3.4-3.2-5.3-5c34.6-8.9,69.1-17.8,103.5-26.7C118.9,48.7,118.9,48.8,119,48.9z"/>
		<path class="st0" d="M40.1,67c-4.8,1.2-9.4,2.5-14.1,3.7c-3.8,1-7.6,2-11.3,3c-0.6,0.2-1.1,0.1-1.5-0.4c-0.5-0.6-1.1-1-1.7-1.6
			c-1.5-1.7-1.3-3.8,0.7-4.9c0.8-0.4,1.6-0.8,2.5-1C48.4,54.6,82.2,43.5,116,32.4c4.5-1.5,9-3.3,13.5-4.9c0.3-0.1,0.7-0.2,1-0.4
			c0.1,0.2,0.1,0.3,0.1,0.4c-1.8,4.3-4,8.3-6.9,11.9c-2.1,2.7-4.9,4.4-8.2,5.2c-18.5,5-37,10-55.5,14.9c-6.3,1.7-12.7,3.4-19,5.1
			C39.5,65.1,39.3,65.7,40.1,67z"/>
		<path class="st0" d="M1,66.7c0.5-2.4,1.5-4.4,3.3-6.1c1.8-1.6,4-2.7,6.2-3.7c31.3-12.7,62.6-25.3,93.8-38.2
			c11.9-4.9,23.5-10.7,35.3-16c0.2-0.1,0.3-0.2,0.5-0.3c0.1,0,0.3,0,0.4,0c0,0.3,0.1,0.7,0,1c-1.6,3.9-3.1,7.9-4.9,11.7
			c-1.9,3.9-5.1,6.6-9.1,8.1c-12.1,4.4-24.3,8.8-36.4,13.1c-25.6,9.1-51.2,18.1-76.8,27.1C12.1,63.9,11,64.4,10,65
			c-2.5,1.7-3,4.3-1.4,6.8c0.6,0.9,1.4,1.7,2.2,2.5c8,7.5,16.1,15,24.2,22.6c0.2,0.2,0.5,0.4,0.9,0.7c-0.5,0.1-0.6,0.1-0.8,0.1
			c-3.4,0-6.9,0-10.3,0c-0.6,0-0.9-0.2-1.1-0.7c-0.6-1.8-1.7-3.3-3-4.6c-4.4-4.4-8.8-8.9-13.3-13.3c-2.9-2.8-5.6-5.7-6.3-9.9
			C1,68.3,1,67.5,1,66.7z"/>
	</g>
</g>
</svg>
