<?xml version="1.0" encoding="utf-8"?>
<!-- Generator: Adobe Illustrator 24.0.1, SVG Export Plug-In . SVG Version: 6.00 Build 0)  -->
<svg version="1.1" id="Layer_1" xmlns="http://www.w3.org/2000/svg" xmlns:xlink="http://www.w3.org/1999/xlink" x="0px" y="0px"
	 viewBox="0 0 175 119" style="enable-background:new 0 0 175 119;" xml:space="preserve">
<style type="text/css">
	.st0{fill-rule:evenodd;clip-rule:evenodd;fill:#10B510;}
	.st1{fill:#231F20;}
</style>
<g id="Kawasaki">
	<g>
		<path class="st0" d="M104.8,1.4h69.7V7c-2.5,18-17.1,33-37.1,39.6c21.6,7.3,37,24.6,37,44.8h-70.7c5.6-4.6,8.8-10,8.8-15.8
			c0-16.1-24.7-29.2-55.1-29.2c-1,0-2.1,0-3.1,0v44.8H0.4v-90h53.9v42.4c0.4,0,0.9,0,1.3,0c30.3,0,55.1-13.1,55.1-29.2
			C110.7,9.8,108.5,5.3,104.8,1.4L104.8,1.4z"/>
		<path class="st1" d="M167.5,94.3h6.6v4.5h-6.6V94.3z M167.5,100.8h6.6V118h-6.6V100.8z"/>
		<path class="st1" d="M0.6,94.3h7.3v9l7.7-9h9.7l-8.7,9l9,14.8h-9l-5-9.8l-3.8,4v5.8H0.6V94.3z"/>
		<path class="st1" d="M33.7,106.4l-6.3-0.7c0.2-1.1,0.6-2,1-2.6s1.1-1.2,1.9-1.6c0.6-0.3,1.4-0.6,2.5-0.8c1.1-0.2,2.2-0.3,3.4-0.3
			c2,0,3.6,0.1,4.8,0.3c1.2,0.2,2.2,0.7,3,1.4c0.6,0.5,1,1.2,1.3,2.1c0.3,0.9,0.5,1.7,0.5,2.5v7.6c0,0.8,0.1,1.4,0.2,1.9
			c0.1,0.5,0.3,1,0.7,1.8h-6.2c-0.2-0.4-0.4-0.8-0.5-1c-0.1-0.2-0.2-0.6-0.2-1.1c-0.9,0.8-1.7,1.4-2.6,1.8c-1.2,0.5-2.5,0.7-4.1,0.7
			c-2,0-3.6-0.5-4.7-1.4c-1.1-0.9-1.6-2.1-1.6-3.5c0-1.3,0.4-2.4,1.1-3.2c0.8-0.8,2.2-1.5,4.2-1.9c2.5-0.5,4.1-0.8,4.8-1
			c0.7-0.2,1.5-0.5,2.3-0.8c0-0.8-0.2-1.4-0.5-1.7c-0.3-0.3-0.9-0.5-1.8-0.5c-1.1,0-1.9,0.2-2.4,0.5C34.3,105.1,34,105.6,33.7,106.4
			z M39.5,109.8c-0.9,0.3-1.9,0.6-2.8,0.9c-1.3,0.4-2.2,0.7-2.5,1.1c-0.4,0.4-0.6,0.8-0.6,1.2c0,0.5,0.2,0.9,0.5,1.3
			s0.9,0.5,1.6,0.5c0.7,0,1.4-0.2,2-0.5c0.6-0.4,1.1-0.8,1.3-1.3c0.3-0.5,0.4-1.2,0.4-2V109.8z"/>
		<path class="st1" d="M101.7,113.2l6.5-0.6c0.3,0.8,0.6,1.3,1.1,1.7c0.5,0.3,1.1,0.5,1.9,0.5c0.9,0,1.6-0.2,2.1-0.6
			c0.4-0.3,0.6-0.6,0.6-1c0-0.5-0.2-0.8-0.7-1.1c-0.4-0.2-1.3-0.4-2.8-0.7c-2.3-0.4-3.9-0.8-4.8-1.1c-0.9-0.3-1.6-0.9-2.2-1.7
			c-0.6-0.8-0.9-1.7-0.9-2.8c0-1.1,0.3-2.1,1-2.9c0.7-0.8,1.6-1.4,2.7-1.8c1.2-0.4,2.7-0.6,4.6-0.6c2,0,3.6,0.2,4.5,0.5
			c1,0.3,1.8,0.8,2.4,1.5c0.7,0.7,1.2,1.5,1.6,2.7l-6.2,0.6c-0.2-0.5-0.4-1-0.8-1.2c-0.5-0.3-1.1-0.5-1.9-0.5
			c-0.7,0-1.3,0.1-1.6,0.4s-0.5,0.6-0.5,1c0,0.4,0.2,0.7,0.6,1c0.4,0.2,1.4,0.4,2.8,0.6c2.2,0.2,3.8,0.6,4.9,1
			c1.1,0.4,1.9,1.1,2.5,1.9c0.6,0.8,0.8,1.7,0.8,2.7c0,1-0.3,2-0.9,2.9s-1.5,1.7-2.8,2.2s-3,0.8-5.3,0.8c-3.1,0-5.4-0.4-6.7-1.3
			C102.9,116.1,102.1,114.9,101.7,113.2z"/>
		<path class="st1" d="M86.7,106.4l-6.3-0.7c0.2-1.1,0.6-2,1-2.6s1.1-1.2,1.9-1.6c0.6-0.3,1.4-0.6,2.5-0.8c1.1-0.2,2.2-0.3,3.4-0.3
			c2,0,3.6,0.1,4.8,0.3c1.2,0.2,2.2,0.7,3,1.4c0.6,0.5,1,1.2,1.3,2.1s0.5,1.7,0.5,2.5v7.6c0,0.8,0.1,1.4,0.2,1.9
			c0.1,0.5,0.3,1,0.7,1.8h-6.2c-0.2-0.4-0.4-0.8-0.5-1c-0.1-0.2-0.2-0.6-0.2-1.1c-0.9,0.8-1.7,1.4-2.6,1.8c-1.2,0.5-2.5,0.7-4.1,0.7
			c-2,0-3.6-0.5-4.7-1.4c-1.1-0.9-1.6-2.1-1.6-3.5c0-1.3,0.4-2.4,1.1-3.2c0.8-0.8,2.2-1.5,4.2-1.9c2.5-0.5,4.1-0.8,4.8-1
			c0.7-0.2,1.5-0.5,2.3-0.8c0-0.8-0.2-1.4-0.5-1.7s-0.9-0.5-1.8-0.5c-1.1,0-1.9,0.2-2.4,0.5C87.3,105.1,87,105.6,86.7,106.4z
			 M92.5,109.8c-0.9,0.3-1.9,0.6-2.8,0.9c-1.3,0.4-2.2,0.7-2.5,1.1c-0.4,0.4-0.6,0.8-0.6,1.2c0,0.5,0.2,0.9,0.5,1.3s0.9,0.5,1.6,0.5
			c0.7,0,1.4-0.2,2-0.5c0.6-0.4,1.1-0.8,1.3-1.3c0.3-0.5,0.4-1.2,0.4-2V109.8z"/>
		<path class="st1" d="M47.9,100.8h6.4l2.8,10.8l3.5-10.8h6l3.6,10.8l2.8-10.8h6.3L72.9,118H67l-3.5-10.3L60.2,118h-5.9L47.9,100.8z
			"/>
		<path class="st1" d="M129.1,106.4l-6.3-0.7c0.2-1.1,0.6-2,1-2.6c0.4-0.6,1.1-1.2,1.9-1.6c0.6-0.3,1.4-0.6,2.5-0.8
			c1.1-0.2,2.2-0.3,3.4-0.3c2,0,3.6,0.1,4.8,0.3c1.2,0.2,2.2,0.7,3,1.4c0.6,0.5,1,1.2,1.3,2.1s0.5,1.7,0.5,2.5v7.6
			c0,0.8,0.1,1.4,0.2,1.9c0.1,0.5,0.3,1,0.7,1.8h-6.2c-0.2-0.4-0.4-0.8-0.5-1c-0.1-0.2-0.2-0.6-0.2-1.1c-0.9,0.8-1.7,1.4-2.6,1.8
			c-1.2,0.5-2.5,0.7-4.1,0.7c-2,0-3.6-0.5-4.7-1.4c-1.1-0.9-1.6-2.1-1.6-3.5c0-1.3,0.4-2.4,1.1-3.2c0.8-0.8,2.2-1.5,4.2-1.9
			c2.5-0.5,4.1-0.8,4.8-1c0.7-0.2,1.5-0.5,2.3-0.8c0-0.8-0.2-1.4-0.5-1.7c-0.3-0.3-0.9-0.5-1.8-0.5c-1.1,0-1.9,0.2-2.4,0.5
			C129.7,105.1,129.3,105.6,129.1,106.4z M134.8,109.8c-0.9,0.3-1.8,0.6-2.8,0.9c-1.3,0.4-2.2,0.7-2.5,1.1c-0.4,0.4-0.6,0.8-0.6,1.2
			c0,0.5,0.2,0.9,0.5,1.3s0.9,0.5,1.6,0.5c0.7,0,1.4-0.2,2-0.5c0.6-0.4,1.1-0.8,1.3-1.3s0.4-1.2,0.4-2V109.8z"/>
		<path class="st1" d="M145.2,94.3h6.7v12.2l4.9-5.7h8.1l-6.2,6l6.5,11.2h-7.4l-3.5-6.9l-2.5,2.4v4.5h-6.7V94.3z"/>
	</g>
</g>
</svg>
