<?xml version="1.0" encoding="utf-8"?>
<!-- Generator: Adobe Illustrator 24.0.1, SVG Export Plug-In . SVG Version: 6.00 Build 0)  -->
<svg version="1.1" id="Layer_1" xmlns="http://www.w3.org/2000/svg" xmlns:xlink="http://www.w3.org/1999/xlink" x="0px" y="0px"
	 viewBox="0 0 155 119" style="enable-background:new 0 0 155 119;" xml:space="preserve">
<style type="text/css">
	.st0{fill:#E20A17;}
	.st1{fill:#003399;}
</style>
<g id="Suzuki">
	
		<image style="overflow:visible;opacity:0.3;" width="187" height="152" xlink:href="4A4CAD570DEF23F0.png"  transform="matrix(1 0 0 1 -15.0079 -16.0079)">
	</image>
	<g>
		<g>
			<path class="st0" d="M64.7,22.5c0.8-2.6,2.8-1.3,2.8-1.3s5.3,4,19.7,13.2c14.4,9.2,32.4-3.6,32.4-3.6L76.9,0.5
				C58.2,20.4,34.3,27.5,34.3,27.5l0.1,0l54.5,38.2C88.1,68.4,86,67,86,67s-5.3-4-19.7-13.2C52,44.7,34,57.4,34,57.4l42.7,30.3
				c18.7-19.8,42.7-26.9,42.7-26.9l-0.1,0L64.7,22.5z"/>
			<path class="st1" d="M153.5,93.6v23.1H145V93.6H153.5z"/>
			<path class="st1" d="M114.9,116.7V93.6h8.5l0,8.6l9.2-8.6h10.7l-12.2,11.2l12.7,11.9h-11.5l-8.8-8.3l0.1,8.3H114.9L114.9,116.7z"
				/>
			<path class="st1" d="M48.1,93.4h8.6v16.1c0,3.3-2.1,5.7-6.2,7c-1.9,0.6-4.2,0.7-6.8,0.7c-2.3,0-4.4,0-6.3-0.5
				c-4.5-1.8-6.8-4.2-6.8-7.2V93.4h8.6v13.8c0,2.5,0.3,4.4,4.5,4.4c4.2,0,4.3-2,4.3-4.5L48.1,93.4z"/>
			<path class="st1" d="M58.4,93.6H85v5l-13,11.7h13v6.5H58.4v-5.6l12.7-11.5H58.5L58.4,93.6z"/>
			<path class="st1" d="M104.2,93.4h8.6v16.1c0,3.3-2.1,5.7-6.2,7c-1.9,0.6-4.2,0.7-6.8,0.7c-2.3,0-4.4,0-6.3-0.5
				c-4.5-1.8-6.8-4.2-6.8-7.2V93.4h8.6v13.8c0,2.5,0.3,4.4,4.5,4.4c4.2,0,4.3-2,4.3-4.5L104.2,93.4z"/>
			<path class="st1" d="M1,109l11.6,0.1c0.2,1.1-0.1,1.1,0.5,1.7c1,0.9,2.4,1.1,3.7,0.9c1-0.2,2.6-0.5,2.7-1.8
				c0.1-1.4-0.9-1.9-2.1-2c-1.7-0.2-3.3-0.3-5-0.5c-4.2-0.7-6.5-1-8.3-2.2c-1.8-1.2-2-3.7-2-5.4c0-1.2,0.5-2.3,1.4-3.3
				c0.9-1,2.3-1.9,4.2-2.5c1.9-0.6,4.4-0.9,7.7-0.9c4,0,7,0.5,9.1,1.6c2.1,1.1,3.3,3.5,3.7,5.9c0,0-9.9,0-9.9,0
				c0.1-0.1-0.2-0.8-0.2-0.9c-0.4-1.4-1.7-1.8-3-2c-1-0.2-2.2-0.2-3.2,0.3c-0.6,0.3-1,0.7-1,1.2c0,0.4,0.2,0.7,0.7,1
				c0.5,0.3,1.5,0.6,3.2,0.8c4.2,0.7,7.3,1.3,9.1,2c1.8,0.7,3.2,1.5,4,2.5c0.8,1,1.2,2.1,1.2,3.4c0,1.5-0.6,2.8-1.7,4
				c-1.1,1.2-2.7,2.2-4.7,2.8c-2,0.6-4.5,1-7.5,1c-5.3,0-9-0.7-11.1-2.2C2.4,112.9,1.2,111.3,1,109z"/>
		</g>
	</g>
</g>
</svg>
