<?xml version="1.0" encoding="utf-8"?>
<!-- Generator: Adobe Illustrator 24.0.1, SVG Export Plug-In . SVG Version: 6.00 Build 0)  -->
<svg version="1.1" id="Layer_1" xmlns="http://www.w3.org/2000/svg" xmlns:xlink="http://www.w3.org/1999/xlink" x="0px" y="0px"
	 viewBox="0 0 101 119" style="enable-background:new 0 0 101 119;" xml:space="preserve">
<style type="text/css">
	.st0{fill:#CC0000;}
	.st1{fill:url(#SVGID_1_);}
	.st2{fill:url(#SVGID_2_);}
	.st3{fill-rule:evenodd;clip-rule:evenodd;fill:#231F20;}
</style>
<g id="Yamaha">
	<g>
		<g>
			<circle id="XMLID_7_" class="st0" cx="50" cy="46.3" r="45.1"/>
			<linearGradient id="SVGID_1_" gradientUnits="userSpaceOnUse" x1="24.5973" y1="27.0984" x2="75.2686" y2="77.7698">
				<stop  offset="0" style="stop-color:#FFFFFF"/>
				<stop  offset="0.2968" style="stop-color:#FDFEFF"/>
				<stop  offset="0.4038" style="stop-color:#F6FAFF"/>
				<stop  offset="0.48" style="stop-color:#EBF4FF"/>
				<stop  offset="0.5411" style="stop-color:#DAEBFF"/>
				<stop  offset="0.5934" style="stop-color:#C4DFFF"/>
				<stop  offset="0.5976" style="stop-color:#C2DEFF"/>
				<stop  offset="0.6443" style="stop-color:#C6E0FF"/>
				<stop  offset="0.693" style="stop-color:#D3E7FF"/>
				<stop  offset="0.7423" style="stop-color:#E7F2FF"/>
				<stop  offset="0.7839" style="stop-color:#FFFFFF"/>
				<stop  offset="0.87" style="stop-color:#D9E3F0"/>
				<stop  offset="1" style="stop-color:#9AB5D6"/>
			</linearGradient>
			<path class="st1" d="M76.7,57.1c-1.3,0.7-2.8,0.7-4.2,0c-1.2-0.7-2-2-2.1-3.3c-0.2-2.1-1.3-4-3.3-5.2l-3.9-2.3L80,36.7l-1.7-3
				L59.7,44.3l-3.1-1.8v-3.7l18.5-10.7l-1.7-3l-16.7,9.7v-4.7c0-2.2-1.1-4.2-2.8-5.4c-1.1-0.8-1.8-2-1.8-3.5c0-1.5,0.8-2.9,2-3.6
				L50,4.6l-4.1,13c1.2,0.7,2,2.1,2,3.6c0,1.4-0.7,2.7-1.8,3.5c-1.7,1.2-2.8,3.2-2.8,5.4v4.7l-16.8-9.7l-1.7,3l18.5,10.7v3.6
				l-3.2,1.9L21.6,33.7l-1.7,3l16.8,9.7l-3.9,2.3c-1.9,1.1-3.1,3.1-3.3,5.2c-0.1,1.3-0.9,2.6-2.1,3.3c-1.3,0.8-2.9,0.7-4.2,0
				l-9.2,10l13.3-3c0-1.4,0.8-2.8,2.1-3.6c1.2-0.7,2.7-0.7,3.9-0.2c1.9,0.9,4.2,0.9,6.1-0.3l4-2.3V77h3.5V55.8l3.1-1.8l3.2,1.9V77
				h3.5V57.9l3.9,2.2c1.9,1.1,4.2,1.1,6.1,0.3c1.2-0.6,2.7-0.5,3.9,0.2c1.3,0.8,2.1,2.2,2.1,3.6l13.3,3L76.7,57.1z M49.9,50
				l-3.1-1.8v-3.7l3.1-1.8l3.2,1.9v3.6L49.9,50z M46.8,30.1c0-1.8,1.4-3.2,3.2-3.2s3.2,1.4,3.2,3.2v6.7l-3.2,1.9l-3.1-1.8V30.1z
				 M37.6,57.1c-1.5,0.9-3.5,0.4-4.3-1.2c-0.9-1.5-0.4-3.5,1.2-4.3l5.7-3.3l3.2,1.9v3.6L37.6,57.1z M66.6,55.9
				c-0.9,1.5-2.8,2-4.3,1.2l-5.6-3.2v-3.7l3.1-1.8l5.7,3.3C66.9,52.5,67.4,54.4,66.6,55.9z"/>
			<linearGradient id="SVGID_2_" gradientUnits="userSpaceOnUse" x1="19.1873" y1="15.5414" x2="80.7584" y2="77.1126">
				<stop  offset="0" style="stop-color:#FFFFFF"/>
				<stop  offset="0.2968" style="stop-color:#FDFEFF"/>
				<stop  offset="0.4038" style="stop-color:#F6FAFF"/>
				<stop  offset="0.48" style="stop-color:#EBF4FF"/>
				<stop  offset="0.5411" style="stop-color:#DAEBFF"/>
				<stop  offset="0.5934" style="stop-color:#C4DFFF"/>
				<stop  offset="0.5976" style="stop-color:#C2DEFF"/>
				<stop  offset="0.6443" style="stop-color:#C6E0FF"/>
				<stop  offset="0.693" style="stop-color:#D3E7FF"/>
				<stop  offset="0.7423" style="stop-color:#E7F2FF"/>
				<stop  offset="0.7839" style="stop-color:#FFFFFF"/>
				<stop  offset="0.87" style="stop-color:#D9E3F0"/>
				<stop  offset="1" style="stop-color:#9AB5D6"/>
			</linearGradient>
			<path class="st2" d="M50,2.8c-24,0-43.5,19.5-43.5,43.5c0,24,19.5,43.5,43.5,43.5c24,0,43.5-19.5,43.5-43.5
				C93.5,22.3,74,2.8,50,2.8z M85.6,68.2L85.6,68.2l-5.8-1.3C73.3,76.4,62.4,82.6,50,82.6s-23.3-6.2-29.9-15.7l-5.8,1.3v0
				c-0.5,0.1-1.1-0.1-1.4-0.5c-0.3-0.5-0.2-1.1,0.2-1.4l0,0l4-4.4c-2.2-4.7-3.5-10-3.5-15.5c0-19.1,14.7-34.7,33.4-36.2l1.8-5.7h0
				C48.9,4,49.4,3.6,50,3.6c0.6,0,1,0.4,1.2,0.9h0l1.8,5.7c18.7,1.5,33.4,17.1,33.4,36.2c0,5.6-1.3,10.8-3.5,15.5l4,4.4l0,0
				c0.4,0.4,0.5,1,0.2,1.4C86.7,68.2,86.1,68.4,85.6,68.2z"/>
		</g>
		<path class="st3" d="M25.7,94.4h-6.3l-4,23.1h4.7l0.8-5.5l3.4,0l0.8,5.5h4.7L25.7,94.4z M21.4,107.7l1.1-8l1.2,8L21.4,107.7z"/>
		<polygon class="st3" points="77.5,94.5 77.5,103.6 73.4,103.6 73.4,94.5 68.8,94.5 68.8,117.6 73.4,117.6 73.4,107.8 77.5,107.8 
			77.5,117.6 82.2,117.6 82.2,94.5 		"/>
		<path class="st3" d="M62,94.5h-6.3l-4,23h4.7l0.8-5.5l3.5,0l0.8,5.5h4.7L62,94.5z M57.7,107.8l1.1-8l1.2,8L57.7,107.8z"/>
		<polygon class="st3" points="49.1,117.5 44.7,117.5 44.7,102.9 42.1,117.5 39.2,117.5 36.7,102.9 36.7,117.5 32.4,117.5 
			32.4,94.5 38.8,94.5 40.7,105.4 42.6,94.5 49.1,94.5 		"/>
		<path class="st3" d="M95.2,94.4h-6.3l-4,23h4.7l0.8-5.5l3.5,0l0.8,5.5h4.7L95.2,94.4z M91,107.8l1.1-8l1.2,8L91,107.8z"/>
		<polygon class="st3" points="10.7,109.8 15.7,94.5 11,94.5 8.2,104.7 5.3,94.5 0.6,94.5 5.7,109.8 5.7,117.5 10.7,117.5 		"/>
	</g>
</g>
</svg>
